SplineFontDB: 3.0
FontName: Rokkitt-Light
FullName: Rokkitt Light
FamilyName: Rokkitt
Weight: Light
Copyright: Copyright (c) 2011 by vernon adams. All rights reserved.
Version: 1.000
ItalicAngle: 0
UnderlinePosition: -103
UnderlineWidth: 102
Ascent: 1638
Descent: 410
sfntRevision: 0x00010042
LayerCount: 2
Layer: 0 1 "Back"  1
Layer: 1 1 "Fore"  0
NeedsXUIDChange: 1
XUID: [1021 118 1023546858 13987341]
FSType: 0
OS2Version: 4
OS2_WeightWidthSlopeOnly: 0
OS2_UseTypoMetrics: 1
CreationTime: 1318440780
ModificationTime: 1319212272
PfmFamily: 17
TTFWeight: 300
TTFWidth: 5
LineGap: 0
VLineGap: 0
Panose: 2 0 5 3 5 0 0 2 0 3
OS2TypoAscent: 151
OS2TypoAOffset: 1
OS2TypoDescent: -29
OS2TypoDOffset: 1
OS2TypoLinegap: 0
OS2WinAscent: 139
OS2WinAOffset: 1
OS2WinDescent: 6
OS2WinDOffset: 1
HheadAscent: 139
HheadAOffset: 1
HheadDescent: -6
HheadDOffset: 1
OS2SubXSize: 1331
OS2SubYSize: 1228
OS2SubXOff: 0
OS2SubYOff: 153
OS2SupXSize: 1331
OS2SupYSize: 1228
OS2SupXOff: 0
OS2SupYOff: 716
OS2StrikeYSize: 102
OS2StrikeYPos: 509
OS2Vendor: 'newt'
OS2CodePages: 00000081.00000000
OS2UnicodeRanges: 8000006f.4000204b.00000000.00000000
Lookup: 4 0 1 "'liga' Standard Ligatures in Latin lookup 0"  {"'liga' Standard Ligatures in Latin lookup 0 subtable"  } ['liga' ('DFLT' <'dflt' > 'latn' <'dflt' > ) ]
Lookup: 258 0 0 "'kern' Horizontal Kerning in Latin lookup 0"  {"'kern' Horizontal Kerning in Latin lookup 0 subtable"  } ['kern' ('DFLT' <'dflt' > 'latn' <'dflt' > ) ]
MarkAttachClasses: 1
DEI: 91125
TtTable: prep
PUSHW_1
 511
SCANCTRL
PUSHB_1
 1
SCANTYPE
SVTCA[y-axis]
MPPEM
PUSHB_1
 8
LT
IF
PUSHB_2
 1
 1
INSTCTRL
EIF
PUSHB_2
 70
 6
CALL
IF
POP
PUSHB_1
 16
EIF
MPPEM
PUSHB_1
 20
GT
IF
POP
PUSHB_1
 128
EIF
SCVTCI
PUSHB_1
 6
CALL
NOT
IF
SVTCA[y-axis]
PUSHB_1
 3
DUP
RCVT
PUSHB_1
 3
CALL
WCVTP
PUSHB_1
 4
DUP
RCVT
PUSHB_3
 3
 153
 2
CALL
PUSHB_1
 3
CALL
WCVTP
PUSHB_1
 5
DUP
RCVT
PUSHB_3
 4
 84
 2
CALL
PUSHB_1
 3
CALL
WCVTP
SVTCA[x-axis]
PUSHB_1
 6
DUP
RCVT
PUSHB_1
 3
CALL
WCVTP
PUSHB_1
 7
DUP
RCVT

StartChar: exclam
Encoding: 33 33 24
Width: 432
GlyphClass: 2
Flags: W
HStem: 0 106<164 267>
VStem: 171 89<0 106 723.44 1171>
LayerCount: 2
Fore
SplineSet
200 344 m 1,0,-1
 171 809 l 1,1,-1
 171 1171 l 1,2,-1
 260 1171 l 1,3,-1
 260 809 l 1,4,-1
 231 344 l 1,5,-1
 200 344 l 1,0,-1
164 106 m 1,6,-1
 269 106 l 1,7,-1
 267 0 l 1,8,-1
 164 0 l 1,9,-1
 164 106 l 1,6,-1
EndSplineSet
EndChar

StartChar: quotedbl
Encoding: 34 34 25
Width: 543
GlyphClass: 2
Flags: W
HStem: 854 380<158 190 351 383>
VStem: 158 32<854 1019.08> 351 32<854 1019.08>
LayerCount: 2
Fore
SplineSet
383 854 m 1,0,-1
 351 854 l 1,1,-1
 325 1234 l 1,2,-1
 416 1234 l 1,3,-1
 383 854 l 1,0,-1
190 854 m 1,4,-1
 158 854 l 1,5,-1
 131 1234 l 1,6,-1
 223 1234 l 1,7,-1
 190 854 l 1,4,-1
EndSplineSet
EndChar

StartChar: numbersign
Encoding: 35 35 26
Width: 1034
GlyphClass: 2
Flags: W
HStem: 0 21G<196 276.658 640 720.658> 398 59<58 229 313 673 757 939> 821 59<94 264 348 708 792 975> 1214 20G<296.362 377 740.362 821>
VStem: 196 79<0 79> 298 79<1155 1234> 640 79<0 79> 742 79<1155 1234>
DStem2: 196 0 275 0 0.0823771 0.996601<6.50779 399.366 465.085 823.811 889.53 1238.21> 640 0 719 0 0.0823771 0.996601<6.50779 399.366 465.085 823.811 889.53 1238.21>
LayerCount: 2
Fore
SplineSet
269 880 m 1,0,-1
 298 1234 l 1,1,-1
 377 1234 l 1,2,-1
 348 880 l 1,3,-1
 713 880 l 1,4,-1
 742 1234 l 1,5,-1
 821 1234 l 1,6,-1
 792 880 l 1,7,-1
 980 880 l 1,8,-1
 975 821 l 1,9,-1
 787 821 l 1,10,-1
 757 457 l 1,11,-1
 944 457 l 1,12,-1
 939 398 l 1,13,-1
 752 398 l 1,14,-1
 719 0 l 1,15,-1
 640 0 l 1,16,-1
 673 398 l 1,17,-1
 308 398 l 1,18,-1
 275 0 l 1,19,-1
 196 0 l 1,20,-1
 229 398 l 1,21,-1
 53 398 l 1,22,-1
 58 457 l 1,23,-1
 234 457 l 1,24,-1
 264 821 l 1,25,-1
 89 821 l 1,26,-1
 94 880 l 1,27,-1
 269 880 l 1,0,-1
313 457 m 1,28,-1
 678 457 l 1,29,-1
 708 821 l 1,30,-1
 343 821 l 1,31,-1
 313 457 l 1,28,-1
EndSplineSet
EndChar

StartChar: dollar
Encoding: 36 36 27
Width: 1151
GlyphClass: 2
Flags: W
HStem: -23 75<505.16 641 701 887.881> 0 21G<224 303> 1182 73<449.462 641 701 839.22> 1214 20G<971 1050>
VStem: 224 79<0 112 171.348 416 779.952 1054.9> 641 60<-190 -23 57 587 670 1178 1255 1421> 971 79<899 1101.76 1163 1234> 1032 89<176.187 474.11>
DStem2: 641 670 641 594 0.981383 -0.192063<-297.887 0 74.8242 358.593>
LayerCount: 2
Fore
SplineSet
701 -23 m 1,0,-1
 701 -190 l 1,1,-1
 641 -190 l 1,2,-1
 641 -20 l 1,3,4
 464 -1 464 -1 303 112 c 1,5,-1
 303 0 l 1,6,-1
 224 0 l 1,7,-1
 224 416 l 1,8,-1
 303 416 l 1,9,-1
 303 196 l 1,10,11
 463 78 463 78 641 57 c 1,12,-1
 641 594 l 1,13,14
 423 616 423 616 329 679 c 0,15,16
 215 756 215 756 215 918.5 c 128,-1,17
 215 1081 215 1081 333.5 1168 c 128,-1,18
 452 1255 452 1255 624 1255 c 2,19,-1
 641 1255 l 1,20,-1
 641 1421 l 1,21,-1
 701 1421 l 1,22,-1
 701 1250 l 1,23,24
 834 1235 834 1235 971 1163 c 1,25,-1
 971 1234 l 1,26,-1
 1050 1234 l 1,27,-1
 1050 899 l 1,28,-1
 971 899 l 1,29,-1
 971 1080 l 1,30,31
 844 1162 844 1162 701 1178 c 1,32,-1
 701 663 l 1,33,34
 780 654 780 654 840 639.5 c 128,-1,35
 900 625 900 625 955 599 c 128,-1,36
 1010 573 1010 573 1045 536.5 c 128,-1,37
 1080 500 1080 500 1100.5 444.5 c 128,-1,38
 1121 389 1121 389 1121 317 c 0,39,40
 1120 194 1120 194 1030 97 c 0,41,42
 919 -23 919 -23 704 -23 c 2,43,-1
 701 -23 l 1,0,-1
951.5 508.5 m 128,-1,45
 871 565 871 565 701 587 c 1,46,-1
 701 53 l 1,47,48
 709 52 709 52 717 52 c 2,49,-1
 764 52 l 2,50,51
 812 52 812 52 867 77.5 c 128,-1,52
 922 103 922 103 953 134 c 0,53,54
 1032 212 1032 212 1032 332 c 128,-1,44
 1032 452 1032 452 951.5 508.5 c 128,-1,45
637 1182 m 2,55,56
 483 1182 483 1182 394.5 1113.5 c 128,-1,57
 306 1045 306 1045 306 909 c 0,58,59
 306 782 306 782 399 728 c 0,60,61
 468 688 468 688 641 670 c 1,62,-1
 641 1182 l 1,63,-1
 637 1182 l 2,55,56
EndSplineSet
EndChar

StartChar: percent
Encoding: 37 37 28
Width: 1610
GlyphClass: 2
Flags: W
HStem: -25 65<1187.54 1443.16> 526 63<1190.54 1440.45> 641 65<346.539 602.158> 1192 63<349.536 599.455>
VStem: 156 74<816.549 1081.75> 720 74<816.866 1081.43> 997 74<150.549 415.751> 1561 74<150.866 415.435>
DStem2: 341 0 386 -47 0.641387 0.767218<0 1709.4>
LayerCount: 2
Fore
SplineSet
1446 1310 m 1,0,-1
 1487 1270 l 1,1,-1
 386 -47 l 1,2,-1
 341 0 l 1,3,-1
 1446 1310 l 1,0,-1
720 949 m 128,-1,5
 720 1055 720 1055 649.5 1123.5 c 128,-1,6
 579 1192 579 1192 474 1192 c 128,-1,7
 369 1192 369 1192 299.5 1123.5 c 128,-1,8
 230 1055 230 1055 230 949 c 128,-1,9
 230 843 230 843 299.5 774.5 c 128,-1,10
 369 706 369 706 474 706 c 128,-1,11
 579 706 579 706 649.5 774.5 c 128,-1,4
 720 843 720 843 720 949 c 128,-1,5
699 723.5 m 128,-1,13
 604 641 604 641 474 641 c 0,14,15
 345 641 345 641 250.5 723 c 128,-1,16
 156 805 156 805 156 949.5 c 128,-1,17
 156 1094 156 1094 250.5 1174.5 c 128,-1,18
 345 1255 345 1255 474 1255 c 0,19,20
 605 1255 605 1255 699.5 1174 c 128,-1,21
 794 1093 794 1093 794 949.5 c 128,-1,12
 794 806 794 806 699 723.5 c 128,-1,13
1561 283 m 128,-1,23
 1561 389 1561 389 1490.5 457.5 c 128,-1,24
 1420 526 1420 526 1315 526 c 128,-1,25
 1210 526 1210 526 1140.5 457.5 c 128,-1,26
 1071 389 1071 389 1071 283 c 128,-1,27
 1071 177 1071 177 1140.5 108.5 c 128,-1,28
 1210 40 1210 40 1315 40 c 128,-1,29
 1420 40 1420 40 1490.5 108.5 c 128,-1,22
 1561 177 1561 177 1561 283 c 128,-1,23
1540 57.5 m 128,-1,31
 1445 -25 1445 -25 1315 -25 c 0,32,33
 1186 -25 1186 -25 1091.5 57 c 128,-1,34
 997 139 997 139 997 283.5 c 128,-1,35
 997 428 997 428 1091.5 508.5 c 128,-1,36
 1186 589 1186 589 1315 589 c 0,37,38
 1446 589 1446 589 1540.5 508 c 128,-1,39
 1635 427 1635 427 1635 283.5 c 128,-1,30
 1635 140 1635 140 1540 57.5 c 128,-1,31
EndSplineSet
EndChar

StartChar: ampersand
Encoding: 38 38 29
Width: 1161
GlyphClass: 2
Flags: W
HStem: -23 71<311.243 667.545> 0 68<454.016 697.168 948 1108> 446 65<968 1108> 1183 72<362.507 624.406>
VStem: 72 73<205.502 490.287> 206 73<900.384 1109.94> 694 75<873.899 1123.24> 912 56<330.716 446>
DStem2: 440 728 256 863 0.605722 -0.795676<-309.375 -19.8958 62.5754 629.64>
LayerCount: 2
Fore
SplineSet
487 1255 m 0,0,1
 606 1255 606 1255 687.5 1192 c 128,-1,2
 769 1129 769 1129 769 1024 c 0,3,4
 769 853 769 853 618 750 c 0,5,6
 561 711 561 711 475 676 c 1,7,-1
 824 229 l 1,8,9
 830 238 830 238 844 257 c 0,10,11
 912 345 912 345 912 511 c 1,12,-1
 1108 511 l 1,13,-1
 1108 446 l 1,14,-1
 968 446 l 1,15,16
 968 310 968 310 864 171 c 1,17,-1
 948 68 l 1,18,-1
 1108 68 l 1,19,-1
 1108 0 l 1,20,-1
 914 0 l 1,21,-1
 812 113 l 1,22,23
 743 36 743 36 662.5 7.5 c 128,-1,24
 582 -21 582 -21 447 -23 c 1,25,26
 301 -23 301 -23 186.5 78.5 c 128,-1,27
 72 180 72 180 72 322 c 0,28,29
 72 484 72 484 145 567.5 c 128,-1,30
 218 651 218 651 373 702 c 1,31,-1
 256 863 l 1,32,33
 206 930 206 930 206 1021 c 128,-1,34
 206 1112 206 1112 283 1183.5 c 128,-1,35
 360 1255 360 1255 487 1255 c 0,0,1
145 332 m 1,36,37
 145 220 145 220 239 134 c 128,-1,38
 333 48 333 48 450 48 c 0,39,40
 579 48 579 48 645 73 c 128,-1,41
 711 98 711 98 773 170 c 1,42,-1
 410 646 l 1,43,44
 194 582 194 582 156 430 c 0,45,46
 144 384 144 384 145 332 c 1,36,37
489 1183 m 0,47,48
 408 1183 408 1183 343.5 1135.5 c 128,-1,49
 279 1088 279 1088 279 1016 c 0,50,51
 279 950 279 950 323 889 c 2,52,-1
 440 728 l 1,53,54
 652 810 652 810 684 932 c 0,55,56
 694 973 694 973 694 1036 c 0,57,58
 694 1103 694 1103 632.5 1143 c 128,-1,59
 571 1183 571 1183 489 1183 c 0,47,48
EndSplineSet
EndChar

StartChar: quotesingle
Encoding: 39 39 30
Width: 350
GlyphClass: 2
Flags: W
HStem: 854 380<158 190>
VStem: 158 32<854 1019.08>
LayerCount: 2
Fore
SplineSet
190 854 m 1,0,-1
 158 854 l 1,1,-1
 131 1234 l 1,2,-1
 223 1234 l 1,3,-1
 190 854 l 1,0,-1
EndSplineSet
EndChar

StartChar: parenleft
Encoding: 40 40 31
Width: 580
GlyphClass: 2
Flags: W
VStem: 106 85<340.186 897.689>
LayerCount: 2
Fore
SplineSet
508 1200 m 1,0,1
 356 1146 356 1146 273.5 993.5 c 128,-1,2
 191 841 191 841 191 616 c 0,3,4
 191 294 191 294 361 122 c 0,5,6
 421 62 421 62 508 31 c 1,7,-1
 508 -37 l 1,8,9
 315 11 315 11 210.5 195.5 c 128,-1,10
 106 380 106 380 106 616 c 0,11,12
 106 990 106 990 332 1180 c 0,13,14
 408 1244 408 1244 508 1268 c 1,15,-1
 508 1200 l 1,0,1
EndSplineSet
EndChar

StartChar: parenright
Encoding: 41 41 32
Width: 588
GlyphClass: 2
Flags: W
VStem: 394 86<331.601 890.805>
LayerCount: 2
Fore
SplineSet
394 616 m 0,0,1
 394 835 394 835 314 988.5 c 128,-1,2
 234 1142 234 1142 78 1200 c 1,3,-1
 78 1268 l 1,4,5
 270 1220 270 1220 375 1035.5 c 128,-1,6
 480 851 480 851 480 616 c 0,7,8
 480 242 480 242 254 52 c 0,9,10
 178 -12 178 -12 78 -37 c 1,11,-1
 78 31 l 1,12,13
 230 86 230 86 312 238.5 c 128,-1,14
 394 391 394 391 394 616 c 0,0,1
EndSplineSet
EndChar

StartChar: asterisk
Encoding: 42 42 33
Width: 934
GlyphClass: 2
Flags: W
LayerCount: 2
Fore
SplineSet
517 1229 m 1,0,-1
 485 818 l 1,1,-1
 859 992 l 1,2,-1
 890 906 l 1,3,-1
 494 785 l 1,4,-1
 763 472 l 1,5,-1
 687 415 l 1,6,-1
 467 761 l 1,7,-1
 246 415 l 1,8,-1
 170 472 l 1,9,-1
 439 785 l 1,10,-1
 43 906 l 1,11,-1
 74 992 l 1,12,-1
 449 818 l 1,13,-1
 416 1229 l 1,14,-1
 517 1229 l 1,0,-1
EndSplineSet
EndChar

StartChar: plus
Encoding: 43 43 34
Width: 811
GlyphClass: 2
Flags: W
HStem: 534 64<20 377 439 794>
VStem: 377 62<138 534 598 982>
LayerCount: 2
Fore
SplineSet
439 598 m 1,0,-1
 794 598 l 1,1,-1
 794 534 l 1,2,-1
 439 534 l 1,3,-1
 439 138 l 1,4,-1
 377 138 l 1,5,-1
 377 534 l 1,6,-1
 20 534 l 1,7,-1
 20 598 l 1,8,-1
 377 598 l 1,9,-1
 377 982 l 1,10,-1
 439 982 l 1,11,-1
 439 598 l 1,0,-1
EndSplineSet
EndChar

StartChar: comma
Encoding: 44 44 35
Width: 412
GlyphClass: 2
Flags: W
HStem: -180 44<139 181.418> -4 120<148 210>
VStem: 148 126<-4 116> 210 64<-95.7238 -4>
LayerCount: 2
Fore
SplineSet
274 116 m 1,0,-1
 274 -6 l 2,1,2
 274 -180 274 -180 139 -180 c 1,3,-1
 139 -136 l 1,4,5
 186 -121 186 -121 198 -96.5 c 128,-1,6
 210 -72 210 -72 210 -4 c 1,7,-1
 148 -4 l 1,8,-1
 148 116 l 1,9,-1
 274 116 l 1,0,-1
EndSplineSet
EndChar

StartChar: hyphen
Encoding: 45 45 36
Width: 786
GlyphClass: 2
Flags: W
HStem: 413 62<131 661>
VStem: 131 530<413 475>
LayerCount: 2
Fore
SplineSet
661 413 m 1,0,-1
 131 413 l 1,1,-1
 131 475 l 1,2,-1
 661 475 l 1,3,-1
 661 413 l 1,0,-1
EndSplineSet
EndChar

StartChar: period
Encoding: 46 46 37
Width: 403
GlyphClass: 2
Flags: W
HStem: 0 120<147 263>
VStem: 147 116<0 120>
LayerCount: 2
Fore
SplineSet
263 120 m 1,0,-1
 263 0 l 1,1,-1
 147 0 l 1,2,-1
 147 120 l 1,3,-1
 263 120 l 1,0,-1
EndSplineSet
EndChar

StartChar: slash
Encoding: 47 47 38
Width: 537
GlyphClass: 2
Flags: W
HStem: -23 21G<43 123.759> 1235 20G<409.178 486>
VStem: 43 75<-23 52> 415 71<1184 1255>
DStem2: 43 -23 118 -23 0.279481 0.960151<20.961 1331.04>
LayerCount: 2
Fore
SplineSet
415 1255 m 1,0,-1
 486 1255 l 1,1,-1
 118 -23 l 1,2,-1
 43 -23 l 1,3,-1
 415 1255 l 1,0,-1
EndSplineSet
EndChar

StartChar: zero
Encoding: 48 48 39
Width: 1124
GlyphClass: 2
Flags: W
HStem: -23 71<397.259 723.805> 1182 73<401.75 720.25>
VStem: 113 84<300.54 927.998> 925 84<299.749 918.858>
LayerCount: 2
Fore
SplineSet
561 -23 m 0,0,1
 464 -23 464 -23 387.5 10.5 c 128,-1,2
 311 44 311 44 260 101.5 c 128,-1,3
 209 159 209 159 175.5 241 c 128,-1,4
 142 323 142 323 127.5 416 c 128,-1,5
 113 509 113 509 113 616 c 0,6,7
 113 1064 113 1064 357 1206 c 0,8,9
 442 1256 442 1256 561 1255 c 1,10,11
 788 1255 788 1255 898.5 1078 c 128,-1,12
 1009 901 1009 901 1009 616 c 0,13,14
 1009 166 1009 166 765 26 c 0,15,16
 680 -22 680 -22 561 -23 c 0,0,1
561 48 m 0,17,18
 646 48 646 48 710.5 76.5 c 128,-1,19
 775 105 775 105 815.5 154 c 128,-1,20
 856 203 856 203 881 277 c 128,-1,21
 906 351 906 351 915.5 432.5 c 128,-1,22
 925 514 925 514 925 616 c 0,23,24
 925 1182 925 1182 561 1182 c 128,-1,25
 197 1182 197 1182 197 616 c 0,26,27
 197 329 197 329 284.5 188.5 c 128,-1,28
 372 48 372 48 561 48 c 0,17,18
EndSplineSet
EndChar

StartChar: one
Encoding: 49 49 40
Width: 598
GlyphClass: 2
Flags: W
HStem: 0 62<102 279 360 529> 1214 20G<254.167 360>
VStem: 279 81<62 1147>
DStem2: 106 1186 123 1118 0.982608 0.18569<4.07744 162.749>
LayerCount: 2
Fore
SplineSet
529 62 m 1,0,-1
 529 0 l 1,1,-1
 102 0 l 1,2,-1
 102 62 l 1,3,-1
 279 62 l 1,4,-1
 279 1147 l 1,5,-1
 123 1118 l 1,6,-1
 106 1186 l 1,7,-1
 360 1234 l 1,8,-1
 360 62 l 1,9,-1
 529 62 l 1,0,-1
EndSplineSet
EndChar

StartChar: two
Encoding: 50 50 41
Width: 993
GlyphClass: 2
Flags: W
HStem: 0 78<219 819> 1183 72<363.815 669.87>
VStem: 135 81<779.784 1051.21>
LayerCount: 2
Fore
SplineSet
793 932 m 0,0,1
 793 1036 793 1036 720.5 1109.5 c 128,-1,2
 648 1183 648 1183 546 1183 c 0,3,4
 306 1184 306 1184 238 1016 c 0,5,6
 216 962 216 962 216 899 c 128,-1,7
 216 836 216 836 232 778 c 1,8,-1
 147 778 l 1,9,10
 135 834 135 834 135 906 c 0,11,12
 135 1063 135 1063 242.5 1159 c 128,-1,13
 350 1255 350 1255 515 1255 c 0,14,15
 770 1255 770 1255 852 1056 c 0,16,17
 912 908 912 908 838.5 760 c 128,-1,18
 765 612 765 612 612 453 c 128,-1,19
 459 294 459 294 357 203.5 c 128,-1,20
 255 113 255 113 219 78 c 1,21,-1
 819 78 l 1,22,-1
 819 0 l 1,23,-1
 109 0 l 1,24,-1
 109 80 l 1,25,26
 130 102 130 102 171 138 c 0,27,28
 562 486 562 486 677.5 654 c 128,-1,29
 793 822 793 822 793 932 c 0,0,1
EndSplineSet
EndChar

StartChar: three
Encoding: 51 51 42
Width: 997
GlyphClass: 2
Flags: W
HStem: -19 69<288.023 619.329> 617 80<324 643.615> 1183 73<272.112 621.372>
VStem: 769 85<794.348 1064.48> 792 84<197.822 496.106>
LayerCount: 2
Fore
SplineSet
636 660 m 1,0,1
 747 634 747 634 811.5 551.5 c 128,-1,2
 876 469 876 469 876 336 c 0,3,4
 876 188 876 188 750 84.5 c 128,-1,5
 624 -19 624 -19 438 -19 c 0,6,7
 313 -19 313 -19 206 46 c 128,-1,8
 99 111 99 111 49 216 c 1,9,-1
 113 257 l 1,10,11
 217 50 217 50 465 50 c 0,12,13
 597 50 597 50 694.5 133.5 c 128,-1,14
 792 217 792 217 792 348 c 0,15,16
 792 602 792 602 464 615 c 0,17,18
 412 617 412 617 363 617 c 2,19,-1
 324 617 l 1,20,-1
 324 697 l 1,21,-1
 418 697 l 2,22,23
 684 697 684 697 748 825 c 0,24,25
 768 866 768 866 769 930 c 1,26,27
 769 1050 769 1050 673.5 1116.5 c 128,-1,28
 578 1183 578 1183 455 1183 c 0,29,30
 225 1183 225 1183 145 1026 c 1,31,-1
 74 1057 l 1,32,33
 177 1256 177 1256 457 1256 c 0,34,35
 614 1256 614 1256 734 1168 c 128,-1,36
 854 1080 854 1080 854 930 c 0,37,38
 854 833 854 833 794 761 c 128,-1,39
 734 689 734 689 636 660 c 1,0,1
EndSplineSet
EndChar

StartChar: four
Encoding: 52 52 43
Width: 895
GlyphClass: 2
Flags: W
HStem: 0 62<361 522 603 764> 379 63<97 522 603 860> 1214 20G<476.753 603>
VStem: 522 81<62 379 442 1156>
DStem2: 4 442 97 442 0.522234 0.852802<48.5677 879.418>
LayerCount: 2
Fore
SplineSet
4 442 m 1,0,-1
 489 1234 l 1,1,-1
 603 1234 l 1,2,-1
 603 442 l 1,3,-1
 860 442 l 1,4,-1
 860 379 l 1,5,-1
 603 379 l 1,6,-1
 603 62 l 1,7,-1
 764 62 l 1,8,-1
 764 0 l 1,9,-1
 361 0 l 1,10,-1
 361 62 l 1,11,-1
 522 62 l 1,12,-1
 522 379 l 1,13,-1
 15 379 l 1,14,-1
 4 442 l 1,0,-1
522 442 m 1,15,-1
 522 1156 l 1,16,-1
 97 442 l 1,17,-1
 522 442 l 1,15,-1
EndSplineSet
EndChar

StartChar: five
Encoding: 53 53 44
Width: 1022
GlyphClass: 2
Flags: W
HStem: -18 70.5<287.733 693.375> 727 69<300.963 713.469> 1164 70<244 812>
VStem: 165 70<748 1164> 872 84<207.838 567.231>
LayerCount: 2
Fore
SplineSet
123 217 m 1,0,1
 230 53 230 53 496.5 52.5 c 128,-1,2
 763 52 763 52 844 234 c 0,3,4
 872 296 872 296 872 411 c 128,-1,5
 872 526 872 526 791.5 626.5 c 128,-1,6
 711 727 711 727 571 727 c 0,7,8
 346 727 346 727 217 660 c 1,9,-1
 165 685 l 1,10,-1
 165 1234 l 1,11,-1
 813 1234 l 1,12,-1
 812 1164 l 1,13,-1
 244 1164 l 1,14,-1
 235 748 l 1,15,16
 344 796 344 796 498 796 c 128,-1,17
 652 796 652 796 726 764 c 0,18,19
 956 665 956 665 956 375 c 0,20,21
 956 188 956 188 825.5 85 c 128,-1,22
 695 -18 695 -18 497 -18 c 0,23,24
 206 -18 206 -18 76 163 c 1,25,-1
 123 217 l 1,0,1
EndSplineSet
EndChar

StartChar: six
Encoding: 54 54 45
Width: 885
GlyphClass: 2
Flags: W
HStem: -23 72<287.96 599.022> 658 68<304.006 597.976>
VStem: 53 77<186.603 506.525> 758 81<198.254 515.254>
DStem2: 188 697 261 678 0.473546 0.880769<17.8342 744.218>
LayerCount: 2
Fore
SplineSet
441 49 m 0,0,1
 583 49 583 49 670.5 136 c 128,-1,2
 758 223 758 223 758 362 c 0,3,4
 758 497 758 497 665.5 577.5 c 128,-1,5
 573 658 573 658 480 658 c 0,6,7
 325 658 325 658 227.5 578 c 128,-1,8
 130 498 130 498 130 356 c 0,9,10
 130 221 130 221 188 160 c 0,11,12
 292 49 292 49 441 49 c 0,0,1
446 726 m 0,13,14
 609 726 609 726 724 623 c 128,-1,15
 839 520 839 520 839 364 c 0,16,17
 839 209 839 209 732.5 93 c 128,-1,18
 626 -23 626 -23 457.5 -23 c 128,-1,19
 289 -23 289 -23 171 81 c 128,-1,20
 53 185 53 185 53 331 c 128,-1,21
 53 477 53 477 188 697 c 1,22,-1
 545 1361 l 1,23,-1
 612 1314 l 1,24,-1
 261 678 l 1,25,26
 358 726 358 726 446 726 c 0,13,14
EndSplineSet
EndChar

StartChar: seven
Encoding: 55 55 46
Width: 897
GlyphClass: 2
Flags: W
HStem: -11 63<204 368 450 631> 1164 70<155 782>
VStem: 78 77<916 1164> 368 82<52 429.205>
LayerCount: 2
Fore
SplineSet
368 52 m 1,0,1
 368 697 368 697 782 1164 c 1,2,-1
 155 1164 l 1,3,-1
 155 916 l 1,4,-1
 78 916 l 1,5,-1
 78 1234 l 1,6,-1
 870 1234 l 1,7,-1
 870 1158 l 1,8,9
 526 784 526 784 468 348 c 0,10,11
 450 208 450 208 450 52 c 1,12,-1
 631 52 l 1,13,-1
 631 -11 l 1,14,-1
 204 -11 l 1,15,-1
 204 52 l 1,16,-1
 368 52 l 1,0,1
EndSplineSet
EndChar

StartChar: eight
Encoding: 56 56 47
Width: 1042
GlyphClass: 2
Flags: W
HStem: -24 73<353.241 692.184> 596 83<362.629 691.25> 1182 73<359.217 676.309>
VStem: 111 84<181.271 461.684> 152 85<794.031 1072.97> 808 86<795.449 1076.1> 850 84<178.911 465.887>
LayerCount: 2
Fore
SplineSet
111 328 m 1,0,1
 112 443 112 443 186.5 531.5 c 128,-1,2
 261 620 261 620 380 644 c 1,3,4
 152 714 152 714 152 946 c 0,5,6
 152 1067 152 1067 251.5 1161 c 128,-1,7
 351 1255 351 1255 523 1255 c 0,8,9
 685 1255 685 1255 789.5 1165 c 128,-1,10
 894 1075 894 1075 894 926 c 0,11,12
 894 830 894 830 829.5 751 c 128,-1,13
 765 672 765 672 666 644 c 1,14,15
 789 620 789 620 861.5 533 c 128,-1,16
 934 446 934 446 934 304 c 0,17,18
 934 154 934 154 812.5 65 c 128,-1,19
 691 -24 691 -24 523 -24 c 128,-1,20
 355 -24 355 -24 233 64.5 c 128,-1,21
 111 153 111 153 111 328 c 1,0,1
523 596 m 0,22,23
 370 596 370 596 282.5 514 c 128,-1,24
 195 432 195 432 195 342 c 0,25,26
 195 193 195 193 292.5 121 c 128,-1,27
 390 49 390 49 522.5 49 c 128,-1,28
 655 49 655 49 752.5 121 c 128,-1,29
 850 193 850 193 850 322 c 0,30,31
 850 499 850 499 665 572 c 0,32,33
 604 596 604 596 523 596 c 0,22,23
523 1182 m 0,34,35
 318 1182 318 1182 255 1028 c 0,36,37
 237 984 237 984 237 937 c 0,38,39
 237 833 237 833 291 779 c 0,40,41
 389 679 389 679 523 679 c 0,42,43
 726 680 726 680 790 844 c 0,44,45
 808 890 808 890 808 937 c 0,46,47
 808 1038 808 1038 755 1089 c 0,48,49
 660 1182 660 1182 523 1182 c 0,34,35
EndSplineSet
EndChar

StartChar: nine
Encoding: 57 57 48
Width: 952
GlyphClass: 2
Flags: W
HStem: 506 69<326.956 629.591> 1183 72<321.57 633.071>
VStem: 82 81<717.187 1033.75> 791 77<736.814 1044.62>
DStem2: 308 -82 376 -128 0.4741 0.880471<0 726.863>
LayerCount: 2
Fore
SplineSet
480 1183 m 0,0,1
 337 1183 337 1183 250 1096 c 128,-1,2
 163 1009 163 1009 163 870 c 0,3,4
 163 736 163 736 255.5 655.5 c 128,-1,5
 348 575 348 575 475 575 c 0,6,7
 603 576 603 576 669 634 c 0,8,9
 791 741 791 741 791 875 c 0,10,11
 792 1009 792 1009 734 1071 c 0,12,13
 630 1183 630 1183 480 1183 c 0,0,1
474 506 m 0,14,15
 311 506 311 506 196.5 609 c 128,-1,16
 82 712 82 712 82 868 c 0,17,18
 82 1023 82 1023 188.5 1139 c 128,-1,19
 295 1255 295 1255 463 1255 c 128,-1,20
 631 1255 631 1255 749.5 1150.5 c 128,-1,21
 868 1046 868 1046 868 905.5 c 128,-1,22
 868 765 868 765 733 535 c 1,23,-1
 376 -128 l 1,24,-1
 308 -82 l 1,25,-1
 660 554 l 1,26,27
 562 506 562 506 474 506 c 0,14,15
EndSplineSet
EndChar

StartChar: colon
Encoding: 58 58 49
Width: 416
GlyphClass: 2
Flags: W
HStem: 194 120<150 267> 695 120<150 267>
VStem: 150 117<194 314 695 815>
LayerCount: 2
Fore
SplineSet
267 815 m 1,0,-1
 267 695 l 1,1,-1
 150 695 l 1,2,-1
 150 815 l 1,3,-1
 267 815 l 1,0,-1
267 314 m 1,4,-1
 267 194 l 1,5,-1
 150 194 l 1,6,-1
 150 314 l 1,7,-1
 267 314 l 1,4,-1
EndSplineSet
EndChar

StartChar: semicolon
Encoding: 59 59 50
Width: 440
GlyphClass: 2
Flags: W
HStem: 19 45<156 198.732> 196 120<166 227> 695 120<170 287>
VStem: 166 126<196 316 695 815> 227 65<104.276 196>
LayerCount: 2
Fore
SplineSet
292 316 m 1,0,-1
 292 193 l 2,1,2
 292 19 292 19 156 19 c 1,3,-1
 156 64 l 1,4,5
 203 79 203 79 215 103.5 c 128,-1,6
 227 128 227 128 227 196 c 1,7,-1
 166 196 l 1,8,-1
 166 316 l 1,9,-1
 292 316 l 1,0,-1
287 815 m 1,10,-1
 287 695 l 1,11,-1
 170 695 l 1,12,-1
 170 815 l 1,13,-1
 287 815 l 1,10,-1
EndSplineSet
EndChar

StartChar: less
Encoding: 60 60 51
Width: 907
GlyphClass: 2
Flags: W
HStem: -23 91<738 829> 1162 93<736 829>
DStem2: 96 613 -18 613 0.79966 -0.600453<0 913.398> -18 613 96 613 0.796941 0.604057<90.8513 1006.64>
LayerCount: 2
Fore
SplineSet
-18 613 m 1,0,-1
 829 1255 l 1,1,-1
 829 1162 l 1,2,-1
 96 613 l 1,3,-1
 829 68 l 1,4,-1
 829 -23 l 1,5,-1
 -18 613 l 1,0,-1
EndSplineSet
EndChar

StartChar: equal
Encoding: 61 61 52
Width: 791
GlyphClass: 2
Flags: W
HStem: 356 63<143 652> 634 62<143 652>
VStem: 143 509<356 419 634 696>
LayerCount: 2
Fore
SplineSet
652 634 m 1,0,-1
 143 634 l 1,1,-1
 143 696 l 1,2,-1
 652 696 l 1,3,-1
 652 634 l 1,0,-1
652 356 m 1,4,-1
 143 356 l 1,5,-1
 143 419 l 1,6,-1
 652 419 l 1,7,-1
 652 356 l 1,4,-1
EndSplineSet
EndChar

StartChar: greater
Encoding: 62 62 53
Width: 909
GlyphClass: 2
Flags: W
HStem: -23 91<86 177> 1162 93<86 179>
DStem2: 86 1255 86 1162 0.796941 -0.604057<56.1773 971.962> 86 68 86 -23 0.79966 0.600453<0 913.398>
LayerCount: 2
Fore
SplineSet
86 -23 m 1,0,-1
 86 68 l 1,1,-1
 819 613 l 1,2,-1
 86 1162 l 1,3,-1
 86 1255 l 1,4,-1
 933 613 l 1,5,-1
 86 -23 l 1,0,-1
EndSplineSet
EndChar

StartChar: question
Encoding: 63 63 54
Width: 727
GlyphClass: 2
Flags: W
HStem: -23 79<265 349> 1151 73<176.202 465.755>
VStem: 265 84<-23 56> 280 33<289 401.665> 565 77<787.15 1053.51>
LayerCount: 2
Fore
SplineSet
325 1151 m 0,0,1
 142 1151 142 1151 81 1004 c 1,2,-1
 20 1040 l 1,3,4
 96 1223 96 1223 315 1224 c 0,5,6
 462 1224 462 1224 552 1141.5 c 128,-1,7
 642 1059 642 1059 642 906 c 0,8,9
 642 820 642 820 605 766 c 128,-1,10
 568 712 568 712 489.5 644 c 128,-1,11
 411 576 411 576 365.5 499.5 c 128,-1,12
 320 423 320 423 313 289 c 1,13,-1
 280 289 l 1,14,15
 280 544 280 544 422 674 c 0,16,17
 515 759 515 759 540 808.5 c 128,-1,18
 565 858 565 858 565 938 c 128,-1,19
 565 1018 565 1018 502.5 1084.5 c 128,-1,20
 440 1151 440 1151 325 1151 c 0,0,1
349 -23 m 1,21,-1
 265 -23 l 1,22,-1
 265 56 l 1,23,-1
 349 56 l 1,24,-1
 349 -23 l 1,21,-1
EndSplineSet
EndChar

StartChar: at
Encoding: 64 64 55
Width: 1458
GlyphClass: 2
Flags: W
HStem: -43 69<530.761 1019.59> 252 73<541.279 755.262 962.396 1097.04> 913 70<613.486 842.792> 1194 71<549.325 975.15>
VStem: 84 88<350.236 821.268> 377 94<395.222 758.362> 888 63<336.099 478.373> 988 87<875 962> 1278 79<539.56 913.949>
DStem2: 964 840 1075 962 0.212864 0.977082<0 124.313>
LayerCount: 2
Fore
SplineSet
983 252 m 0,0,1
 941 252 941 252 914.5 288 c 128,-1,2
 888 324 888 324 888 378 c 0,3,4
 888 408 888 408 891 424 c 1,5,6
 776 252 776 252 629 252 c 0,7,8
 527 252 527 252 474 310 c 0,9,10
 377 417 377 417 377 571.5 c 128,-1,11
 377 726 377 726 470.5 854.5 c 128,-1,12
 564 983 564 983 729 983 c 128,-1,13
 894 983 894 983 964 840 c 1,14,-1
 988 962 l 1,15,-1
 1075 962 l 1,16,-1
 953 402 l 2,17,18
 951 392 951 392 951 375 c 0,19,20
 951 353 951 353 970.5 339 c 128,-1,21
 990 325 990 325 1018 325 c 0,22,23
 1051 325 1051 325 1116 375 c 0,24,25
 1182 426 1182 426 1230 520 c 128,-1,26
 1278 614 1278 614 1278 716 c 0,27,28
 1278 921 1278 921 1140.5 1057.5 c 128,-1,29
 1003 1194 1003 1194 755.5 1194 c 128,-1,30
 508 1194 508 1194 340 1022.5 c 128,-1,31
 172 851 172 851 172 590 c 0,32,33
 172 331 172 331 332.5 178.5 c 128,-1,34
 493 26 493 26 756 26 c 0,35,36
 1021 26 1021 26 1174 133 c 1,37,-1
 1211 83 l 1,38,39
 1044 -43 1044 -43 783 -43 c 0,40,41
 335 -43 335 -43 159 281 c 0,42,43
 84 419 84 419 84 545 c 0,44,45
 84 969 84 969 404 1168 c 0,46,47
 560 1265 560 1265 744 1265 c 0,48,49
 1063 1265 1063 1265 1210 1109 c 128,-1,50
 1357 953 1357 953 1357 751.5 c 128,-1,51
 1357 550 1357 550 1240.5 401 c 128,-1,52
 1124 252 1124 252 983 252 c 0,0,1
921 678 m 0,53,54
 921 782 921 782 872.5 847.5 c 128,-1,55
 824 913 824 913 737 913 c 0,56,57
 609 913 609 913 540 803 c 128,-1,58
 471 693 471 693 471 574 c 0,59,60
 471 469 471 469 516 393.5 c 128,-1,61
 561 318 561 318 644 318 c 0,62,63
 766 318 766 318 843.5 439 c 128,-1,64
 921 560 921 560 921 678 c 0,53,54
EndSplineSet
EndChar

StartChar: A
Encoding: 65 65 56
Width: 1321
GlyphClass: 2
Flags: W
HStem: 0 62<4 163 249 408 885 1044 1130 1288> 503 61<430 861> 1171 63<421 579 715 872>
DStem2: 163 62 249 62 0.351216 0.936294<30.2046 499.305 563.794 1184.46> 715 1171 646 1153 0.350476 -0.936572<0 619.669 684.86 1153.96>
LayerCount: 2
Fore
SplineSet
872 1234 m 1,0,-1
 872 1171 l 1,1,-1
 715 1171 l 1,2,-1
 1130 62 l 1,3,-1
 1288 62 l 1,4,-1
 1288 0 l 1,5,-1
 885 0 l 1,6,-1
 885 62 l 1,7,-1
 1044 62 l 1,8,-1
 884 503 l 1,9,-1
 409 503 l 1,10,-1
 249 62 l 1,11,-1
 408 62 l 1,12,-1
 408 0 l 1,13,-1
 4 0 l 1,14,-1
 4 62 l 1,15,-1
 163 62 l 1,16,-1
 579 1171 l 1,17,-1
 421 1171 l 1,18,-1
 421 1234 l 1,19,-1
 872 1234 l 1,0,-1
430 564 m 1,20,-1
 861 564 l 1,21,-1
 646 1153 l 1,22,-1
 430 564 l 1,20,-1
EndSplineSet
EndChar

StartChar: B
Encoding: 66 66 57
Width: 1233
GlyphClass: 2
Flags: W
HStem: 0 62<101 254 335 958.971> 613 65<335 921.251> 1171 63<88 254 335 896.06>
VStem: 254 81<62 613 678 1171> 1031 80<781.907 1058.68> 1103 80<191.483 478.126>
LayerCount: 2
Fore
SplineSet
940 654 m 1,0,1
 1053 622 1053 622 1117 541.5 c 128,-1,2
 1181 461 1181 461 1183 331 c 1,3,4
 1183 201 1183 201 1086.5 100.5 c 128,-1,5
 990 0 990 0 820 0 c 2,6,-1
 101 0 l 1,7,-1
 101 62 l 1,8,-1
 254 62 l 1,9,-1
 254 1171 l 1,10,-1
 88 1171 l 1,11,-1
 88 1234 l 1,12,-1
 748 1234 l 2,13,14
 919 1234 919 1234 1015 1143.5 c 128,-1,15
 1111 1053 1111 1053 1111 931 c 0,16,17
 1111 744 1111 744 940 654 c 1,0,1
820 62 m 2,18,19
 953 62 953 62 1028 144 c 128,-1,20
 1103 226 1103 226 1103 337 c 128,-1,21
 1103 448 1103 448 1023.5 530.5 c 128,-1,22
 944 613 944 613 805 613 c 2,23,-1
 335 613 l 1,24,-1
 335 62 l 1,25,-1
 820 62 l 2,18,19
796 678 m 2,26,27
 908 678 908 678 969.5 750.5 c 128,-1,28
 1031 823 1031 823 1031 954 c 0,29,30
 1031 1028 1031 1028 956.5 1099.5 c 128,-1,31
 882 1171 882 1171 748 1171 c 2,32,-1
 335 1171 l 1,33,-1
 335 678 l 1,34,-1
 796 678 l 2,26,27
EndSplineSet
EndChar

StartChar: C
Encoding: 67 67 58
Width: 1341
GlyphClass: 2
Flags: W
HStem: -23 71<499.258 926.783> 1182 73<500.188 913.374> 1214 20G<1191 1266>
VStem: 78 84<387.154 841.003> 1191 75<887 964.139 1027 1234>
LayerCount: 2
Fore
SplineSet
1275 283 m 1,0,1
 1097 -23 1097 -23 701 -23 c 0,2,3
 457 -23 457 -23 267.5 144.5 c 128,-1,4
 78 312 78 312 78 601.5 c 128,-1,5
 78 891 78 891 257 1073 c 128,-1,6
 436 1255 436 1255 731.5 1255 c 128,-1,7
 1027 1255 1027 1255 1191 1027 c 1,8,-1
 1191 1234 l 1,9,-1
 1266 1234 l 1,10,-1
 1266 887 l 1,11,-1
 1204 874 l 1,12,13
 1112 1082 1112 1082 888 1156 c 0,14,15
 810 1182 810 1182 698 1182 c 0,16,17
 465 1182 465 1182 313.5 1016.5 c 128,-1,18
 162 851 162 851 162 617.5 c 128,-1,19
 162 384 162 384 306 216 c 128,-1,20
 450 48 450 48 718 48 c 0,21,22
 1052 48 1052 48 1206 334 c 1,23,-1
 1275 283 l 1,0,1
EndSplineSet
EndChar

StartChar: D
Encoding: 68 68 59
Width: 1409
GlyphClass: 2
Flags: W
HStem: 0 62<100 266 348 960.005> 1171 63<100 266 348 951.938>
VStem: 266 82<62 1171> 1254 84<374.015 863.868>
LayerCount: 2
Fore
SplineSet
793 1234 m 2,0,1
 1136 1234 1136 1234 1278 912 c 0,2,3
 1338 775 1338 775 1338 637 c 0,4,5
 1338 364 1338 364 1194 182 c 128,-1,6
 1050 0 1050 0 793 0 c 2,7,-1
 100 0 l 1,8,-1
 100 62 l 1,9,-1
 266 62 l 1,10,-1
 266 1171 l 1,11,-1
 100 1171 l 1,12,-1
 100 1234 l 1,13,-1
 793 1234 l 2,0,1
348 1171 m 1,14,-1
 348 62 l 1,15,-1
 792 62 l 2,16,17
 1012 62 1012 62 1133 226 c 128,-1,18
 1254 390 1254 390 1254 616 c 0,19,20
 1254 934 1254 934 1049 1088 c 0,21,22
 940 1170 940 1170 792 1171 c 1,23,-1
 348 1171 l 1,14,-1
EndSplineSet
EndChar

StartChar: E
Encoding: 69 69 60
Width: 1249
GlyphClass: 2
Flags: W
HStem: 0 70<98 273 355 1040> 596 70<355 788> 1164 70<98 273 355 1019>
VStem: 273 82<70 596 666 1164> 788 67<424 596 666 824> 1019 76<858 1164> 1040 77<70 376>
LayerCount: 2
Fore
SplineSet
355 1164 m 1,0,-1
 355 666 l 1,1,-1
 788 666 l 1,2,-1
 788 824 l 1,3,-1
 855 824 l 1,4,-1
 855 424 l 1,5,-1
 788 424 l 1,6,-1
 788 596 l 1,7,-1
 355 596 l 1,8,-1
 355 70 l 1,9,-1
 1040 70 l 1,10,-1
 1040 376 l 1,11,-1
 1117 376 l 1,12,-1
 1117 0 l 1,13,-1
 98 0 l 1,14,-1
 98 70 l 1,15,-1
 273 70 l 1,16,-1
 273 1164 l 1,17,-1
 98 1164 l 1,18,-1
 98 1234 l 1,19,-1
 1095 1234 l 1,20,-1
 1095 858 l 1,21,-1
 1019 858 l 1,22,-1
 1019 1164 l 1,23,-1
 355 1164 l 1,0,-1
EndSplineSet
EndChar

StartChar: F
Encoding: 70 70 61
Width: 1137
GlyphClass: 2
Flags: W
HStem: 0 70<98 273 355 557> 577 66<355 848> 1164 70<98 273 355 1026>
VStem: 273 82<70 577 643 1164> 848 67<404 577 643 817> 1026 77<858 1164>
LayerCount: 2
Fore
SplineSet
355 1164 m 1,0,-1
 355 643 l 1,1,-1
 848 643 l 1,2,-1
 848 817 l 1,3,-1
 915 817 l 1,4,-1
 915 404 l 1,5,-1
 848 404 l 1,6,-1
 848 577 l 1,7,-1
 355 577 l 1,8,-1
 355 70 l 1,9,-1
 557 70 l 1,10,-1
 557 0 l 1,11,-1
 98 0 l 1,12,-1
 98 70 l 1,13,-1
 273 70 l 1,14,-1
 273 1164 l 1,15,-1
 98 1164 l 1,16,-1
 98 1234 l 1,17,-1
 1103 1234 l 1,18,-1
 1103 858 l 1,19,-1
 1026 858 l 1,20,-1
 1026 1164 l 1,21,-1
 355 1164 l 1,0,-1
EndSplineSet
EndChar

StartChar: G
Encoding: 71 71 62
Width: 1356
GlyphClass: 2
Flags: W
HStem: -23 71<499.599 922.036> 523 66<945 1210> 1182 73<498.402 915.654> 1214 20G<1167 1242>
VStem: 78 84<385.639 841.831> 1167 75<898 979.816 1051 1234> 1210 84<320.718 523>
LayerCount: 2
Fore
SplineSet
1180 898 m 1,0,1
 1048 1182 1048 1182 696 1182 c 0,2,3
 465 1182 465 1182 313.5 1016.5 c 128,-1,4
 162 851 162 851 162 616.5 c 128,-1,5
 162 382 162 382 306 215 c 128,-1,6
 450 48 450 48 719 48 c 0,7,8
 936 48 936 48 1070.5 175.5 c 128,-1,9
 1205 303 1205 303 1210 523 c 1,10,-1
 945 523 l 1,11,-1
 945 589 l 1,12,-1
 1294 589 l 1,13,14
 1294 162 1294 162 975 28 c 0,15,16
 856 -22 856 -22 743 -23 c 1,17,18
 351 -23 351 -23 169 268 c 0,19,20
 78 414 78 414 78 652.5 c 128,-1,21
 78 891 78 891 257 1073 c 128,-1,22
 436 1255 436 1255 722.5 1255 c 128,-1,23
 1009 1255 1009 1255 1167 1051 c 1,24,-1
 1167 1234 l 1,25,-1
 1242 1234 l 1,26,-1
 1242 898 l 1,27,-1
 1180 898 l 1,0,1
EndSplineSet
EndChar

StartChar: H
Encoding: 72 72 63
Width: 1475
GlyphClass: 2
Flags: W
HStem: 0 62<104 256 337 492 991 1139 1220 1360> 598 63<337 1139> 1171 63<104 256 337 492 991 1139 1220 1360>
VStem: 256 81<62 598 661 1171> 1139 81<62 598 661 1171>
LayerCount: 2
Fore
SplineSet
1360 1234 m 1,0,-1
 1360 1171 l 1,1,-1
 1220 1171 l 1,2,-1
 1220 62 l 1,3,-1
 1360 62 l 1,4,-1
 1360 0 l 1,5,-1
 991 0 l 1,6,-1
 991 62 l 1,7,-1
 1139 62 l 1,8,-1
 1139 598 l 1,9,-1
 337 598 l 1,10,-1
 337 62 l 1,11,-1
 492 62 l 1,12,-1
 492 0 l 1,13,-1
 104 0 l 1,14,-1
 104 62 l 1,15,-1
 256 62 l 1,16,-1
 256 1171 l 1,17,-1
 104 1171 l 1,18,-1
 104 1234 l 1,19,-1
 492 1234 l 1,20,-1
 492 1171 l 1,21,-1
 337 1171 l 1,22,-1
 337 661 l 1,23,-1
 1139 661 l 1,24,-1
 1139 1171 l 1,25,-1
 991 1171 l 1,26,-1
 991 1234 l 1,27,-1
 1360 1234 l 1,0,-1
EndSplineSet
EndChar

StartChar: I
Encoding: 73 73 64
Width: 612
GlyphClass: 2
Flags: W
HStem: 0 62<102 263 345 505> 1171 63<102 263 345 505>
VStem: 263 82<62 1171>
LayerCount: 2
Fore
SplineSet
505 1234 m 1,0,-1
 505 1171 l 1,1,-1
 345 1171 l 1,2,-1
 345 62 l 1,3,-1
 505 62 l 1,4,-1
 505 0 l 1,5,-1
 102 0 l 1,6,-1
 102 62 l 1,7,-1
 263 62 l 1,8,-1
 263 1171 l 1,9,-1
 102 1171 l 1,10,-1
 102 1234 l 1,11,-1
 505 1234 l 1,0,-1
EndSplineSet
EndChar

StartChar: J
Encoding: 74 74 65
Width: 461
GlyphClass: 2
Flags: W
HStem: -101 60<23 166.039> 1174 60<42 181 263 402>
VStem: 181 82<-15.7279 1174>
LayerCount: 2
Fore
SplineSet
107 -41 m 2,0,1
 152 -41 152 -41 166.5 -16.5 c 128,-1,2
 181 8 181 8 181 59 c 2,3,-1
 181 1174 l 1,4,-1
 42 1174 l 1,5,-1
 42 1234 l 1,6,-1
 402 1234 l 1,7,-1
 402 1174 l 1,8,-1
 263 1174 l 1,9,-1
 263 60 l 1,10,11
 264 -91 264 -91 150 -99 c 0,12,13
 120 -101 120 -101 94 -101 c 2,14,-1
 23 -101 l 1,15,-1
 23 -41 l 1,16,-1
 107 -41 l 2,0,1
EndSplineSet
EndChar

StartChar: K
Encoding: 75 75 66
Width: 1317
GlyphClass: 2
Flags: W
HStem: 0 60<102 263 345 506 822 989 1107 1277> 1174 60<102 263 345 506 788 941 1047 1220>
VStem: 263 82<60 625 642 1174>
DStem2: 345 642 447 634 0.743294 0.668965<70.4643 798.893> 447 634 345 625 0.754556 -0.656235<0 785.649>
LayerCount: 2
Fore
SplineSet
506 1234 m 1,0,-1
 506 1174 l 1,1,-1
 345 1174 l 1,2,-1
 345 642 l 1,3,-1
 941 1174 l 1,4,-1
 788 1174 l 1,5,-1
 788 1234 l 1,6,-1
 1220 1234 l 1,7,-1
 1220 1174 l 1,8,-1
 1047 1174 l 1,9,-1
 447 634 l 1,10,-1
 1107 60 l 1,11,-1
 1277 60 l 1,12,-1
 1277 0 l 1,13,-1
 822 0 l 1,14,-1
 822 60 l 1,15,-1
 989 60 l 1,16,-1
 345 625 l 1,17,-1
 345 60 l 1,18,-1
 506 60 l 1,19,-1
 506 0 l 1,20,-1
 102 0 l 1,21,-1
 102 60 l 1,22,-1
 263 60 l 1,23,-1
 263 1174 l 1,24,-1
 102 1174 l 1,25,-1
 102 1234 l 1,26,-1
 506 1234 l 1,0,-1
EndSplineSet
EndChar

StartChar: L
Encoding: 76 76 67
Width: 1149
GlyphClass: 2
Flags: W
HStem: 0 70<111 250 332 960> 1174 60<111 250 332 471>
VStem: 250 82<70 1174> 960 76<70 412>
LayerCount: 2
Fore
SplineSet
471 1234 m 1,0,-1
 471 1174 l 1,1,-1
 332 1174 l 1,2,-1
 332 70 l 1,3,-1
 960 70 l 1,4,-1
 960 412 l 1,5,-1
 1036 412 l 1,6,-1
 1036 0 l 1,7,-1
 111 0 l 1,8,-1
 111 70 l 1,9,-1
 250 70 l 1,10,-1
 250 1174 l 1,11,-1
 111 1174 l 1,12,-1
 111 1234 l 1,13,-1
 471 1234 l 1,0,-1
EndSplineSet
EndChar

StartChar: M
Encoding: 77 77 68
Width: 1663
GlyphClass: 2
Flags: W
HStem: 0 62<102 263 342 503 1155 1316 1395 1556> 1171 63<102 263 1395 1556>
VStem: 263 79<62 1088> 1316 79<62 1088>
DStem2: 358 1234 342 1088 0.441519 -0.897252<123.934 1105.14> 839 239 839 78 0.427047 0.904229<0 971.392>
LayerCount: 2
Fore
SplineSet
342 1088 m 1,0,-1
 342 62 l 1,1,-1
 503 62 l 1,2,-1
 503 0 l 1,3,-1
 102 0 l 1,4,-1
 102 62 l 1,5,-1
 263 62 l 1,6,-1
 263 1171 l 1,7,-1
 102 1171 l 1,8,-1
 102 1234 l 1,9,-1
 358 1234 l 1,10,-1
 839 239 l 1,11,-1
 1300 1234 l 1,12,-1
 1556 1234 l 1,13,-1
 1556 1171 l 1,14,-1
 1395 1171 l 1,15,-1
 1395 62 l 1,16,-1
 1556 62 l 1,17,-1
 1556 0 l 1,18,-1
 1155 0 l 1,19,-1
 1155 62 l 1,20,-1
 1316 62 l 1,21,-1
 1316 1088 l 1,22,-1
 839 78 l 1,23,-1
 342 1088 l 1,0,-1
EndSplineSet
EndChar

StartChar: N
Encoding: 78 78 69
Width: 1473
GlyphClass: 2
Flags: W
HStem: 0 62<102 263 342 503> 1171 63<102 263 1025 1186 1265 1426>
VStem: 263 79<62 1114> 1186 79<125 1171>
DStem2: 342 1234 342 1114 0.603885 -0.797071<95.6486 1393.63>
LayerCount: 2
Fore
SplineSet
342 1234 m 1,0,-1
 1186 125 l 1,1,-1
 1186 1171 l 1,2,-1
 1025 1171 l 1,3,-1
 1025 1234 l 1,4,-1
 1426 1234 l 1,5,-1
 1426 1171 l 1,6,-1
 1265 1171 l 1,7,-1
 1265 0 l 1,8,-1
 1186 0 l 1,9,-1
 342 1114 l 1,10,-1
 342 62 l 1,11,-1
 503 62 l 1,12,-1
 503 0 l 1,13,-1
 102 0 l 1,14,-1
 102 62 l 1,15,-1
 263 62 l 1,16,-1
 263 1171 l 1,17,-1
 102 1171 l 1,18,-1
 102 1234 l 1,19,-1
 342 1234 l 1,0,-1
EndSplineSet
EndChar

StartChar: O
Encoding: 79 79 70
Width: 1427
GlyphClass: 2
Flags: W
HStem: -23 71<502.092 933.337> 1182 73<509.764 925.677>
VStem: 78 84<390.994 838.772> 1274 84<390.393 833.009>
LayerCount: 2
Fore
SplineSet
716 1182 m 0,0,1
 600 1182 600 1182 500.5 1143 c 128,-1,2
 401 1104 401 1104 334 1039.5 c 128,-1,3
 267 975 267 975 226 890 c 0,4,5
 162 760 162 760 162 633 c 0,6,7
 162 381 162 381 307.5 214.5 c 128,-1,8
 453 48 453 48 718 48 c 0,9,10
 1064 48 1064 48 1212 342 c 1,11,12
 1274 468 1274 468 1274 576 c 0,13,14
 1274 939 1274 939 1019 1101 c 0,15,16
 892 1182 892 1182 716 1182 c 0,0,1
718 -23 m 256,17,18
 415 -23 415 -23 246.5 165.5 c 128,-1,19
 78 354 78 354 78 612.5 c 128,-1,20
 78 871 78 871 246.5 1063 c 128,-1,21
 415 1255 415 1255 718 1255 c 0,22,23
 1120 1255 1120 1255 1286 922 c 0,24,25
 1358 779 1358 779 1358 636 c 0,26,27
 1358 354 1358 354 1189.5 165.5 c 128,-1,28
 1021 -23 1021 -23 718 -23 c 256,17,18
EndSplineSet
EndChar

StartChar: P
Encoding: 80 80 71
Width: 1184
GlyphClass: 2
Flags: W
HStem: 0 62<101 254 335 505> 517 65<335 906.49> 1171 63<88 254 335 906.49>
VStem: 254 81<62 517 582 1171> 1052 79<724.645 1034.12>
LayerCount: 2
Fore
SplineSet
101 62 m 1,0,-1
 254 62 l 1,1,-1
 254 1171 l 1,2,-1
 88 1171 l 1,3,-1
 88 1234 l 1,4,-1
 769 1234 l 2,5,6
 940 1234 940 1234 1035.5 1129 c 128,-1,7
 1131 1024 1131 1024 1131 880.5 c 128,-1,8
 1131 737 1131 737 1035.5 627 c 128,-1,9
 940 517 940 517 769 517 c 2,10,-1
 335 517 l 1,11,-1
 335 62 l 1,12,-1
 505 62 l 1,13,-1
 505 0 l 1,14,-1
 101 0 l 1,15,-1
 101 62 l 1,0,-1
335 582 m 1,16,-1
 769 582 l 2,17,18
 902 582 902 582 977 671 c 128,-1,19
 1052 760 1052 760 1052 880 c 128,-1,20
 1052 1000 1052 1000 977 1085.5 c 128,-1,21
 902 1171 902 1171 769 1171 c 2,22,-1
 335 1171 l 1,23,-1
 335 582 l 1,16,-1
EndSplineSet
EndChar

StartChar: Q
Encoding: 81 81 72
Width: 1425
GlyphClass: 2
Flags: W
HStem: -181 73<898.791 1176.15> -13 61<515.675 684.12> 1182 73<509.975 925.677>
VStem: 78 84<393.171 838.896> 1274 84<387.737 831.184>
LayerCount: 2
Fore
SplineSet
422 38 m 1,0,1
 78 198 78 198 78 652 c 0,2,3
 78 779 78 779 152 926 c 0,4,5
 226 1075 226 1075 372 1165 c 128,-1,6
 518 1255 518 1255 718 1255 c 0,7,8
 1120 1255 1120 1255 1286 922 c 1,9,10
 1358 780 1358 780 1358 640 c 0,11,12
 1358 373 1358 373 1209.5 189.5 c 128,-1,13
 1061 6 1061 6 794 -19 c 1,14,15
 951 -108 951 -108 1029.5 -108 c 128,-1,16
 1108 -108 1108 -108 1167 -84 c 1,17,-1
 1192 -157 l 1,18,19
 1114 -181 1114 -181 1054 -181 c 0,20,21
 989 -181 989 -181 929 -163 c 128,-1,22
 869 -145 869 -145 829.5 -122 c 128,-1,23
 790 -99 790 -99 736.5 -69.5 c 128,-1,24
 683 -40 683 -40 640 -26 c 0,25,26
 603 -13 603 -13 520.5 -13 c 128,-1,27
 438 -13 438 -13 303 -78 c 1,28,-1
 285 -7 l 1,29,30
 358 23 358 23 422 38 c 1,0,1
716 1182 m 0,31,32
 600 1182 600 1182 500.5 1143 c 128,-1,33
 401 1104 401 1104 334 1039.5 c 128,-1,34
 267 975 267 975 226 890 c 0,35,36
 162 760 162 760 162 633 c 0,37,38
 162 381 162 381 307.5 214.5 c 128,-1,39
 453 48 453 48 718 48 c 0,40,41
 1064 48 1064 48 1212 342 c 1,42,43
 1274 468 1274 468 1274 576 c 0,44,45
 1274 939 1274 939 1019 1101 c 0,46,47
 892 1182 892 1182 716 1182 c 0,31,32
EndSplineSet
EndChar

StartChar: R
Encoding: 82 82 73
Width: 1274
GlyphClass: 2
Flags: W
HStem: 0 62<101 254 335 505 1043 1217> 577 65<335 643 727 875.943> 1171 63<88 254 335 871.723>
VStem: 254 81<62 577 642 1171> 1011 79<762.854 1048.16>
DStem2: 727 577 643 577 0.509884 -0.860243<0 604.149>
LayerCount: 2
Fore
SplineSet
101 62 m 1,0,-1
 254 62 l 1,1,-1
 254 1171 l 1,2,-1
 88 1171 l 1,3,-1
 88 1234 l 1,4,-1
 728 1234 l 2,5,6
 899 1234 899 1234 994.5 1136.5 c 128,-1,7
 1090 1039 1090 1039 1090 907 c 256,8,9
 1090 775 1090 775 994.5 676 c 128,-1,10
 899 577 899 577 728 577 c 2,11,-1
 727 577 l 1,12,-1
 1043 62 l 1,13,-1
 1217 62 l 1,14,-1
 1217 0 l 1,15,-1
 985 0 l 1,16,-1
 643 577 l 1,17,-1
 335 577 l 1,18,-1
 335 62 l 1,19,-1
 505 62 l 1,20,-1
 505 0 l 1,21,-1
 101 0 l 1,22,-1
 101 62 l 1,0,-1
728 642 m 2,23,24
 863 642 863 642 937 716.5 c 128,-1,25
 1011 791 1011 791 1011 934 c 0,26,27
 1011 1014 1011 1014 936.5 1092.5 c 128,-1,28
 862 1171 862 1171 728 1171 c 2,29,-1
 335 1171 l 1,30,-1
 335 642 l 1,31,-1
 728 642 l 2,23,24
EndSplineSet
EndChar

StartChar: S
Encoding: 83 83 74
Width: 1106
GlyphClass: 2
Flags: W
HStem: -23 75<430.562 820.412> 0 21G<152 231> 1182 73<370.469 769.389> 1214 20G<899 978>
VStem: 152 79<0 112 170.266 416 774.68 1055.31> 899 79<899 1103.91 1163 1234> 960 89<176.526 475.667>
LayerCount: 2
Fore
SplineSet
565 1182 m 0,0,1
 234 1182 234 1182 234 904 c 0,2,3
 234 777 234 777 321 731.5 c 128,-1,4
 408 686 408 686 608.5 666 c 128,-1,5
 809 646 809 646 929 572.5 c 128,-1,6
 1049 499 1049 499 1049 346.5 c 128,-1,7
 1049 194 1049 194 948 85.5 c 128,-1,8
 847 -23 847 -23 635.5 -23 c 128,-1,9
 424 -23 424 -23 231 112 c 1,10,-1
 231 0 l 1,11,-1
 152 0 l 1,12,-1
 152 416 l 1,13,-1
 231 416 l 1,14,-1
 231 196 l 1,15,16
 426 52 426 52 647 52 c 128,-1,17
 868 52 868 52 940 220 c 0,18,19
 960 268 960 268 960 333 c 0,20,21
 960 462 960 462 868 517.5 c 128,-1,22
 776 573 776 573 565 594 c 128,-1,23
 354 615 354 615 248.5 685 c 128,-1,24
 143 755 143 755 143 918 c 128,-1,25
 143 1081 143 1081 261.5 1168 c 128,-1,26
 380 1255 380 1255 552.5 1255 c 128,-1,27
 725 1255 725 1255 899 1163 c 1,28,-1
 899 1234 l 1,29,-1
 978 1234 l 1,30,-1
 978 899 l 1,31,-1
 899 899 l 1,32,-1
 899 1080 l 1,33,34
 746 1182 746 1182 565 1182 c 0,0,1
EndSplineSet
EndChar

StartChar: T
Encoding: 84 84 75
Width: 1071
GlyphClass: 2
Flags: W
HStem: 0 60<310 485 566 742> 842 21G<-14 62 996 1073> 1164 70<62 485 566 996>
VStem: -14 76<842 1164> 485 81<60 1164> 996 77<842 1164>
LayerCount: 2
Fore
SplineSet
1073 1234 m 1,0,-1
 1073 842 l 1,1,-1
 996 842 l 1,2,-1
 996 1164 l 1,3,-1
 566 1164 l 1,4,-1
 566 60 l 1,5,-1
 742 60 l 1,6,-1
 742 0 l 1,7,-1
 310 0 l 1,8,-1
 310 60 l 1,9,-1
 485 60 l 1,10,-1
 485 1164 l 1,11,-1
 62 1164 l 1,12,-1
 62 842 l 1,13,-1
 -14 842 l 1,14,-1
 -14 1234 l 1,15,-1
 1073 1234 l 1,0,-1
EndSplineSet
EndChar

StartChar: U
Encoding: 85 85 76
Width: 1421
GlyphClass: 2
Flags: W
HStem: -23 71<481.21 897.097> 1171 63<2 163 244 405 981 1142 1224 1384>
VStem: 163 81<243.793 1171> 1142 82<250.068 1171>
LayerCount: 2
Fore
SplineSet
1142 1171 m 1,0,-1
 981 1171 l 1,1,-1
 981 1234 l 1,2,-1
 1384 1234 l 1,3,-1
 1384 1171 l 1,4,-1
 1224 1171 l 1,5,-1
 1224 404 l 2,6,7
 1224 203 1224 203 1062.5 90 c 128,-1,8
 901 -23 901 -23 686 -23 c 128,-1,9
 471 -23 471 -23 317 89 c 128,-1,10
 163 201 163 201 163 404 c 2,11,-1
 163 1171 l 1,12,-1
 2 1171 l 1,13,-1
 2 1234 l 1,14,-1
 405 1234 l 1,15,-1
 405 1171 l 1,16,-1
 244 1171 l 1,17,-1
 244 406 l 2,18,19
 244 235 244 235 373.5 141.5 c 128,-1,20
 503 48 503 48 680 48 c 0,21,22
 981 48 981 48 1102 250 c 0,23,24
 1142 317 1142 317 1142 406 c 2,25,-1
 1142 1171 l 1,0,-1
EndSplineSet
EndChar

StartChar: V
Encoding: 86 86 77
Width: 1159
GlyphClass: 2
Flags: W
HStem: 0 21G<508.485 609.583> 1171 63<-82 76 164 321 799 952 1046 1202>
DStem2: 164 1171 76 1171 0.351737 -0.936099<0 1141.85> 560 100 602 0 0.354534 0.935043<0 1140.41>
LayerCount: 2
Fore
SplineSet
516 0 m 1,0,-1
 76 1171 l 1,1,-1
 -82 1171 l 1,2,-1
 -82 1234 l 1,3,-1
 321 1234 l 1,4,-1
 321 1171 l 1,5,-1
 164 1171 l 1,6,-1
 560 100 l 1,7,-1
 952 1171 l 1,8,-1
 799 1171 l 1,9,-1
 799 1234 l 1,10,-1
 1202 1234 l 1,11,-1
 1202 1171 l 1,12,-1
 1046 1171 l 1,13,-1
 602 0 l 1,14,-1
 516 0 l 1,0,-1
EndSplineSet
EndChar

StartChar: W
Encoding: 87 87 78
Width: 1827
GlyphClass: 2
Flags: W
HStem: 0 21G<464.322 566.379 1232.37 1332.49> 1171 63<-78 80 168 325 695 848 936 1093 1463 1616 1706 1862>
DStem2: 168 1171 80 1171 0.316714 -0.948521<0 1126.08> 516 100 560 0 0.296091 0.95516<0 1013.3> 936 1171 893 1044 0.309026 -0.951054<107.496 1126.12> 1284 100 1326 0 0.308664 0.951171<0 1121.18>
LayerCount: 2
Fore
SplineSet
1239 0 m 1,0,-1
 893 1044 l 1,1,-1
 560 0 l 1,2,-1
 471 0 l 1,3,-1
 80 1171 l 1,4,-1
 -78 1171 l 1,5,-1
 -78 1234 l 1,6,-1
 325 1234 l 1,7,-1
 325 1171 l 1,8,-1
 168 1171 l 1,9,-1
 516 100 l 1,10,-1
 848 1171 l 1,11,-1
 695 1171 l 1,12,-1
 695 1234 l 1,13,-1
 1093 1234 l 1,14,-1
 1093 1171 l 1,15,-1
 936 1171 l 1,16,-1
 1284 100 l 1,17,-1
 1616 1171 l 1,18,-1
 1463 1171 l 1,19,-1
 1463 1234 l 1,20,-1
 1862 1234 l 1,21,-1
 1862 1171 l 1,22,-1
 1706 1171 l 1,23,-1
 1326 0 l 1,24,-1
 1239 0 l 1,0,-1
EndSplineSet
EndChar

StartChar: X
Encoding: 88 88 79
Width: 1270
GlyphClass: 2
Flags: W
HStem: 0 62<55 209 298 458 811 972 1054 1214> 1171 63<67 228 310 470 787 947 1032 1190>
DStem2: 209 62 298 62 0.554007 0.832512<49.3066 655.596 759.663 1332.11> 310 1171 228 1171 0.557117 -0.830434<0 573.007 680.143 1289.76>
LayerCount: 2
Fore
SplineSet
470 1234 m 1,0,-1
 470 1171 l 1,1,-1
 310 1171 l 1,2,-1
 629 695 l 1,3,-1
 947 1171 l 1,4,-1
 787 1171 l 1,5,-1
 787 1234 l 1,6,-1
 1190 1234 l 1,7,-1
 1190 1171 l 1,8,-1
 1032 1171 l 1,9,-1
 673 629 l 1,10,-1
 1054 62 l 1,11,-1
 1214 62 l 1,12,-1
 1214 0 l 1,13,-1
 811 0 l 1,14,-1
 811 62 l 1,15,-1
 972 62 l 1,16,-1
 632 568 l 1,17,-1
 298 62 l 1,18,-1
 458 62 l 1,19,-1
 458 0 l 1,20,-1
 55 0 l 1,21,-1
 55 62 l 1,22,-1
 209 62 l 1,23,-1
 588 634 l 1,24,-1
 228 1171 l 1,25,-1
 67 1171 l 1,26,-1
 67 1234 l 1,27,-1
 470 1234 l 1,0,-1
EndSplineSet
EndChar

StartChar: Y
Encoding: 89 89 80
Width: 1141
GlyphClass: 2
Flags: W
HStem: 0 62<351 512 594 754> 1171 63<-88 70 158 315 786 945 1033 1189>
VStem: 512 82<62 436>
DStem2: 158 1171 70 1171 0.515353 -0.856978<0 772.772> 555 508 594 436 0.512777 0.858522<0 769.183>
LayerCount: 2
Fore
SplineSet
-88 1171 m 1,0,-1
 -88 1234 l 1,1,-1
 315 1234 l 1,2,-1
 315 1171 l 1,3,-1
 158 1171 l 1,4,-1
 555 508 l 1,5,-1
 945 1171 l 1,6,-1
 786 1171 l 1,7,-1
 786 1234 l 1,8,-1
 1189 1234 l 1,9,-1
 1189 1171 l 1,10,-1
 1033 1171 l 1,11,-1
 594 436 l 1,12,-1
 594 62 l 1,13,-1
 754 62 l 1,14,-1
 754 0 l 1,15,-1
 351 0 l 1,16,-1
 351 62 l 1,17,-1
 512 62 l 1,18,-1
 512 436 l 1,19,-1
 70 1171 l 1,20,-1
 -88 1171 l 1,0,-1
EndSplineSet
EndChar

StartChar: Z
Encoding: 90 90 81
Width: 1229
GlyphClass: 2
Flags: W
HStem: 0 70<185 1027> 1164 70<198 979>
VStem: 121 77<870 1164> 1027 77<70 376>
DStem2: 102 96 185 70 0.631912 0.77504<32.2976 1381.93>
LayerCount: 2
Fore
SplineSet
185 70 m 1,0,-1
 1027 70 l 1,1,-1
 1027 376 l 1,2,-1
 1104 376 l 1,3,-1
 1104 0 l 1,4,-1
 102 0 l 1,5,-1
 102 96 l 1,6,-1
 979 1164 l 1,7,-1
 198 1164 l 1,8,-1
 198 870 l 1,9,-1
 121 870 l 1,10,-1
 121 1234 l 1,11,-1
 1068 1234 l 1,12,-1
 1068 1153 l 1,13,-1
 185 70 l 1,0,-1
EndSplineSet
EndChar

StartChar: bracketleft
Encoding: 91 91 82
Width: 518
GlyphClass: 2
Flags: W
HStem: -23 63<260 420> 1193 62<260 420>
VStem: 178 242<-23 40 1193 1255> 178 82<40 1193>
LayerCount: 2
Fore
SplineSet
420 1255 m 1,0,-1
 420 1193 l 1,1,-1
 260 1193 l 1,2,-1
 260 40 l 1,3,-1
 420 40 l 1,4,-1
 420 -23 l 1,5,-1
 178 -23 l 1,6,-1
 178 1255 l 1,7,-1
 420 1255 l 1,0,-1
EndSplineSet
EndChar

StartChar: backslash
Encoding: 92 92 83
Width: 535
GlyphClass: 2
Flags: W
HStem: -23 21G<414.257 496> 1235 20G<53 129.822>
VStem: 53 71<1184 1255> 420 76<-23 53>
DStem2: 124 1255 53 1255 0.279481 -0.960151<0 1309.8>
LayerCount: 2
Fore
SplineSet
496 -23 m 1,0,-1
 420 -23 l 1,1,-1
 53 1255 l 1,2,-1
 124 1255 l 1,3,-1
 496 -23 l 1,0,-1
EndSplineSet
EndChar

StartChar: bracketright
Encoding: 93 93 84
Width: 522
GlyphClass: 2
Flags: W
HStem: -23 63<100 261> 1193 62<100 261>
VStem: 100 242<-23 40 1193 1255> 261 81<40 1193>
LayerCount: 2
Fore
SplineSet
342 1255 m 1,0,-1
 342 -23 l 1,1,-1
 100 -23 l 1,2,-1
 100 40 l 1,3,-1
 261 40 l 1,4,-1
 261 1193 l 1,5,-1
 100 1193 l 1,6,-1
 100 1255 l 1,7,-1
 342 1255 l 1,0,-1
EndSplineSet
EndChar

StartChar: asciicircum
Encoding: 94 94 85
Width: 891
GlyphClass: 2
Flags: W
HStem: 761 494
VStem: 61 74<761 835> 750 72<761 833>
LayerCount: 2
Fore
SplineSet
822 761 m 1,0,-1
 750 761 l 1,1,-1
 449 1186 l 1,2,-1
 135 761 l 1,3,-1
 61 761 l 1,4,-1
 407 1255 l 1,5,-1
 492 1255 l 1,6,-1
 822 761 l 1,0,-1
EndSplineSet
EndChar

StartChar: underscore
Encoding: 95 95 86
Width: 1016
GlyphClass: 2
Flags: W
HStem: -62 62<139 871>
LayerCount: 2
Fore
SplineSet
871 -62 m 1,0,-1
 139 -62 l 1,1,-1
 139 0 l 1,2,-1
 871 0 l 1,3,-1
 871 -62 l 1,0,-1
EndSplineSet
EndChar

StartChar: grave
Encoding: 96 96 87
Width: 420
GlyphClass: 2
Flags: W
HStem: 985 249
VStem: 104 188
LayerCount: 2
Fore
SplineSet
261 985 m 1,0,-1
 104 1234 l 1,1,-1
 231 1234 l 1,2,-1
 292 985 l 1,3,-1
 261 985 l 1,0,-1
EndSplineSet
EndChar

StartChar: a
Encoding: 97 97 88
Width: 981
GlyphClass: 2
Flags: W
HStem: -14 67<239.904 532.553 754 907> 410 65<242.641 669.676> 787 67<245.543 585.784>
VStem: 80 81<118.364 348.805> 674 80<127.751 390.798 446 710.274>
LayerCount: 2
Fore
SplineSet
342 -14 m 0,0,1
 221 -14 221 -14 150.5 54 c 128,-1,2
 80 122 80 122 80 248 c 0,3,4
 80 474 80 474 401 475 c 0,5,6
 527 475 527 475 674 446 c 1,7,-1
 674 575 l 2,8,9
 674 787 674 787 436 787 c 0,10,11
 246 787 246 787 156 696 c 1,12,-1
 120 755 l 1,13,14
 223 854 223 854 457.5 854 c 128,-1,15
 692 854 692 854 741 679 c 0,16,17
 754 633 754 633 754 593 c 2,18,-1
 754 60 l 1,19,-1
 907 60 l 1,20,-1
 907 0 l 1,21,-1
 690 0 l 1,22,-1
 674 95 l 1,23,24
 525 -14 525 -14 342 -14 c 0,0,1
161 232 m 0,25,26
 161 148 161 148 219 100.5 c 128,-1,27
 277 53 277 53 376 53 c 0,28,29
 560 53 560 53 674 158 c 1,30,-1
 674 384 l 1,31,32
 544 410 544 410 430 410 c 0,33,34
 296 410 296 410 228.5 372 c 128,-1,35
 161 334 161 334 161 232 c 0,25,26
EndSplineSet
EndChar

StartChar: b
Encoding: 98 98 89
Width: 1169
GlyphClass: 2
Flags: W
HStem: 0 60<94 259> 787 67<527.021 857.365> 1174 60<110 259>
VStem: 259 79<164.05 653.74 695 1174> 1057 79<245.116 591.781>
LayerCount: 2
Fore
SplineSet
338 1234 m 1,0,-1
 338 695 l 1,1,2
 473 854 473 854 686.5 854 c 128,-1,3
 900 854 900 854 1018 728.5 c 128,-1,4
 1136 603 1136 603 1136 434 c 0,5,6
 1136 186 1136 186 943 51 c 128,-1,7
 750 -84 750 -84 475 36 c 0,8,9
 381 77 381 77 338 125 c 1,10,11
 334 93 334 93 331 62 c 2,12,-1
 325 0 l 1,13,-1
 94 0 l 1,14,-1
 94 60 l 1,15,-1
 259 60 l 1,16,-1
 259 1174 l 1,17,-1
 110 1174 l 1,18,-1
 110 1234 l 1,19,-1
 338 1234 l 1,0,-1
1057 388 m 0,20,21
 1057 577 1057 577 960.5 682 c 128,-1,22
 864 787 864 787 682 787 c 0,23,24
 503 787 503 787 338 619 c 1,25,-1
 338 193 l 1,26,27
 518 53 518 53 694.5 53 c 128,-1,28
 871 53 871 53 964 165 c 128,-1,29
 1057 277 1057 277 1057 388 c 0,20,21
EndSplineSet
EndChar

StartChar: c
Encoding: 99 99 90
Width: 936
GlyphClass: 2
Flags: W
HStem: -13 67<347.621 672.156> 787 67<345.13 659.342> 815 20G<762 838>
VStem: 57 82<242.533 602.791> 762 76<600 709.267 750 835>
LayerCount: 2
Fore
SplineSet
772 600 m 1,0,1
 763 690 763 690 691 737.5 c 128,-1,2
 619 785 619 785 502 787 c 1,3,4
 351 787 351 787 245 689.5 c 128,-1,5
 139 592 139 592 139 422.5 c 128,-1,6
 139 253 139 253 246 154.5 c 128,-1,7
 353 56 353 56 500 54 c 1,8,9
 716 54 716 54 844 222 c 1,10,-1
 867 149 l 1,11,12
 704 -14 704 -14 510 -13 c 0,13,14
 384 -12 384 -12 281 42 c 128,-1,15
 178 96 178 96 117.5 195 c 128,-1,16
 57 294 57 294 57 418 c 0,17,18
 57 612 57 612 179 732 c 128,-1,19
 301 852 301 852 498 854 c 0,20,21
 697 857 697 857 762 750 c 1,22,-1
 762 835 l 1,23,-1
 838 835 l 1,24,-1
 838 600 l 1,25,-1
 772 600 l 1,0,1
EndSplineSet
EndChar

StartChar: d
Encoding: 100 100 91
Width: 1165
GlyphClass: 2
Flags: W
HStem: -14 67<324.194 656.531 924 1089> 787 67<326.61 655.979> 1174 60<641 845>
VStem: 47 79<240.851 598.811> 845 79<164.05 653.74 695 1174>
LayerCount: 2
Fore
SplineSet
845 125 m 1,0,1
 720 -14 720 -14 439 -14 c 0,2,3
 327 -14 327 -14 230.5 58 c 128,-1,4
 134 130 134 130 92 224 c 0,5,6
 47 326 47 326 47 420 c 0,7,8
 47 604 47 604 165 729 c 128,-1,9
 283 854 283 854 496.5 854 c 128,-1,10
 710 854 710 854 845 695 c 1,11,-1
 845 1174 l 1,12,-1
 641 1174 l 1,13,-1
 641 1234 l 1,14,-1
 924 1234 l 1,15,-1
 924 60 l 1,16,-1
 1089 60 l 1,17,-1
 1089 0 l 1,18,-1
 858 0 l 1,19,-1
 845 125 l 1,0,1
480 53 m 0,20,21
 665 53 665 53 845 193 c 1,22,-1
 845 619 l 1,23,24
 680 787 680 787 501 787 c 132,-1,25
 322 787 322 787 224 683.5 c 128,-1,26
 126 580 126 580 126 426 c 0,27,28
 126 184 126 184 324 86 c 0,29,30
 390 53 390 53 480 53 c 0,20,21
EndSplineSet
EndChar

StartChar: e
Encoding: 101 101 92
Width: 934
GlyphClass: 2
Flags: W
HStem: -14 66<338.172 659.963> 400 66<141 812> 787 67<336.631 639.382>
VStem: 57 82<236.5 400 466 602.076>
LayerCount: 2
Fore
SplineSet
867 149 m 1,0,1
 695 -14 695 -14 501 -14 c 128,-1,2
 307 -14 307 -14 182 109.5 c 128,-1,3
 57 233 57 233 57 414.5 c 128,-1,4
 57 596 57 596 175.5 725 c 128,-1,5
 294 854 294 854 487.5 854 c 128,-1,6
 681 854 681 854 785.5 723 c 128,-1,7
 890 592 890 592 890 400 c 1,8,-1
 139 400 l 1,9,10
 156 149 156 149 362 74 c 0,11,12
 422 52 422 52 488 52 c 0,13,14
 690 52 690 52 834 204 c 1,15,-1
 867 149 l 1,0,1
812 466 m 1,16,17
 791 680 791 680 629 760 c 0,18,19
 574 787 574 787 496 787 c 0,20,21
 340 787 340 787 244 691 c 128,-1,22
 148 595 148 595 141 466 c 1,23,-1
 812 466 l 1,16,17
EndSplineSet
EndChar

StartChar: f
Encoding: 102 102 93
Width: 643
GlyphClass: 2
Flags: W
HStem: 0 60<106 261 340 531> 779 57<106 261 340 543> 1172 62<365.955 491.253>
VStem: 261 79<60 779 836 1139.51> 509 75<1066 1159.57>
LayerCount: 2
Fore
SplineSet
261 1064 m 2,0,1
 261 1143 261 1143 308.5 1188.5 c 128,-1,2
 356 1234 356 1234 444 1234 c 0,3,4
 502 1234 502 1234 542 1184 c 128,-1,5
 582 1134 582 1134 584 1066 c 1,6,-1
 509 1066 l 1,7,8
 509 1172 509 1172 428 1172 c 0,9,10
 390 1172 390 1172 365 1140.5 c 128,-1,11
 340 1109 340 1109 340 1066 c 2,12,-1
 340 836 l 1,13,-1
 543 836 l 1,14,-1
 543 779 l 1,15,-1
 340 779 l 1,16,-1
 340 60 l 1,17,-1
 531 60 l 1,18,-1
 531 0 l 1,19,-1
 106 0 l 1,20,-1
 106 60 l 1,21,-1
 261 60 l 1,22,-1
 261 779 l 1,23,-1
 106 779 l 1,24,-1
 106 836 l 1,25,-1
 261 836 l 1,26,-1
 261 1064 l 2,0,1
EndSplineSet
EndChar

StartChar: g
Encoding: 103 103 94
Width: 1110
GlyphClass: 2
Flags: W
HStem: -317 69<261 681.885> -14 67<328.046 681.254> 780 60<315.383 656.413 910 1074>
VStem: 57 80<250.974 602.941> 831 79<-127.854 120 158.052 675.95>
LayerCount: 2
Fore
SplineSet
831 120 m 1,0,1
 702 -14 702 -14 494 -14 c 128,-1,2
 286 -14 286 -14 171.5 115 c 128,-1,3
 57 244 57 244 57 414 c 128,-1,4
 57 584 57 584 163.5 719 c 128,-1,5
 270 854 270 854 458 854 c 128,-1,6
 646 854 646 854 780 758 c 0,7,8
 814 734 814 734 831 715 c 1,9,-1
 844 840 l 1,10,-1
 1074 840 l 1,11,-1
 1074 780 l 1,12,-1
 910 780 l 1,13,-1
 910 29 l 2,14,15
 910 -204 910 -204 717 -272 c 0,16,17
 606 -311 606 -311 477.5 -314 c 128,-1,18
 349 -317 349 -317 261 -317 c 1,19,-1
 261 -248 l 1,20,-1
 410 -248 l 2,21,22
 659 -248 659 -248 745 -182 c 128,-1,23
 831 -116 831 -116 831 12 c 2,24,-1
 831 120 l 1,0,1
831 647 m 1,25,26
 654 787 654 787 483 787 c 128,-1,27
 312 787 312 787 224 676 c 128,-1,28
 136 565 136 565 137 452 c 0,29,30
 139 273 139 273 229.5 163 c 128,-1,31
 320 53 320 53 482 53 c 0,32,33
 634 53 634 53 708 99.5 c 128,-1,34
 782 146 782 146 831 190 c 1,35,-1
 831 647 l 1,25,26
EndSplineSet
EndChar

StartChar: h
Encoding: 104 104 95
Width: 1198
GlyphClass: 2
Flags: W
HStem: 0 60<97 259 338 530 723 881 960 1135> 787 67<517.323 815.767> 1176 58<86 259>
VStem: 259 79<60 686.047 736 1176> 881 79<60 728.148>
LayerCount: 2
Fore
SplineSet
86 1176 m 1,0,-1
 86 1234 l 1,1,-1
 338 1234 l 1,2,-1
 338 736 l 1,3,4
 506 829 506 829 574.5 841.5 c 128,-1,5
 643 854 643 854 699 854 c 0,6,7
 833 854 833 854 896.5 783.5 c 128,-1,8
 960 713 960 713 960 617 c 2,9,-1
 960 60 l 1,10,-1
 1135 60 l 1,11,-1
 1135 0 l 1,12,-1
 723 0 l 1,13,-1
 723 60 l 1,14,-1
 881 60 l 1,15,-1
 881 601 l 2,16,17
 881 787 881 787 687 787 c 0,18,19
 561 787 561 787 419 709 c 0,20,21
 379 687 379 687 338 664 c 1,22,-1
 338 60 l 1,23,-1
 530 60 l 1,24,-1
 530 0 l 1,25,-1
 97 0 l 1,26,-1
 97 60 l 1,27,-1
 259 60 l 1,28,-1
 259 1176 l 1,29,-1
 86 1176 l 1,0,-1
EndSplineSet
EndChar

StartChar: i
Encoding: 105 105 96
Width: 582
GlyphClass: 2
Flags: W
HStem: 0 60<115 265 344 498> 776 60<115 265> 1092 113<257.049 345.435>
VStem: 239 125<1108.5 1189.01> 265 79<60 776>
LayerCount: 2
Fore
SplineSet
300 1092 m 0,0,1
 274 1092 274 1092 256.5 1108 c 128,-1,2
 239 1124 239 1124 239 1148 c 0,3,4
 239 1205 239 1205 301 1205 c 0,5,6
 329 1205 329 1205 346.5 1189.5 c 128,-1,7
 364 1174 364 1174 364 1149 c 128,-1,8
 364 1124 364 1124 346 1108 c 128,-1,9
 328 1092 328 1092 300 1092 c 0,0,1
115 776 m 1,10,-1
 115 836 l 1,11,-1
 344 836 l 1,12,-1
 344 60 l 1,13,-1
 498 60 l 1,14,-1
 498 0 l 1,15,-1
 115 0 l 1,16,-1
 115 60 l 1,17,-1
 265 60 l 1,18,-1
 265 776 l 1,19,-1
 115 776 l 1,10,-1
EndSplineSet
EndChar

StartChar: j
Encoding: 106 106 97
Width: 408
GlyphClass: 2
Flags: W
HStem: -271 60<-53 133.449> 779 57<25 162> 1092 113<148.049 235.435>
VStem: 130 124<1108.5 1203.61> 162 79<-191.229 779>
LayerCount: 2
Fore
SplineSet
162 779 m 1,0,-1
 25 779 l 1,1,-1
 25 836 l 1,2,-1
 241 836 l 1,3,-1
 241 -22 l 1,4,5
 242 -145 242 -145 218 -186 c 0,6,7
 169 -271 169 -271 27 -271 c 2,8,-1
 -53 -271 l 1,9,-1
 -53 -211 l 1,10,-1
 25 -211 l 2,11,12
 119 -211 119 -211 140.5 -174 c 128,-1,13
 162 -137 162 -137 162 -34 c 2,14,-1
 162 779 l 1,0,-1
191.5 1092 m 128,-1,16
 165 1092 165 1092 147.5 1108 c 128,-1,17
 130 1124 130 1124 130 1148 c 0,18,19
 130 1205 130 1205 192 1205 c 256,20,21
 254 1205 254 1205 254 1148 c 0,22,23
 254 1124 254 1124 236 1108 c 128,-1,15
 218 1092 218 1092 191.5 1092 c 128,-1,16
EndSplineSet
EndChar

StartChar: k
Encoding: 107 107 98
Width: 1124
GlyphClass: 2
Flags: W
HStem: 0 60<94 280 359 543 666 789 898 1049> 776 60<629 753 855 1014> 1174 60<94 280>
VStem: 280 79<60 431 454 1174>
DStem2: 359 454 452 439 0.767128 0.641494<61.7205 508.81> 452 439 359 431 0.762024 -0.647549<0 502.223>
LayerCount: 2
Fore
SplineSet
94 1174 m 1,0,-1
 94 1234 l 1,1,-1
 359 1234 l 1,2,-1
 359 454 l 1,3,-1
 753 776 l 1,4,-1
 629 776 l 1,5,-1
 629 836 l 1,6,-1
 1014 836 l 1,7,-1
 1014 776 l 1,8,-1
 855 776 l 1,9,-1
 452 439 l 1,10,-1
 898 60 l 1,11,-1
 1049 60 l 1,12,-1
 1049 0 l 1,13,-1
 666 0 l 1,14,-1
 666 60 l 1,15,-1
 789 60 l 1,16,-1
 359 431 l 1,17,-1
 359 60 l 1,18,-1
 543 60 l 1,19,-1
 543 0 l 1,20,-1
 94 0 l 1,21,-1
 94 60 l 1,22,-1
 280 60 l 1,23,-1
 280 1174 l 1,24,-1
 94 1174 l 1,0,-1
EndSplineSet
EndChar

StartChar: l
Encoding: 108 108 99
Width: 612
GlyphClass: 2
Flags: W
HStem: 0 60<94 280 359 543> 1174 60<94 280>
VStem: 280 79<60 1174>
LayerCount: 2
Fore
SplineSet
94 1174 m 1,0,-1
 94 1234 l 1,1,-1
 359 1234 l 1,2,-1
 359 60 l 1,3,-1
 543 60 l 1,4,-1
 543 0 l 1,5,-1
 94 0 l 1,6,-1
 94 60 l 1,7,-1
 280 60 l 1,8,-1
 280 1174 l 1,9,-1
 94 1174 l 1,0,-1
EndSplineSet
EndChar

StartChar: m
Encoding: 109 109 100
Width: 1659
GlyphClass: 2
Flags: W
HStem: 0 60<103 265 344 500 642 799 878 1054 1176 1333 1412 1588> 779 57<92 265> 786 68<496.52 752.287 1029.89 1286.82>
VStem: 265 79<60 687.754> 799 79<60 663.25> 1333 79<60 744.488>
CounterMasks: 1 1c
LayerCount: 2
Fore
SplineSet
1201 854 m 0,0,1
 1300 854 1300 854 1356 791 c 128,-1,2
 1412 728 1412 728 1412 617 c 2,3,-1
 1412 60 l 1,4,-1
 1588 60 l 1,5,-1
 1588 0 l 1,6,-1
 1176 0 l 1,7,-1
 1176 60 l 1,8,-1
 1333 60 l 1,9,-1
 1333 601 l 1,10,11
 1332 736 1332 736 1262 772 c 1,12,13
 1214 792 1214 792 1152 786 c 128,-1,14
 1090 780 1090 780 1042 758 c 0,15,16
 979 729 979 729 875 664 c 1,17,18
 878 640 878 640 878 617 c 2,19,-1
 878 60 l 1,20,-1
 1054 60 l 1,21,-1
 1054 0 l 1,22,-1
 642 0 l 1,23,-1
 642 60 l 1,24,-1
 799 60 l 1,25,-1
 799 601 l 1,26,27
 798 736 798 736 728 772 c 1,28,29
 682 791 682 791 619.5 786 c 128,-1,30
 557 781 557 781 510 759 c 0,31,32
 451 731 451 731 344 664 c 1,33,-1
 344 60 l 1,34,-1
 500 60 l 1,35,-1
 500 0 l 1,36,-1
 103 0 l 1,37,-1
 103 60 l 1,38,-1
 265 60 l 1,39,-1
 265 779 l 1,40,-1
 92 779 l 1,41,-1
 92 836 l 1,42,-1
 332 836 l 1,43,-1
 341 736 l 1,44,45
 489 829 489 829 552.5 841.5 c 128,-1,46
 616 854 616 854 661 854 c 0,47,48
 804 854 804 854 858 727 c 1,49,50
 1041 854 1041 854 1201 854 c 0,0,1
EndSplineSet
EndChar

StartChar: n
Encoding: 110 110 101
Width: 1202
GlyphClass: 2
Flags: W
HStem: 0 60<100 281 361 543 722 879 958 1133> 779 57<101 281> 787 67<525.228 820.528>
VStem: 281 80<60 692.608> 879 79<60 735.854>
LayerCount: 2
Fore
SplineSet
879 601 m 1,0,1
 878 698 878 698 835 741.5 c 128,-1,2
 792 785 792 785 698 787 c 1,3,4
 531 787 531 787 361 668 c 1,5,-1
 361 60 l 1,6,-1
 543 60 l 1,7,-1
 543 0 l 1,8,-1
 100 0 l 1,9,-1
 100 60 l 1,10,-1
 281 60 l 1,11,-1
 281 779 l 1,12,-1
 101 779 l 1,13,-1
 101 836 l 1,14,-1
 349 836 l 1,15,-1
 357 736 l 1,16,17
 536 854 536 854 718 854 c 0,18,19
 830 854 830 854 894 792.5 c 128,-1,20
 958 731 958 731 958 617 c 2,21,-1
 958 60 l 1,22,-1
 1133 60 l 1,23,-1
 1133 0 l 1,24,-1
 722 0 l 1,25,-1
 722 60 l 1,26,-1
 879 60 l 1,27,-1
 879 601 l 1,0,1
EndSplineSet
EndChar

StartChar: o
Encoding: 111 111 102
Width: 1004
GlyphClass: 2
Flags: W
HStem: -14 67<346.719 667.28> 787 67<349.172 666.882>
VStem: 57 82<240.171 600.747> 879 80<244.342 599.071>
LayerCount: 2
Fore
SplineSet
767.5 690.5 m 128,-1,1
 656 787 656 787 507 787 c 128,-1,2
 358 787 358 787 248.5 690 c 128,-1,3
 139 593 139 593 139 421.5 c 128,-1,4
 139 250 139 250 248 151.5 c 128,-1,5
 357 53 357 53 507 53 c 128,-1,6
 657 53 657 53 768 151.5 c 128,-1,7
 879 250 879 250 879 422 c 128,-1,0
 879 594 879 594 767.5 690.5 c 128,-1,1
824 102 m 128,-1,9
 689 -14 689 -14 506.5 -14 c 128,-1,10
 324 -14 324 -14 190.5 102.5 c 128,-1,11
 57 219 57 219 57 422.5 c 128,-1,12
 57 626 57 626 190 740 c 128,-1,13
 323 854 323 854 506 854 c 128,-1,14
 689 854 689 854 824 740 c 128,-1,15
 959 626 959 626 959 422 c 128,-1,8
 959 218 959 218 824 102 c 128,-1,9
EndSplineSet
EndChar

StartChar: p
Encoding: 112 112 103
Width: 1120
GlyphClass: 2
Flags: W
HStem: -322 60<53 202 281 428> -14 67<470.021 799.39> 787 67<37 202 468.909 801.806>
VStem: 202 79<-262 145 186.26 675.95> 1000 79<241.189 599.149>
LayerCount: 2
Fore
SplineSet
281 715 m 1,0,1
 443 854 443 854 687 854 c 0,2,3
 799 854 799 854 895.5 782 c 128,-1,4
 992 710 992 710 1034 616 c 0,5,6
 1079 514 1079 514 1079 420 c 0,7,8
 1079 236 1079 236 961 111 c 128,-1,9
 843 -14 843 -14 629.5 -14 c 128,-1,10
 416 -14 416 -14 281 145 c 1,11,-1
 281 -262 l 1,12,-1
 428 -262 l 1,13,-1
 428 -322 l 1,14,-1
 53 -322 l 1,15,-1
 53 -262 l 1,16,-1
 202 -262 l 1,17,-1
 202 780 l 1,18,-1
 37 780 l 1,19,-1
 37 840 l 1,20,-1
 268 840 l 1,21,-1
 281 715 l 1,0,1
646 787 m 0,22,23
 461 787 461 787 281 647 c 1,24,-1
 281 221 l 1,25,26
 446 53 446 53 625 53 c 128,-1,27
 804 53 804 53 902 156.5 c 128,-1,28
 1000 260 1000 260 1000 414 c 0,29,30
 1000 656 1000 656 802 754 c 0,31,32
 736 787 736 787 646 787 c 0,22,23
EndSplineSet
EndChar

StartChar: q
Encoding: 113 113 104
Width: 1141
GlyphClass: 2
Flags: W
HStem: -322 60<708 855 935 1083> -14 67<337.455 711.678> 787 67<332.841 670.581 935 1099>
VStem: 57 80<247.234 593.715> 855 80<-262 97 137.219 675.95>
LayerCount: 2
Fore
SplineSet
474 854 m 0,0,1
 586 854 586 854 694.5 813.5 c 128,-1,2
 803 773 803 773 855 715 c 1,3,-1
 869 840 l 1,4,-1
 1099 840 l 1,5,-1
 1099 780 l 1,6,-1
 935 780 l 1,7,-1
 935 -262 l 1,8,-1
 1083 -262 l 1,9,-1
 1083 -322 l 1,10,-1
 708 -322 l 1,11,-1
 708 -262 l 1,12,-1
 855 -262 l 1,13,-1
 855 97 l 1,14,15
 720 -14 720 -14 506.5 -14 c 128,-1,16
 293 -14 293 -14 175 111.5 c 128,-1,17
 57 237 57 237 57 406 c 0,18,19
 56 654 56 654 238 781 c 0,20,21
 342 854 342 854 474 854 c 0,0,1
137 452 m 0,22,23
 137 261 137 261 234.5 157 c 128,-1,24
 332 53 332 53 519 53 c 128,-1,25
 706 53 706 53 855 163 c 1,26,-1
 855 647 l 1,27,28
 675 787 675 787 499 787 c 128,-1,29
 323 787 323 787 230 675 c 128,-1,30
 137 563 137 563 137 452 c 0,22,23
EndSplineSet
EndChar

StartChar: r
Encoding: 114 114 105
Width: 748
GlyphClass: 2
Flags: W
HStem: 0 60<100 284 363 546> 779 57<101 284> 787 67<473.999 725.622>
VStem: 284 79<60 673.069>
LayerCount: 2
Fore
SplineSet
574 787 m 0,0,1
 506 787 506 787 457 739.5 c 128,-1,2
 408 692 408 692 385.5 621.5 c 128,-1,3
 363 551 363 551 363 468 c 2,4,-1
 363 60 l 1,5,-1
 546 60 l 1,6,-1
 546 0 l 1,7,-1
 100 0 l 1,8,-1
 100 60 l 1,9,-1
 284 60 l 1,10,-1
 284 779 l 1,11,-1
 101 779 l 1,12,-1
 101 836 l 1,13,-1
 351 836 l 1,14,-1
 363 652 l 1,15,16
 387 739 387 739 443.5 796.5 c 128,-1,17
 500 854 500 854 586 854 c 0,18,19
 667 854 667 854 756 814 c 1,20,-1
 744 746 l 1,21,22
 660 787 660 787 574 787 c 0,0,1
EndSplineSet
EndChar

StartChar: s
Encoding: 115 115 106
Width: 874
GlyphClass: 2
Flags: W
HStem: -14 67.5<280.481 635.773> 786 67<297.238 610.012> 816 20G<684 754>
VStem: 129 68<0 73 120.438 268> 133 82<533.457 719.524> 684 70<572 728.214 776 836> 731 80<125.396 331.206>
LayerCount: 2
Fore
SplineSet
811 228 m 0,0,1
 811 143 811 143 758 87 c 128,-1,2
 705 31 705 31 626 8.5 c 128,-1,3
 547 -14 547 -14 447 -14 c 0,4,5
 284 -14 284 -14 197 73 c 1,6,-1
 197 0 l 1,7,-1
 129 0 l 1,8,-1
 129 268 l 1,9,-1
 197 268 l 1,10,-1
 197 168 l 1,11,12
 253 53 253 53 450 53.5 c 128,-1,13
 647 54 647 54 710 148 c 0,14,15
 731 180 731 180 731 243 c 0,16,17
 731 369 731 369 522 392.5 c 128,-1,18
 313 416 313 416 223 461 c 128,-1,19
 133 506 133 506 133 620 c 0,20,21
 132 792 132 792 320 840 c 0,22,23
 374 854 374 854 430 853 c 1,24,25
 598 853 598 853 684 776 c 1,26,-1
 684 836 l 1,27,-1
 754 836 l 1,28,-1
 754 572 l 1,29,-1
 684 572 l 1,30,-1
 684 695 l 1,31,32
 610 786 610 786 452 786 c 128,-1,33
 294 786 294 786 235 696 c 0,34,35
 215 666 215 666 215 620 c 0,36,37
 215 538 215 538 308 504 c 0,38,39
 353 487 353 487 503.5 465.5 c 128,-1,40
 654 444 654 444 732.5 395 c 128,-1,41
 811 346 811 346 811 228 c 0,0,1
EndSplineSet
EndChar

StartChar: t
Encoding: 116 116 107
Width: 547
GlyphClass: 2
Flags: W
HStem: 0 60<269.941 456> 781 55<37 162 241 440>
VStem: 162 79<82.6562 781 836 1148>
LayerCount: 2
Fore
SplineSet
37 781 m 1,0,-1
 37 836 l 1,1,-1
 162 836 l 1,2,-1
 162 1148 l 1,3,-1
 241 1166 l 1,4,-1
 241 836 l 1,5,-1
 440 836 l 1,6,-1
 440 781 l 1,7,-1
 241 781 l 1,8,-1
 241 238 l 2,9,10
 241 135 241 135 262.5 97.5 c 128,-1,11
 284 60 284 60 378 60 c 2,12,-1
 456 60 l 1,13,-1
 456 0 l 1,14,-1
 375 0 l 2,15,16
 178 0 178 0 166 160 c 0,17,18
 162 204 162 204 162 250 c 2,19,-1
 162 781 l 1,20,-1
 37 781 l 1,0,-1
EndSplineSet
EndChar

StartChar: u
Encoding: 117 117 108
Width: 1102
GlyphClass: 2
Flags: W
HStem: -14 67<329.175 613.522 863 1036> 776 60<14 189 610 784>
VStem: 189 79<105.511 776> 784 79<151.555 776>
LayerCount: 2
Fore
SplineSet
268 239 m 2,0,1
 268 141 268 141 314 98 c 128,-1,2
 360 55 360 55 459 53 c 1,3,4
 594 53 594 53 784 173 c 1,5,-1
 784 776 l 1,6,-1
 610 776 l 1,7,-1
 610 836 l 1,8,-1
 863 836 l 1,9,-1
 863 58 l 1,10,-1
 1036 58 l 1,11,-1
 1036 0 l 1,12,-1
 796 0 l 1,13,-1
 788 104 l 1,14,15
 634 12 634 12 566.5 -1 c 128,-1,16
 499 -14 499 -14 406 -14 c 0,17,18
 314 -14 314 -14 251.5 56.5 c 128,-1,19
 189 127 189 127 189 223 c 2,20,-1
 189 776 l 1,21,-1
 14 776 l 1,22,-1
 14 836 l 1,23,-1
 268 836 l 1,24,-1
 268 239 l 2,0,1
EndSplineSet
EndChar

StartChar: v
Encoding: 118 118 109
Width: 1032
GlyphClass: 2
Flags: W
HStem: 0 21G<468.186 575.247> 776 60<-29 135 217 369 654 797 887 1046>
DStem2: 217 776 135 776 0.403292 -0.915071<0 766.919> 519 71 567 0 0.381229 0.924481<0 757.741>
LayerCount: 2
Fore
SplineSet
217 776 m 1,0,-1
 519 71 l 1,1,-1
 797 776 l 1,2,-1
 654 776 l 1,3,-1
 654 836 l 1,4,-1
 1046 836 l 1,5,-1
 1046 776 l 1,6,-1
 887 776 l 1,7,-1
 567 0 l 1,8,-1
 477 0 l 1,9,-1
 135 776 l 1,10,-1
 -29 776 l 1,11,-1
 -29 836 l 1,12,-1
 369 836 l 1,13,-1
 369 776 l 1,14,-1
 217 776 l 1,0,-1
EndSplineSet
EndChar

StartChar: w
Encoding: 119 119 110
Width: 1554
GlyphClass: 2
Flags: W
HStem: 0 21G<411.784 516.465 1029.59 1134.19> 776 60<-25 139 217 370 581 724 815 961 1174 1316 1406 1566>
DStem2: 217 776 139 776 0.339406 -0.94064<0 752.289> 463 65 509 0 0.349677 0.93687<0 713.031> 815 776 774 710 0.346928 -0.937892<47.6768 758.083> 1078 65 1127 0 0.338333 0.941026<0 749.593>
LayerCount: 2
Fore
SplineSet
217 776 m 1,0,-1
 463 65 l 1,1,-1
 724 776 l 1,2,-1
 581 776 l 1,3,-1
 581 836 l 1,4,-1
 961 836 l 1,5,-1
 961 776 l 1,6,-1
 815 776 l 1,7,-1
 1078 65 l 1,8,-1
 1316 776 l 1,9,-1
 1174 776 l 1,10,-1
 1174 836 l 1,11,-1
 1566 836 l 1,12,-1
 1566 776 l 1,13,-1
 1406 776 l 1,14,-1
 1127 0 l 1,15,-1
 1037 0 l 1,16,-1
 774 710 l 1,17,-1
 509 0 l 1,18,-1
 419 0 l 1,19,-1
 139 776 l 1,20,-1
 -25 776 l 1,21,-1
 -25 836 l 1,22,-1
 370 836 l 1,23,-1
 370 776 l 1,24,-1
 217 776 l 1,0,-1
EndSplineSet
EndChar

StartChar: x
Encoding: 120 120 111
Width: 1182
GlyphClass: 2
Flags: W
HStem: 0 60<76 226 321 459 689 853 933 1084> 776 60<100 249 327 484 676 824 914 1073>
DStem2: 226 60 321 60 0.641028 0.767518<60.8976 473.559 548.126 932.877> 327 776 249 776 0.646038 -0.763305<0 386.685 469.827 886.343>
LayerCount: 2
Fore
SplineSet
327 776 m 1,0,-1
 577 481 l 1,1,-1
 824 776 l 1,2,-1
 676 776 l 1,3,-1
 676 836 l 1,4,-1
 1073 836 l 1,5,-1
 1073 776 l 1,6,-1
 914 776 l 1,7,-1
 623 426 l 1,8,-1
 933 60 l 1,9,-1
 1084 60 l 1,10,-1
 1084 0 l 1,11,-1
 689 0 l 1,12,-1
 689 60 l 1,13,-1
 853 60 l 1,14,-1
 584 378 l 1,15,-1
 321 60 l 1,16,-1
 459 60 l 1,17,-1
 459 0 l 1,18,-1
 76 0 l 1,19,-1
 76 60 l 1,20,-1
 226 60 l 1,21,-1
 537 433 l 1,22,-1
 249 776 l 1,23,-1
 100 776 l 1,24,-1
 100 836 l 1,25,-1
 484 836 l 1,26,-1
 484 776 l 1,27,-1
 327 776 l 1,0,-1
EndSplineSet
EndChar

StartChar: y
Encoding: 121 121 112
Width: 1026
GlyphClass: 2
Flags: W
HStem: -274 68<139 381.415> 776 60<-33 131 218 366 650 793 884 1043>
DStem2: 218 776 131 776 0.407083 -0.913391<0 749.218> 507 58 510 -127 0.382653 0.923892<-275.716 0 32.4672 772.793>
LayerCount: 2
Fore
SplineSet
139 -206 m 1,0,1
 282 -206 282 -206 343.5 -191 c 128,-1,2
 405 -176 405 -176 437 -104 c 2,3,-1
 507 58 l 1,4,-1
 451 58 l 1,5,-1
 131 776 l 1,6,-1
 -33 776 l 1,7,-1
 -33 836 l 1,8,-1
 366 836 l 1,9,-1
 366 776 l 1,10,-1
 218 776 l 1,11,-1
 517 89 l 1,12,-1
 793 776 l 1,13,-1
 650 776 l 1,14,-1
 650 836 l 1,15,-1
 1043 836 l 1,16,-1
 1043 776 l 1,17,-1
 884 776 l 1,18,-1
 510 -127 l 1,19,20
 450 -266 450 -266 264 -272 c 0,21,22
 206 -274 206 -274 139 -274 c 1,23,-1
 139 -206 l 1,0,1
EndSplineSet
EndChar

StartChar: z
Encoding: 122 122 113
Width: 909
GlyphClass: 2
Flags: W
HStem: 0 58<196 714> 776 60<211 682>
VStem: 142 69<583 776> 714 69<58 277>
DStem2: 106 67 196 58 0.630551 0.776147<49.7643 913.486>
LayerCount: 2
Fore
SplineSet
106 0 m 1,0,-1
 106 67 l 1,1,-1
 682 776 l 1,2,-1
 211 776 l 1,3,-1
 211 583 l 1,4,-1
 142 583 l 1,5,-1
 142 836 l 1,6,-1
 765 836 l 1,7,-1
 765 764 l 1,8,-1
 196 58 l 1,9,-1
 714 58 l 1,10,-1
 714 277 l 1,11,-1
 783 277 l 1,12,-1
 783 0 l 1,13,-1
 106 0 l 1,0,-1
EndSplineSet
EndChar

StartChar: braceleft
Encoding: 123 123 114
Width: 555
GlyphClass: 2
Flags: W
HStem: -23 54<346.883 475> 574 84<68 162.592> 1201 54<345.586 475>
VStem: 216 85<67.6276 548.797 681.487 1171.71>
CounterMasks: 1 e0
LayerCount: 2
Fore
SplineSet
301 212 m 0,0,1
 301 102 301 102 334.5 66.5 c 128,-1,2
 368 31 368 31 475 31 c 1,3,-1
 475 -23 l 1,4,-1
 410 -23 l 1,5,6
 225 -24 225 -24 218 184 c 0,7,8
 216 248 216 248 216 364 c 128,-1,9
 216 480 216 480 194 527 c 128,-1,10
 172 574 172 574 68 574 c 1,11,-1
 68 658 l 1,12,13
 172 658 172 658 194 705 c 128,-1,14
 216 752 216 752 216 926.5 c 128,-1,15
 216 1101 216 1101 238 1157 c 0,16,17
 276 1255 276 1255 410 1255 c 2,18,-1
 475 1255 l 1,19,-1
 475 1201 l 1,20,21
 367 1201 367 1201 334 1165.5 c 128,-1,22
 301 1130 301 1130 301 963 c 128,-1,23
 301 796 301 796 276 709 c 128,-1,24
 251 622 251 622 164 616 c 1,25,26
 285 608 285 608 297 392 c 0,27,28
 301 321 301 321 301 212 c 0,0,1
EndSplineSet
EndChar

StartChar: bar
Encoding: 124 124 115
Width: 426
GlyphClass: 2
Flags: W
HStem: -23 21G<178 246> 1235 20G<178 246>
VStem: 178 68<-23 1255>
LayerCount: 2
Fore
SplineSet
178 1255 m 1,0,-1
 246 1255 l 1,1,-1
 246 -23 l 1,2,-1
 178 -23 l 1,3,-1
 178 1255 l 1,0,-1
EndSplineSet
EndChar

StartChar: braceright
Encoding: 125 125 116
Width: 557
GlyphClass: 2
Flags: W
HStem: -23 54<86 215.875> 574 84<397.547 493> 1201 54<86 219.177>
VStem: 260 86<60.2856 550.513 683.203 1165.92>
CounterMasks: 1 e0
LayerCount: 2
Fore
SplineSet
260 1022 m 0,0,1
 260 1133 260 1133 227.5 1167 c 128,-1,2
 195 1201 195 1201 86 1201 c 1,3,-1
 86 1255 l 1,4,-1
 151 1255 l 1,5,6
 337 1256 337 1256 344 1048 c 0,7,8
 346 984 346 984 346 868 c 128,-1,9
 346 752 346 752 368 705 c 128,-1,10
 390 658 390 658 493 658 c 1,11,-1
 493 574 l 1,12,13
 390 574 390 574 368 527 c 128,-1,14
 346 480 346 480 346 305.5 c 128,-1,15
 346 131 346 131 324 75 c 0,16,17
 286 -23 286 -23 151 -23 c 2,18,-1
 86 -23 l 1,19,-1
 86 31 l 1,20,21
 194 31 194 31 227 66.5 c 128,-1,22
 260 102 260 102 260 269 c 128,-1,23
 260 436 260 436 286 523 c 128,-1,24
 312 610 312 610 397 616 c 1,25,26
 276 624 276 624 264 840 c 0,27,28
 260 912 260 912 260 1022 c 0,0,1
EndSplineSet
EndChar

StartChar: asciitilde
Encoding: 126 126 117
Width: 788
GlyphClass: 2
Flags: W
HStem: 1022 88<283.46 627.568> 1069 88<158.884 487.369>
VStem: 624 37<1125.91 1153>
LayerCount: 2
Fore
SplineSet
249 1157 m 0,0,1
 280 1157 280 1157 406 1133.5 c 128,-1,2
 532 1110 532 1110 561 1110 c 0,3,4
 609 1110 609 1110 624 1153 c 1,5,-1
 661 1153 l 1,6,7
 646 1022 646 1022 537 1022 c 0,8,9
 478 1022 478 1022 367 1045.5 c 128,-1,10
 256 1069 256 1069 215.5 1069 c 128,-1,11
 175 1069 175 1069 163 1028 c 1,12,-1
 125 1028 l 1,13,14
 140 1157 140 1157 249 1157 c 0,0,1
EndSplineSet
EndChar

StartChar: exclamdown
Encoding: 161 161 118
Width: 430
GlyphClass: 2
Flags: W
HStem: 0 21G<171 260> 1066 105<164 267>
VStem: 171 89<0 447.56 1066 1171>
LayerCount: 2
Fore
SplineSet
164 1171 m 1,0,-1
 267 1171 l 1,1,-1
 269 1066 l 1,2,-1
 164 1066 l 1,3,-1
 164 1171 l 1,0,-1
231 827 m 1,4,-1
 260 362 l 1,5,-1
 260 0 l 1,6,-1
 171 0 l 1,7,-1
 171 362 l 1,8,-1
 200 827 l 1,9,-1
 231 827 l 1,4,-1
EndSplineSet
EndChar

StartChar: cent
Encoding: 162 162 119
Width: 950
GlyphClass: 2
Flags: W
HStem: -14 68<411 671.708> 787 67<336.191 558>
VStem: 55 82<243.063 601.045> 268 63<-214 -151> 640 58<1006 1064> 760 76<600 710.75 750 860>
DStem2: 268 -214 331 -214 0.279481 0.960151<17.6073 240.971 309.48 1038.32 1106.58 1331.04>
LayerCount: 2
Fore
SplineSet
865 149 m 1,0,1
 702 -14 702 -14 494 -14 c 1,2,3
 439 -12 439 -12 392 -1 c 1,4,-1
 331 -214 l 1,5,-1
 268 -214 l 1,6,-1
 335 15 l 1,7,8
 142 86 142 86 76 278 c 0,9,10
 54 342 54 342 55 426 c 1,11,12
 55 608 55 608 174.5 729 c 128,-1,13
 294 850 294 850 498 854 c 0,14,15
 533 854 533 854 577 847 c 1,16,-1
 640 1064 l 1,17,-1
 698 1064 l 1,18,-1
 632 834 l 1,19,20
 724 807 724 807 760 750 c 1,21,-1
 760 860 l 1,22,-1
 836 860 l 1,23,-1
 836 600 l 1,24,-1
 770 600 l 1,25,26
 754 735 754 735 614 773 c 1,27,-1
 411 65 l 1,28,29
 455 54 455 54 498 54 c 0,30,31
 714 54 714 54 842 222 c 1,32,-1
 865 149 l 1,0,1
558 783 m 1,33,34
 530 787 530 787 479 787 c 0,35,36
 349 787 349 787 243 689.5 c 128,-1,37
 137 592 137 592 137 414 c 0,38,39
 137 298 137 298 196 210.5 c 128,-1,40
 255 123 255 123 355 83 c 1,41,-1
 558 783 l 1,33,34
EndSplineSet
EndChar

StartChar: sterling
Encoding: 163 163 120
Width: 1096
GlyphClass: 2
Flags: W
HStem: -47 51<169.753 354.489> -29 73<633.667 899.731> 244 56<168.022 392.349> 562 49<184 407 523 882> 1189 66<487.382 793.149>
VStem: 49 70<42.1748 203.625> 291 87<777.949 1101.66> 491 78<204.836 510.789> 883 76<968 1106.93> 965 53<130.193 262>
DStem2: 460 698 366 690 0.418659 -0.908144<-263.733 56.8196>
LayerCount: 2
Fore
SplineSet
291 960 m 0,0,1
 291 1096 291 1096 389.5 1175.5 c 128,-1,2
 488 1255 488 1255 638 1255 c 0,3,4
 790 1255 790 1255 874.5 1182 c 128,-1,5
 959 1109 959 1109 959 968 c 1,6,-1
 883 968 l 1,7,8
 883 1189 883 1189 649 1189 c 0,9,10
 378 1189 378 1189 378 954 c 0,11,12
 378 846 378 846 460 698 c 0,13,14
 483 656 483 656 507 611 c 1,15,-1
 882 611 l 1,16,-1
 882 562 l 1,17,-1
 523 562 l 1,18,19
 569 432 569 432 569 333 c 128,-1,20
 569 234 569 234 543 156 c 1,21,22
 630 44 630 44 780 44 c 0,23,24
 965 44 965 44 965 262 c 1,25,-1
 1015 262 l 1,26,27
 1018 239 1018 239 1018 173.5 c 128,-1,28
 1018 108 1018 108 958 39.5 c 128,-1,29
 898 -29 898 -29 763 -29 c 128,-1,30
 628 -29 628 -29 526 107 c 1,31,32
 461 -47 461 -47 255 -47 c 128,-1,33
 49 -47 49 -47 49 127 c 0,34,35
 49 215 49 215 117 257.5 c 128,-1,36
 185 300 185 300 294 300 c 0,37,38
 410 300 410 300 481 204 c 1,39,40
 491 252 491 252 491 336.5 c 128,-1,41
 491 421 491 421 432 562 c 1,42,-1
 184 562 l 1,43,-1
 184 611 l 1,44,-1
 407 611 l 1,45,46
 387 650 387 650 366 690 c 0,47,48
 291 833 291 833 291 960 c 0,0,1
281 244 m 0,49,50
 119 244 119 244 119 109 c 0,51,52
 119 65 119 65 172 27 c 0,53,54
 197 8 197 8 229.5 4 c 128,-1,55
 262 0 262 0 294.5 8 c 128,-1,56
 327 16 327 16 353.5 27.5 c 128,-1,57
 380 39 380 39 404 54 c 0,58,59
 449 84 449 84 466 154 c 1,60,61
 393 244 393 244 281 244 c 0,49,50
EndSplineSet
EndChar

StartChar: currency
Encoding: 164 164 121
Width: 1073
GlyphClass: 2
Flags: W
HStem: 587 93<378.464 697.117> 1247 97<370.106 688.334>
VStem: 147 106<802.378 1129.4> 817 102<800.442 1125.92>
LayerCount: 2
Fore
SplineSet
743 647 m 1,0,1
 657 587 657 587 538 587 c 128,-1,2
 419 587 419 587 327 646 c 1,3,-1
 221 541 l 1,4,-1
 139 623 l 1,5,-1
 237 721 l 1,6,7
 147 829 147 829 147 969.5 c 128,-1,8
 147 1110 147 1110 235 1208 c 1,9,-1
 139 1306 l 1,10,-1
 221 1388 l 1,11,-1
 325 1285 l 1,12,13
 417 1344 417 1344 534.5 1344 c 128,-1,14
 652 1344 652 1344 746 1283 c 1,15,-1
 851 1388 l 1,16,-1
 934 1306 l 1,17,-1
 835 1206 l 1,18,19
 919 1098 919 1098 919 965 c 0,20,21
 919 828 919 828 832 724 c 1,22,-1
 934 623 l 1,23,-1
 851 541 l 1,24,-1
 743 647 l 1,0,1
532 1247 m 0,25,26
 410 1247 410 1247 331.5 1171.5 c 128,-1,27
 253 1096 253 1096 253 965 c 0,28,29
 253 830 253 830 339 755 c 128,-1,30
 425 680 425 680 508 680 c 0,31,32
 817 680 817 680 817 991 c 0,33,34
 817 1096 817 1096 730.5 1171.5 c 128,-1,35
 644 1247 644 1247 532 1247 c 0,25,26
EndSplineSet
EndChar

StartChar: yen
Encoding: 165 165 122
Width: 1266
GlyphClass: 2
Flags: W
HStem: 0 62<435 596 678 838> 226 62<265 596 678 1014> 433 63<265 560 714 1014> 1171 63<-4 154 242 399 870 1029 1117 1273>
VStem: 596 82<62 226 288 433>
DStem2: 242 1171 154 1171 0.515429 -0.856932<0 742.336> 639 508 714 496 0.512624 0.858613<28.1434 769.184>
LayerCount: 2
Fore
SplineSet
1014 226 m 1,0,-1
 678 226 l 1,1,-1
 678 62 l 1,2,-1
 838 62 l 1,3,-1
 838 0 l 1,4,-1
 435 0 l 1,5,-1
 435 62 l 1,6,-1
 596 62 l 1,7,-1
 596 226 l 1,8,-1
 265 226 l 1,9,-1
 265 288 l 1,10,-1
 596 288 l 1,11,-1
 596 433 l 1,12,-1
 265 433 l 1,13,-1
 265 496 l 1,14,-1
 560 496 l 1,15,-1
 154 1171 l 1,16,-1
 -4 1171 l 1,17,-1
 -4 1234 l 1,18,-1
 399 1234 l 1,19,-1
 399 1171 l 1,20,-1
 242 1171 l 1,21,-1
 639 508 l 1,22,-1
 1029 1171 l 1,23,-1
 870 1171 l 1,24,-1
 870 1234 l 1,25,-1
 1273 1234 l 1,26,-1
 1273 1171 l 1,27,-1
 1117 1171 l 1,28,-1
 714 496 l 1,29,-1
 1014 496 l 1,30,-1
 1014 433 l 1,31,-1
 678 433 l 1,32,-1
 678 288 l 1,33,-1
 1014 288 l 1,34,-1
 1014 226 l 1,0,-1
EndSplineSet
EndChar

StartChar: brokenbar
Encoding: 166 166 123
Width: 414
GlyphClass: 2
Flags: W
HStem: -23 21G<172 240> 1235 20G<172 240>
VStem: 172 68<-23 517 715 1255>
LayerCount: 2
Fore
SplineSet
172 1255 m 1,0,-1
 240 1255 l 1,1,-1
 240 715 l 1,2,-1
 172 715 l 1,3,-1
 172 1255 l 1,0,-1
172 517 m 1,4,-1
 240 517 l 1,5,-1
 240 -23 l 1,6,-1
 172 -23 l 1,7,-1
 172 517 l 1,4,-1
EndSplineSet
EndChar

StartChar: section
Encoding: 167 167 124
Width: 963
GlyphClass: 2
Flags: W
HStem: 37 67<312.227 666.166> 1074 67<305.124 632.929>
VStem: 152 68<52 125 174.801 283> 156 82<533.344 729.079 859.969 1022.76> 707 70<896 1016.21 1064 1124> 749 77<168.041 332.204 463.95 659.436>
LayerCount: 2
Fore
SplineSet
512 104 m 0,0,1
 610 104 610 104 679.5 143.5 c 128,-1,2
 749 183 749 183 749 258 c 1,3,4
 748 328 748 328 656 364 c 0,5,6
 604 384 604 384 458 405 c 128,-1,7
 312 426 312 426 234 467.5 c 128,-1,8
 156 509 156 509 156 618 c 128,-1,9
 156 727 156 727 261 782 c 1,10,11
 156 836 156 836 156 944 c 0,12,13
 156 1090 156 1090 344 1130 c 0,14,15
 398 1142 398 1142 453 1141 c 1,16,17
 621 1141 621 1141 707 1064 c 1,18,-1
 707 1124 l 1,19,-1
 777 1124 l 1,20,-1
 777 896 l 1,21,-1
 707 896 l 1,22,-1
 707 983 l 1,23,24
 633 1074 633 1074 474.5 1074 c 128,-1,25
 316 1074 316 1074 258 1004 c 0,26,27
 238 980 238 980 238 940 c 0,28,29
 238 866 238 866 331 832 c 0,30,31
 376 815 376 815 526 794 c 128,-1,32
 676 773 676 773 755 728.5 c 128,-1,33
 834 684 834 684 833 573.5 c 128,-1,34
 832 463 832 463 730 407 c 1,35,36
 826 352 826 352 826 248 c 0,37,38
 826 108 826 108 650 56 c 0,39,40
 588 38 588 38 498 37 c 1,41,42
 308 37 308 37 220 125 c 1,43,-1
 220 52 l 1,44,-1
 152 52 l 1,45,-1
 152 283 l 1,46,-1
 220 283 l 1,47,-1
 220 220 l 1,48,49
 276 104 276 104 512 104 c 0,0,1
674 439 m 1,50,51
 754 475 754 475 754 569 c 0,52,53
 754 675 754 675 594 710 c 0,54,55
 575 714 575 714 463.5 731.5 c 128,-1,56
 352 749 352 749 324 758 c 1,57,58
 238 725 238 725 238 614 c 0,59,60
 238 572 238 572 268 542.5 c 128,-1,61
 298 513 298 513 352 497 c 128,-1,62
 406 481 406 481 458 472 c 128,-1,63
 510 463 510 463 576 454.5 c 128,-1,64
 642 446 642 446 674 439 c 1,50,51
EndSplineSet
EndChar

StartChar: dieresis
Encoding: 168 168 125
Width: 608
GlyphClass: 2
Flags: W
HStem: 940 106<131 231 373 473>
VStem: 131 100<940 1046> 373 100<940 1046>
LayerCount: 2
Fore
SplineSet
473 1046 m 1,0,-1
 473 940 l 1,1,-1
 373 940 l 1,2,-1
 373 1046 l 1,3,-1
 473 1046 l 1,0,-1
231 1046 m 1,4,-1
 231 940 l 1,5,-1
 131 940 l 1,6,-1
 131 1046 l 1,7,-1
 231 1046 l 1,4,-1
EndSplineSet
EndChar

StartChar: copyright
Encoding: 169 169 126
Width: 1458
GlyphClass: 2
Flags: W
HStem: -23 57<527.834 919.376> 242 64<599.363 891.895> 910 67<582.838 880.928> 1199 59<527.701 925.348>
VStem: 86 72<396.427 827.788> 357 76<445.88 761.61> 945 71<754 855.004 895 977> 1299 71<409.904 822.973>
LayerCount: 2
Fore
SplineSet
1040 379 m 1,0,1
 904 241 904 241 740 242 c 0,2,3
 660 242 660 242 589.5 269 c 128,-1,4
 519 296 519 296 468 342.5 c 128,-1,5
 417 389 417 389 387 456.5 c 128,-1,6
 357 524 357 524 357 602 c 0,7,8
 357 854 357 854 574 942 c 0,9,10
 643 970 643 970 766.5 971 c 128,-1,11
 890 972 890 972 945 895 c 1,12,-1
 945 977 l 1,13,-1
 1016 977 l 1,14,-1
 1016 754 l 1,15,-1
 955 754 l 1,16,17
 938 910 938 910 735.5 910 c 128,-1,18
 533 910 533 910 458 735 c 0,19,20
 433 677 433 677 433 572.5 c 128,-1,21
 433 468 433 468 521 387.5 c 128,-1,22
 609 307 609 307 760 306 c 128,-1,23
 911 305 911 305 1018 448 c 1,24,-1
 1040 379 l 1,0,1
308.5 1024 m 128,-1,26
 158 849 158 849 158 612 c 128,-1,27
 158 375 158 375 306.5 204.5 c 128,-1,28
 455 34 455 34 724.5 34 c 128,-1,29
 994 34 994 34 1146.5 207.5 c 128,-1,30
 1299 381 1299 381 1299 617 c 0,31,32
 1299 849 1299 849 1146.5 1024 c 128,-1,33
 994 1199 994 1199 726.5 1199 c 128,-1,25
 459 1199 459 1199 308.5 1024 c 128,-1,26
728 -23 m 0,34,35
 324 -23 324 -23 158 308 c 0,36,37
 86 451 86 451 86 616 c 0,38,39
 86 873 86 873 255 1065.5 c 128,-1,40
 424 1258 424 1258 728 1258 c 0,41,42
 1132 1258 1132 1258 1298 925 c 0,43,44
 1370 782 1370 782 1370 616 c 0,45,46
 1370 358 1370 358 1201.5 167.5 c 128,-1,47
 1033 -23 1033 -23 728 -23 c 0,34,35
EndSplineSet
EndChar

StartChar: ordfeminine
Encoding: 170 170 127
Width: 805
GlyphClass: 2
Flags: W
HStem: 641 65<225.114 472.13 604 710> 932 64<230.259 528.684> 1192 63<234.679 491.542>
VStem: 123 74<731.172 902.743> 531 73<746.283 924.251 978 1157.23> 542 168<650 708>
LayerCount: 2
Fore
SplineSet
332 641 m 0,0,1
 232 641 232 641 177.5 690.5 c 128,-1,2
 123 740 123 740 123 835 c 0,3,4
 123 996 123 996 352 996 c 0,5,6
 443 996 443 996 531 978 c 1,7,-1
 531 1055 l 2,8,9
 531 1192 531 1192 390 1192 c 128,-1,10
 249 1192 249 1192 183 1123 c 1,11,-1
 147 1181 l 1,12,13
 223 1255 223 1255 392 1255 c 0,14,15
 494 1255 494 1255 549 1207.5 c 128,-1,16
 604 1160 604 1160 604 1067 c 2,17,-1
 604 710 l 1,18,-1
 710 710 l 1,19,-1
 710 650 l 1,20,-1
 542 650 l 1,21,-1
 533 708 l 1,22,23
 435 641 435 641 332 641 c 0,0,1
384 932 m 0,24,25
 337 932 337 932 306 928 c 128,-1,26
 275 924 275 924 248.5 912 c 128,-1,27
 222 900 222 900 209.5 876.5 c 128,-1,28
 197 853 197 853 197 817 c 0,29,30
 197 706 197 706 326.5 706 c 128,-1,31
 456 706 456 706 531 772 c 1,32,-1
 531 917 l 1,33,34
 471 932 471 932 384 932 c 0,24,25
EndSplineSet
EndChar

StartChar: guillemotleft
Encoding: 171 171 128
Width: 778
GlyphClass: 2
Flags: W
VStem: 76 588
LayerCount: 2
Fore
SplineSet
616 1043 m 1,0,-1
 664 1043 l 1,1,-1
 451 664 l 1,2,-1
 664 281 l 1,3,-1
 616 281 l 1,4,-1
 343 664 l 1,5,-1
 616 1043 l 1,0,-1
348 1043 m 1,6,-1
 396 1043 l 1,7,-1
 184 664 l 1,8,-1
 396 281 l 1,9,-1
 348 281 l 1,10,-1
 76 664 l 1,11,-1
 348 1043 l 1,6,-1
EndSplineSet
EndChar

StartChar: logicalnot
Encoding: 172 172 129
Width: 987
GlyphClass: 2
Flags: W
HStem: 617 80<100 761>
VStem: 761 77<304 617>
LayerCount: 2
Fore
SplineSet
838 697 m 1,0,-1
 838 304 l 1,1,-1
 761 304 l 1,2,-1
 761 617 l 1,3,-1
 100 617 l 1,4,-1
 100 697 l 1,5,-1
 838 697 l 1,0,-1
EndSplineSet
EndChar

StartChar: registered
Encoding: 174 174 131
Width: 1458
GlyphClass: 2
Flags: W
HStem: -23 57<527.834 919.376> 258 58<411 497 566 662 970 1072> 590 58<566 724> 931 57<404 497 566 876.275> 1199 59<527.701 925.348>
VStem: 86 72<396.427 827.788> 497 69<316 590 648 931> 933 65<696.825 878.98> 1299 71<409.904 822.973>
DStem2: 802 590 724 590 0.510299 -0.859997<0 321.369>
LayerCount: 2
Fore
SplineSet
998 791 m 0,0,1
 998 706 998 706 943 651 c 128,-1,2
 888 596 888 596 802 590 c 1,3,-1
 970 316 l 1,4,-1
 1072 316 l 1,5,-1
 1072 258 l 1,6,-1
 921 258 l 1,7,-1
 724 590 l 1,8,-1
 566 590 l 1,9,-1
 566 316 l 1,10,-1
 662 316 l 1,11,-1
 662 258 l 1,12,-1
 411 258 l 1,13,-1
 411 316 l 1,14,-1
 497 316 l 1,15,-1
 497 931 l 1,16,-1
 404 931 l 1,17,-1
 404 988 l 1,18,-1
 782 988 l 2,19,20
 875 988 875 988 936.5 933 c 128,-1,21
 998 878 998 878 998 791 c 0,0,1
782 648 m 2,22,23
 853 648 853 648 893 688 c 128,-1,24
 933 728 933 728 933 804 c 0,25,26
 933 846 933 846 892.5 888.5 c 128,-1,27
 852 931 852 931 782 931 c 2,28,-1
 566 931 l 1,29,-1
 566 648 l 1,30,-1
 782 648 l 2,22,23
308.5 1024 m 128,-1,32
 158 849 158 849 158 612 c 128,-1,33
 158 375 158 375 306.5 204.5 c 128,-1,34
 455 34 455 34 724.5 34 c 128,-1,35
 994 34 994 34 1146.5 207.5 c 128,-1,36
 1299 381 1299 381 1299 617 c 0,37,38
 1299 849 1299 849 1146.5 1024 c 128,-1,39
 994 1199 994 1199 726.5 1199 c 128,-1,31
 459 1199 459 1199 308.5 1024 c 128,-1,32
728 -23 m 0,40,41
 324 -23 324 -23 158 308 c 0,42,43
 86 451 86 451 86 616 c 0,44,45
 86 873 86 873 255 1065.5 c 128,-1,46
 424 1258 424 1258 728 1258 c 0,47,48
 1132 1258 1132 1258 1298 925 c 0,49,50
 1370 782 1370 782 1370 616 c 0,51,52
 1370 358 1370 358 1201.5 167.5 c 128,-1,53
 1033 -23 1033 -23 728 -23 c 0,40,41
EndSplineSet
EndChar

StartChar: macron
Encoding: 175 175 132
Width: 662
GlyphClass: 2
Flags: W
HStem: 1058 65<131 522>
VStem: 131 391<1058 1123>
LayerCount: 2
Fore
SplineSet
131 1123 m 1,0,-1
 522 1123 l 1,1,-1
 522 1058 l 1,2,-1
 131 1058 l 1,3,-1
 131 1123 l 1,0,-1
EndSplineSet
EndChar

StartChar: degree
Encoding: 176 176 133
Width: 813
GlyphClass: 2
Flags: W
HStem: 768 97<261.423 531.475> 1239 97<262.525 532.577>
VStem: 90 111<924.545 1180.03> 593 111<923.969 1179.45>
LayerCount: 2
Fore
SplineSet
593 1052 m 1,0,1
 593 1137 593 1137 541 1188 c 128,-1,2
 489 1239 489 1239 397 1239 c 1,3,4
 309 1240 309 1240 256 1191 c 128,-1,5
 203 1142 203 1142 201 1052 c 1,6,7
 201 967 201 967 253 916 c 128,-1,8
 305 865 305 865 397 865 c 1,9,10
 485 864 485 864 538 913 c 128,-1,11
 591 962 591 962 593 1052 c 1,0,1
397 768 m 256,12,13
 275 768 275 768 210 822 c 0,14,15
 90 920 90 920 90 1052 c 0,16,17
 90 1185 90 1185 182.5 1260.5 c 128,-1,18
 275 1336 275 1336 397 1336 c 256,19,20
 519 1336 519 1336 584 1282 c 0,21,22
 704 1184 704 1184 704 1052 c 0,23,24
 704 919 704 919 611.5 843.5 c 128,-1,25
 519 768 519 768 397 768 c 256,12,13
EndSplineSet
EndChar

StartChar: plusminus
Encoding: 177 177 134
Width: 901
GlyphClass: 2
Flags: W
HStem: 0 62<66 840> 534 64<68 424 486 842>
VStem: 424 62<138 534 598 982>
LayerCount: 2
Fore
SplineSet
840 0 m 1,0,-1
 66 0 l 1,1,-1
 66 62 l 1,2,-1
 840 62 l 1,3,-1
 840 0 l 1,0,-1
486 598 m 1,4,-1
 842 598 l 1,5,-1
 842 534 l 1,6,-1
 486 534 l 1,7,-1
 486 138 l 1,8,-1
 424 138 l 1,9,-1
 424 534 l 1,10,-1
 68 534 l 1,11,-1
 68 598 l 1,12,-1
 424 598 l 1,13,-1
 424 982 l 1,14,-1
 486 982 l 1,15,-1
 486 598 l 1,4,-1
EndSplineSet
EndChar

StartChar: twosuperior
Encoding: 178 178 135
Width: 811
GlyphClass: 2
Flags: W
HStem: 0 72<241 639> 812 69<297.515 543.355>
VStem: 151 73<535 744.591> 602 78<525.654 758.234>
LayerCount: 2
Fore
SplineSet
151 656 m 0,0,1
 151 741 151 741 227 811 c 128,-1,2
 303 881 303 881 390 881 c 0,3,4
 680 881 680 881 680 631 c 0,5,6
 680 473 680 473 339 164 c 0,7,8
 271 102 271 102 241 72 c 1,9,-1
 639 72 l 1,10,-1
 639 0 l 1,11,-1
 133 0 l 1,12,-1
 133 70 l 1,13,14
 151 88 151 88 193 125 c 0,15,16
 602 485 602 485 602 635 c 0,17,18
 602 812 602 812 418 812 c 0,19,20
 334 812 334 812 279 764 c 128,-1,21
 224 716 224 716 224 631 c 0,22,23
 224 595 224 595 237 535 c 1,24,-1
 159 535 l 1,25,26
 151 570 151 570 151 656 c 0,0,1
EndSplineSet
EndChar

StartChar: threesuperior
Encoding: 179 179 136
Width: 811
GlyphClass: 2
Flags: W
HStem: -12 64<254.18 511.18> 424 74<284 534.59> 812 70<242.885 513.911>
VStem: 589 78<548.046 747.279> 606 76<134.645 363.177>
LayerCount: 2
Fore
SplineSet
589 652 m 0,0,1
 589 725 589 725 527.5 768.5 c 128,-1,2
 466 812 466 812 382 812 c 0,3,4
 232 812 232 812 175 702 c 1,5,-1
 109 732 l 1,6,7
 186 882 186 882 384 882 c 0,8,9
 493 882 493 882 555 837 c 0,10,11
 667 756 667 756 667 637 c 128,-1,12
 667 518 667 518 538 464 c 1,13,14
 682 411 682 411 682 250 c 0,15,16
 682 172 682 172 638.5 111 c 128,-1,17
 595 50 595 50 524.5 18.5 c 128,-1,18
 454 -13 454 -13 372 -12 c 1,19,20
 283 -12 283 -12 205 36.5 c 128,-1,21
 127 85 127 85 92 161 c 1,22,-1
 152 200 l 1,23,24
 223 53 223 53 376 52 c 0,25,26
 442 52 442 52 493 74 c 128,-1,27
 544 96 544 96 575 143.5 c 128,-1,28
 606 191 606 191 606 258 c 0,29,30
 606 308 606 308 585 342 c 128,-1,31
 564 376 564 376 523 393 c 128,-1,32
 482 410 482 410 434 417 c 128,-1,33
 386 424 386 424 320 424 c 2,34,-1
 284 424 l 1,35,-1
 284 498 l 1,36,-1
 318 498 l 2,37,38
 490 498 490 498 539.5 537.5 c 128,-1,39
 589 577 589 577 589 652 c 0,0,1
EndSplineSet
EndChar

StartChar: acute
Encoding: 180 180 137
Width: 414
GlyphClass: 2
Flags: W
HStem: 985 249
VStem: 125 185
LayerCount: 2
Fore
SplineSet
125 985 m 1,0,-1
 184 1234 l 1,1,-1
 310 1234 l 1,2,-1
 156 985 l 1,3,-1
 125 985 l 1,0,-1
EndSplineSet
EndChar

StartChar: mu
Encoding: 181 181 138
AltUni2: 0003bc.ffffffff.0
Width: 1190
GlyphClass: 2
Flags: W
HStem: -14 67<399.198 683.522 933 1106> 776 60<84 259 680 854>
VStem: 259 80<-232 40 104.805 776> 854 79<151.555 776>
LayerCount: 2
Fore
SplineSet
529 53 m 0,0,1
 664 53 664 53 854 173 c 1,2,-1
 854 776 l 1,3,-1
 680 776 l 1,4,-1
 680 836 l 1,5,-1
 933 836 l 1,6,-1
 933 58 l 1,7,-1
 1106 58 l 1,8,-1
 1106 0 l 1,9,-1
 866 0 l 1,10,-1
 858 104 l 1,11,12
 704 12 704 12 636.5 -1 c 128,-1,13
 569 -14 569 -14 487.5 -14 c 128,-1,14
 406 -14 406 -14 339 40 c 1,15,-1
 339 -232 l 1,16,-1
 259 -232 l 1,17,-1
 259 776 l 1,18,-1
 84 776 l 1,19,-1
 84 836 l 1,20,-1
 338 836 l 1,21,-1
 339 208 l 1,22,23
 348 53 348 53 529 53 c 0,0,1
EndSplineSet
EndChar

StartChar: paragraph
Encoding: 182 182 139
Width: 1020
GlyphClass: 2
Flags: W
HStem: -23 21G<432 513 709 790> 661 573<206.519 432 513 709> 1171 63<790 956>
VStem: 57 733<803.63 1098.15> 432 81<-23 661> 709 81<-23 661>
LayerCount: 2
Fore
SplineSet
709 661 m 1,0,-1
 513 661 l 1,1,-1
 513 -23 l 1,2,-1
 432 -23 l 1,3,-1
 432 661 l 1,4,-1
 396 661 l 2,5,6
 237 661 237 661 147 749 c 128,-1,7
 57 837 57 837 57 952 c 128,-1,8
 57 1067 57 1067 147 1150.5 c 128,-1,9
 237 1234 237 1234 396 1234 c 2,10,-1
 956 1234 l 1,11,-1
 956 1171 l 1,12,-1
 790 1171 l 1,13,-1
 790 -23 l 1,14,-1
 709 -23 l 1,15,-1
 709 661 l 1,0,-1
EndSplineSet
EndChar

StartChar: periodcentered
Encoding: 183 183 140
Width: 369
GlyphClass: 2
Flags: W
HStem: 695 120<125 242>
VStem: 125 117<695 815>
LayerCount: 2
Fore
SplineSet
242 815 m 1,0,-1
 242 695 l 1,1,-1
 125 695 l 1,2,-1
 125 815 l 1,3,-1
 242 815 l 1,0,-1
EndSplineSet
EndChar

StartChar: cedilla
Encoding: 184 184 141
Width: 430
GlyphClass: 2
Flags: W
HStem: -276 52<101.546 229.939>
VStem: 232 104<-223.14 -153.214>
DStem2: 131 -144 200 -108 0.360645 0.932703<58.4618 160.823>
LayerCount: 2
Fore
SplineSet
336 -188 m 0,0,1
 336 -276 336 -276 201 -276 c 0,2,3
 152 -276 152 -276 100 -256 c 1,4,-1
 100 -210 l 1,5,6
 147 -224 147 -224 189.5 -224 c 128,-1,7
 232 -224 232 -224 232 -188.5 c 128,-1,8
 232 -153 232 -153 131 -144 c 1,9,-1
 189 6 l 1,10,-1
 239 6 l 1,11,-1
 200 -108 l 1,12,-1
 212 -108 l 2,13,14
 273 -108 273 -108 304.5 -136 c 128,-1,15
 336 -164 336 -164 336 -188 c 0,0,1
EndSplineSet
EndChar

StartChar: onesuperior
Encoding: 185 185 142
Width: 551
GlyphClass: 2
Flags: W
HStem: 0 61<127 248 322 439>
VStem: 248 74<61 787>
DStem2: 127 832 144 767 0.982471 0.186418<4.58486 110.49>
LayerCount: 2
Fore
SplineSet
439 61 m 1,0,-1
 439 0 l 1,1,-1
 127 0 l 1,2,-1
 127 61 l 1,3,-1
 248 61 l 1,4,-1
 248 787 l 1,5,-1
 144 767 l 1,6,-1
 127 832 l 1,7,-1
 322 869 l 1,8,-1
 322 61 l 1,9,-1
 439 61 l 1,0,-1
EndSplineSet
EndChar

StartChar: ordmasculine
Encoding: 186 186 143
Width: 874
GlyphClass: 2
Flags: W
HStem: 641 65<311.995 567.066> 1192 63<307.674 556.125>
VStem: 117 74<810.595 1082.41> 682 73<817.907 1083.93>
LayerCount: 2
Fore
SplineSet
435 706 m 0,0,1
 550 706 550 706 616 776.5 c 128,-1,2
 682 847 682 847 682 976 c 1,3,4
 681 1034 681 1034 645.5 1084.5 c 128,-1,5
 610 1135 610 1135 553 1163.5 c 128,-1,6
 496 1192 496 1192 435 1192 c 0,7,8
 276 1192 276 1192 212 1055 c 0,9,10
 191 1010 191 1010 191 923 c 0,11,12
 191 834 191 834 265.5 770 c 128,-1,13
 340 706 340 706 435 706 c 0,0,1
660 723.5 m 128,-1,15
 565 641 565 641 435 641 c 1,16,17
 306 642 306 642 239 700 c 0,18,19
 117 805 117 805 117 949.5 c 128,-1,20
 117 1094 117 1094 211.5 1174.5 c 128,-1,21
 306 1255 306 1255 435 1255 c 0,22,23
 566 1256 566 1256 633 1198 c 0,24,25
 755 1093 755 1093 755 949.5 c 128,-1,14
 755 806 755 806 660 723.5 c 128,-1,15
EndSplineSet
EndChar

StartChar: guillemotright
Encoding: 187 187 144
Width: 778
GlyphClass: 2
Flags: W
VStem: 117 588
LayerCount: 2
Fore
SplineSet
437 664 m 1,0,-1
 165 281 l 1,1,-1
 117 281 l 1,2,-1
 329 664 l 1,3,-1
 117 1043 l 1,4,-1
 165 1043 l 1,5,-1
 437 664 l 1,0,-1
705 664 m 1,6,-1
 432 281 l 1,7,-1
 384 281 l 1,8,-1
 597 664 l 1,9,-1
 384 1043 l 1,10,-1
 432 1043 l 1,11,-1
 705 664 l 1,6,-1
EndSplineSet
EndChar

StartChar: onequarter
Encoding: 188 188 145
Width: 1348
GlyphClass: 2
Flags: W
HStem: -23 21G<409 489.759> 0 61<962 1074 1147 1259> 260 63<807 1074 1147 1325> 365 61<86 207 281 398> 1214 41G<175.595 281 775.178 852>
VStem: 207 74<426 1152> 409 75<-23 52> 781 71<1184 1255> 1074 73<61 260 323 768>
DStem2: 86 1197 103 1132 0.982471 0.186418<4.58486 110.49> 409 -23 484 -23 0.279481 0.960151<20.961 1331.04> 717 316 807 323 0.523579 0.851977<53.0859 572.011>
LayerCount: 2
Fore
SplineSet
398 426 m 1,0,-1
 398 365 l 1,1,-1
 86 365 l 1,2,-1
 86 426 l 1,3,-1
 207 426 l 1,4,-1
 207 1152 l 1,5,-1
 103 1132 l 1,6,-1
 86 1197 l 1,7,-1
 281 1234 l 1,8,-1
 281 426 l 1,9,-1
 398 426 l 1,0,-1
717 316 m 1,10,-1
 1055 866 l 1,11,-1
 1147 866 l 1,12,-1
 1147 323 l 1,13,-1
 1325 323 l 1,14,-1
 1325 260 l 1,15,-1
 1147 260 l 1,16,-1
 1147 61 l 1,17,-1
 1259 61 l 1,18,-1
 1259 0 l 1,19,-1
 962 0 l 1,20,-1
 962 61 l 1,21,-1
 1074 61 l 1,22,-1
 1074 260 l 1,23,-1
 726 260 l 1,24,-1
 717 316 l 1,10,-1
1074 323 m 1,25,-1
 1074 768 l 1,26,27
 1046 721 1046 721 952.5 566.5 c 128,-1,28
 859 412 859 412 807 323 c 1,29,-1
 1074 323 l 1,25,-1
781 1255 m 1,30,-1
 852 1255 l 1,31,-1
 484 -23 l 1,32,-1
 409 -23 l 1,33,-1
 781 1255 l 1,30,-1
EndSplineSet
EndChar

StartChar: onehalf
Encoding: 189 189 146
Width: 1339
GlyphClass: 2
Flags: W
HStem: -23 21G<370 450.759> 0 72<834 1232> 365 61<86 207 281 398> 812 69<886.931 1130.42> 1214 41G<175.595 281 736.178 813>
VStem: 207 74<426 1152> 370 75<-23 52> 742 71<1184 1255> 752 78<535 654.294> 1195 78<530.25 755.008>
DStem2: 86 1197 103 1132 0.982471 0.186418<4.58486 110.49> 370 -23 445 -23 0.279481 0.960151<20.961 1331.04>
LayerCount: 2
Fore
SplineSet
398 426 m 1,0,-1
 398 365 l 1,1,-1
 86 365 l 1,2,-1
 86 426 l 1,3,-1
 207 426 l 1,4,-1
 207 1152 l 1,5,-1
 103 1132 l 1,6,-1
 86 1197 l 1,7,-1
 281 1234 l 1,8,-1
 281 426 l 1,9,-1
 398 426 l 1,0,-1
1012 881 m 0,10,11
 1132 881 1132 881 1202.5 815 c 128,-1,12
 1273 749 1273 749 1273 631 c 0,13,14
 1273 473 1273 473 932 164 c 0,15,16
 864 102 864 102 834 72 c 1,17,-1
 1232 72 l 1,18,-1
 1232 0 l 1,19,-1
 726 0 l 1,20,-1
 726 70 l 1,21,22
 744 88 744 88 786 125 c 0,23,24
 1195 486 1195 486 1195 640 c 0,25,26
 1195 812 1195 812 988 812 c 0,27,28
 878 812 878 812 832 702 c 0,29,30
 807 640 807 640 830 535 c 1,31,-1
 752 535 l 1,32,33
 744 570 744 570 744 657 c 128,-1,34
 744 744 744 744 819 812.5 c 128,-1,35
 894 881 894 881 1012 881 c 0,10,11
742 1255 m 1,36,-1
 813 1255 l 1,37,-1
 445 -23 l 1,38,-1
 370 -23 l 1,39,-1
 742 1255 l 1,36,-1
EndSplineSet
EndChar

StartChar: threequarters
Encoding: 190 190 147
Width: 1600
GlyphClass: 2
Flags: W
HStem: -23 21G<644 724.759> 0 61<1173 1285 1358 1470> 260 63<1018 1285 1358 1536> 352 66<220.678 473.158> 789 74<250 497.833> 1177 70<208.885 480.026>
VStem: 555 78<913.339 1112.52> 572 76<500.861 716.16> 644 75<-23 52> 1016 71<1184 1255> 1285 73<61 260 323 768>
DStem2: 644 -23 719 -23 0.279481 0.960151<20.961 1331.04> 928 316 1018 323 0.523579 0.851977<53.0859 572.011>
LayerCount: 2
Fore
SplineSet
555 1001 m 0,0,1
 555 1085 555 1085 496.5 1131 c 128,-1,2
 438 1177 438 1177 348 1177 c 0,3,4
 198 1177 198 1177 141 1067 c 1,5,-1
 75 1097 l 1,6,7
 152 1247 152 1247 350 1247 c 0,8,9
 459 1247 459 1247 546 1184 c 128,-1,10
 633 1121 633 1121 633 1002 c 128,-1,11
 633 883 633 883 504 829 c 1,12,13
 648 776 648 776 648 595 c 0,14,15
 648 501 648 501 559 426.5 c 128,-1,16
 470 352 470 352 338 352 c 0,17,18
 249 352 249 352 171 400.5 c 128,-1,19
 93 449 93 449 58 526 c 1,20,-1
 118 565 l 1,21,22
 189 418 189 418 356 418 c 0,23,24
 439 418 439 418 505.5 472.5 c 128,-1,25
 572 527 572 527 572 603 c 0,26,27
 572 673 572 673 548 708.5 c 128,-1,28
 524 744 524 744 470 768 c 0,29,30
 419 790 419 790 286 789 c 1,31,-1
 250 789 l 1,32,-1
 250 863 l 1,33,-1
 284 863 l 1,34,35
 409 862 409 862 449 876 c 0,36,37
 555 911 555 911 555 1001 c 0,0,1
928 316 m 1,38,-1
 1266 866 l 1,39,-1
 1358 866 l 1,40,-1
 1358 323 l 1,41,-1
 1536 323 l 1,42,-1
 1536 260 l 1,43,-1
 1358 260 l 1,44,-1
 1358 61 l 1,45,-1
 1470 61 l 1,46,-1
 1470 0 l 1,47,-1
 1173 0 l 1,48,-1
 1173 61 l 1,49,-1
 1285 61 l 1,50,-1
 1285 260 l 1,51,-1
 937 260 l 1,52,-1
 928 316 l 1,38,-1
1285 323 m 1,53,-1
 1285 768 l 1,54,55
 1257 721 1257 721 1163.5 566.5 c 128,-1,56
 1070 412 1070 412 1018 323 c 1,57,-1
 1285 323 l 1,53,-1
1016 1255 m 1,58,-1
 1087 1255 l 1,59,-1
 719 -23 l 1,60,-1
 644 -23 l 1,61,-1
 1016 1255 l 1,58,-1
EndSplineSet
EndChar

StartChar: questiondown
Encoding: 191 191 148
Width: 692
GlyphClass: 2
Flags: W
HStem: -24 73<237.245 526.798> 1144 79<354 438>
VStem: 61 77<146.49 414.674> 354 84<1144 1223> 390 33<798.335 911>
LayerCount: 2
Fore
SplineSet
378 49 m 0,0,1
 561 49 561 49 622 196 c 1,2,-1
 683 160 l 1,3,4
 607 -23 607 -23 388 -24 c 0,5,6
 241 -24 241 -24 151 58.5 c 128,-1,7
 61 141 61 141 61 294 c 0,8,9
 61 380 61 380 98 434 c 128,-1,10
 135 488 135 488 213.5 556 c 128,-1,11
 292 624 292 624 336.5 699 c 128,-1,12
 381 774 381 774 390 911 c 1,13,-1
 423 911 l 1,14,15
 422 656 422 656 280 526 c 0,16,17
 187 441 187 441 162.5 391.5 c 128,-1,18
 138 342 138 342 138 262 c 128,-1,19
 138 182 138 182 200.5 115.5 c 128,-1,20
 263 49 263 49 378 49 c 0,0,1
354 1223 m 1,21,-1
 438 1223 l 1,22,-1
 438 1144 l 1,23,-1
 354 1144 l 1,24,-1
 354 1223 l 1,21,-1
EndSplineSet
EndChar

StartChar: AE
Encoding: 198 198 155
Width: 1970
GlyphClass: 2
Flags: W
HStem: 0 62<0 157 244 390 880 1038 1123 1806> 503 61<519 949> 596 70<1025 1444> 1164 70<635 781 918 1582>
VStem: 1414 67<757 824> 1488 67<424 491> 1638 77<858 935> 1750 77<299 376>
DStem2: 157 62 244 62 0.490373 0.871513<42.6625 545.67 615.014 1272.5> 918 1164 845 1153 0.18418 -0.982893<0 506.793 577.99 595.445 657.612 1105.25> 1481 824 1414 824 0.181913 -0.983315<0 148.633 219.83 394.599> 1645 1234 1582 1164 0.199322 -0.979934<56.0381 367.06 877.06 1172.73>
LayerCount: 2
Fore
SplineSet
918 1164 m 1,0,-1
 1012 666 l 1,1,-1
 1444 666 l 1,2,-1
 1414 824 l 1,3,-1
 1481 824 l 1,4,-1
 1555 424 l 1,5,-1
 1488 424 l 1,6,-1
 1457 596 l 1,7,-1
 1025 596 l 1,8,-1
 1123 70 l 1,9,-1
 1806 70 l 1,10,-1
 1750 376 l 1,11,-1
 1827 376 l 1,12,-1
 1896 0 l 1,13,-1
 868 0 l 1,14,-1
 880 62 l 1,15,-1
 1038 62 l 1,16,-1
 961 503 l 1,17,-1
 486 503 l 1,18,-1
 244 62 l 1,19,-1
 402 62 l 1,20,-1
 390 0 l 1,21,-1
 -12 0 l 1,22,-1
 0 62 l 1,23,-1
 157 62 l 1,24,-1
 781 1171 l 1,25,-1
 623 1171 l 1,26,-1
 635 1234 l 1,27,-1
 1645 1234 l 1,28,-1
 1715 858 l 1,29,-1
 1638 858 l 1,30,-1
 1582 1164 l 1,31,-1
 918 1164 l 1,0,-1
519 564 m 1,32,-1
 949 564 l 1,33,-1
 845 1153 l 1,34,-1
 519 564 l 1,32,-1
EndSplineSet
EndChar

StartChar: Eth
Encoding: 208 208 165
Width: 1434
GlyphClass: 2
Flags: W
HStem: 0 62<98 264 346 958.005> 597 65<109 264 346 500> 1171 63<98 264 346 949.938>
VStem: 264 82<62 597 662 1171> 1252 84<374.015 863.868>
LayerCount: 2
Fore
SplineSet
791 1234 m 2,0,1
 1134 1234 1134 1234 1276 912 c 0,2,3
 1336 775 1336 775 1336 637 c 0,4,5
 1336 364 1336 364 1192 182 c 128,-1,6
 1048 0 1048 0 791 0 c 2,7,-1
 98 0 l 1,8,-1
 98 62 l 1,9,-1
 264 62 l 1,10,-1
 264 597 l 1,11,-1
 109 597 l 1,12,-1
 109 662 l 1,13,-1
 264 662 l 1,14,-1
 264 1171 l 1,15,-1
 98 1171 l 1,16,-1
 98 1234 l 1,17,-1
 791 1234 l 2,0,1
346 662 m 1,18,-1
 500 662 l 1,19,-1
 500 597 l 1,20,-1
 346 597 l 1,21,-1
 346 62 l 1,22,-1
 790 62 l 2,23,24
 1010 62 1010 62 1131 226 c 128,-1,25
 1252 390 1252 390 1252 616 c 0,26,27
 1252 934 1252 934 1047 1088 c 0,28,29
 938 1170 938 1170 790 1171 c 1,30,-1
 346 1171 l 1,31,-1
 346 662 l 1,18,-1
EndSplineSet
EndChar

StartChar: multiply
Encoding: 215 215 172
Width: 637
GlyphClass: 2
Flags: W
HStem: 317 495
VStem: 281 90<520 610>
DStem2: 122 812 78 768 0.707107 -0.707107<0 286.378 350.725 637.81> 78 362 122 318 0.706323 0.707889<0 287.016 350.654 637.741>
LayerCount: 2
Fore
SplineSet
122 812 m 1,0,-1
 325 610 l 1,1,-1
 529 814 l 1,2,-1
 573 769 l 1,3,-1
 371 565 l 1,4,-1
 573 361 l 1,5,-1
 529 317 l 1,6,-1
 325 521 l 1,7,-1
 122 318 l 1,8,-1
 78 362 l 1,9,-1
 281 565 l 1,10,-1
 78 768 l 1,11,-1
 122 812 l 1,0,-1
EndSplineSet
EndChar

StartChar: Oslash
Encoding: 216 216 173
Width: 1440
GlyphClass: 2
Flags: W
HStem: -23 71<507.203 915.797> 1182 73<505.761 931.259>
VStem: 82 84<389.138 839.761> 1278 84<390.377 837.293>
DStem2: 228 -8 276 -42 0.614028 0.789284<2.63767 144.414 222.078 1362.25 1444.36 1585.9>
LayerCount: 2
Fore
SplineSet
1160 1095 m 1,0,1
 1362 909 1362 909 1362 631.5 c 128,-1,2
 1362 354 1362 354 1193.5 165.5 c 128,-1,3
 1025 -23 1025 -23 722 -23 c 0,4,5
 517 -23 517 -23 365 72 c 1,6,-1
 276 -42 l 1,7,-1
 228 -8 l 1,8,-1
 317 105 l 1,9,10
 82 288 82 288 82 613 c 0,11,12
 82 871 82 871 250.5 1063 c 128,-1,13
 419 1255 419 1255 722 1255 c 0,14,15
 956 1255 956 1255 1118 1131 c 1,16,-1
 1204 1242 l 1,17,-1
 1250 1210 l 1,18,-1
 1160 1095 l 1,0,1
1069 1069 m 1,19,20
 923 1182 923 1182 722 1182 c 0,21,22
 372 1182 372 1182 228 886 c 0,23,24
 166 759 166 759 166 654 c 0,25,26
 166 322 166 322 363 165 c 1,27,-1
 1069 1069 l 1,19,20
411 131 m 1,28,29
 543 48 543 48 678 48 c 0,30,31
 1068 48 1068 48 1213 337 c 0,32,33
 1278 467 1278 467 1278 598 c 0,34,35
 1278 866 1278 866 1111 1031 c 1,36,-1
 411 131 l 1,28,29
EndSplineSet
EndChar

StartChar: Thorn
Encoding: 222 222 179
Width: 1130
GlyphClass: 2
Flags: W
HStem: 0 62<104 257 338 508> 421 65<338 871.875> 979 63<338 876.193> 1171 63<106 257 338 493>
VStem: 257 81<62 421 486 979 1042 1171> 995 79<600.362 875.009>
LayerCount: 2
Fore
SplineSet
338 1042 m 1,0,-1
 736 1042 l 2,1,2
 899 1042 899 1042 986.5 953.5 c 128,-1,3
 1074 865 1074 865 1074 739.5 c 128,-1,4
 1074 614 1074 614 983 517.5 c 128,-1,5
 892 421 892 421 736 421 c 2,6,-1
 338 421 l 1,7,-1
 338 62 l 1,8,-1
 508 62 l 1,9,-1
 508 0 l 1,10,-1
 104 0 l 1,11,-1
 104 62 l 1,12,-1
 257 62 l 1,13,-1
 257 1171 l 1,14,-1
 106 1171 l 1,15,-1
 106 1234 l 1,16,-1
 493 1234 l 1,17,-1
 493 1171 l 1,18,-1
 338 1171 l 1,19,-1
 338 1042 l 1,0,-1
736 486 m 2,20,21
 857 486 857 486 926 559.5 c 128,-1,22
 995 633 995 633 995 767 c 0,23,24
 995 840 995 840 927.5 909.5 c 128,-1,25
 860 979 860 979 736 979 c 2,26,-1
 338 979 l 1,27,-1
 338 486 l 1,28,-1
 736 486 l 2,20,21
EndSplineSet
EndChar

StartChar: germandbls
Encoding: 223 223 180
Width: 1081
GlyphClass: 2
Flags: W
HStem: 0 62<61 214 295 411 562 785.274> 641 44<570 674.993 694 744.145> 1180 75<394.59 720.657>
VStem: 214 81<62 1072.63> 834 78<814.841 1079.23> 969 79<195.64 487.62>
LayerCount: 2
Fore
SplineSet
694 676 m 1,0,1
 844 670 844 670 946 576 c 128,-1,2
 1048 482 1048 482 1048 337 c 0,3,4
 1048 100 1048 100 781 26 c 0,5,6
 689 0 689 0 562 0 c 1,7,-1
 562 62 l 1,8,9
 969 62 969 62 969 337 c 0,10,11
 969 544 969 544 756 616 c 0,12,13
 680 642 680 642 570 641 c 1,14,-1
 570 685 l 1,15,16
 695 691 695 691 764.5 771 c 128,-1,17
 834 851 834 851 834 950 c 0,18,19
 834 1060 834 1060 757 1120 c 128,-1,20
 680 1180 680 1180 554 1180 c 0,21,22
 407 1180 407 1180 351 1103 c 128,-1,23
 295 1026 295 1026 295 856 c 2,24,-1
 295 62 l 1,25,-1
 411 62 l 1,26,-1
 411 0 l 1,27,-1
 61 0 l 1,28,-1
 61 62 l 1,29,-1
 214 62 l 1,30,-1
 214 851 l 2,31,32
 214 1255 214 1255 563 1255 c 0,33,34
 664 1255 664 1255 743 1216.5 c 128,-1,35
 822 1178 822 1178 867.5 1105 c 128,-1,36
 913 1032 913 1032 912 936 c 1,37,38
 912 838 912 838 852.5 767 c 128,-1,39
 793 696 793 696 694 676 c 1,0,1
EndSplineSet
EndChar

StartChar: ae
Encoding: 230 230 187
Width: 1499
GlyphClass: 2
Flags: W
HStem: -14 67<240.498 597.583 906.625 1251.51> 410 65<239.817 675.568 758 1369> 787 67<245.708 584.133 940.636 1216.81>
VStem: 80 81<115.817 348.805> 680 76<199.873 390.094 466 604.127>
LayerCount: 2
Fore
SplineSet
756 400 m 1,0,1
 756 223 756 223 835 137.5 c 128,-1,2
 914 52 914 52 1081 52 c 1,3,4
 1276 48 1276 48 1415 204 c 1,5,-1
 1448 149 l 1,6,7
 1281 -14 1281 -14 1077.5 -14 c 128,-1,8
 874 -14 874 -14 761 116 c 1,9,10
 619 -14 619 -14 388 -14 c 0,11,12
 80 -14 80 -14 80 248 c 0,13,14
 80 474 80 474 404 475 c 0,15,16
 533 475 533 475 680 446 c 1,17,-1
 674 575 l 1,18,19
 674 787 674 787 436 787 c 0,20,21
 246 787 246 787 156 696 c 1,22,-1
 120 755 l 1,23,24
 223 854 223 854 459 854 c 128,-1,25
 695 854 695 854 744 641 c 1,26,27
 857 854 857 854 1097 854 c 0,28,29
 1206 854 1206 854 1287.5 788.5 c 128,-1,30
 1369 723 1369 723 1408 621.5 c 128,-1,31
 1447 520 1447 520 1447 400 c 1,32,-1
 756 400 l 1,0,1
1369 466 m 1,33,34
 1352 680 1352 680 1208 760 c 0,35,36
 1160 787 1160 787 1088 787 c 0,37,38
 945 787 945 787 855 691 c 128,-1,39
 765 595 765 595 758 466 c 1,40,-1
 1369 466 l 1,33,34
430 410 m 0,41,42
 296 410 296 410 228.5 372 c 128,-1,43
 161 334 161 334 161 232 c 0,44,45
 161 53 161 53 403 53 c 0,46,47
 516 53 516 53 583.5 77 c 128,-1,48
 651 101 651 101 731 164 c 1,49,50
 680 266 680 266 680 384 c 1,51,52
 543 410 543 410 430 410 c 0,41,42
EndSplineSet
EndChar

StartChar: eth
Encoding: 240 240 197
Width: 920
GlyphClass: 2
Flags: W
HStem: -23 72<291.043 612.952> 658 68<290.671 593.877>
VStem: 53 82<197.026 512.742> 762 77<194.509 507.842>
DStem2: 75 1040 94 988 0.968225 0.25008<5.3921 321.625 417.472 743.669> 347 1361 280 1314 0.474574 -0.880216<9.57367 228.88 306.946 736.441>
LayerCount: 2
Fore
SplineSet
451 49 m 0,0,1
 594 49 594 49 678 132.5 c 128,-1,2
 762 216 762 216 762 356 c 0,3,4
 762 492 762 492 668.5 575 c 128,-1,5
 575 658 575 658 447 658 c 0,6,7
 303 658 303 658 219 572.5 c 128,-1,8
 135 487 135 487 135 330 c 0,9,10
 135 229 135 229 218.5 139 c 128,-1,11
 302 49 302 49 451 49 c 0,0,1
465 1143 m 1,12,-1
 794 1230 l 1,13,-1
 818 1175 l 1,14,-1
 493 1091 l 1,15,-1
 705 697 l 1,16,17
 839 472 839 472 839 367 c 0,18,19
 839 185 839 185 721 81 c 128,-1,20
 603 -23 603 -23 478 -23 c 0,21,22
 265 -23 265 -23 159 93 c 128,-1,23
 53 209 53 209 53 363.5 c 128,-1,24
 53 518 53 518 166.5 622 c 128,-1,25
 280 726 280 726 407 726 c 128,-1,26
 534 726 534 726 632 678 c 1,27,-1
 415 1071 l 1,28,-1
 94 988 l 1,29,-1
 75 1040 l 1,30,-1
 386 1122 l 1,31,-1
 280 1314 l 1,32,-1
 347 1361 l 1,33,-1
 465 1143 l 1,12,-1
EndSplineSet
EndChar

StartChar: divide
Encoding: 247 247 204
Width: 522
GlyphClass: 2
Flags: W
HStem: 156 120<208 324> 413 62<0 529> 605 120<208 324>
VStem: 208 116<156 276 605 725>
LayerCount: 2
Fore
SplineSet
529 413 m 1,0,-1
 0 413 l 1,1,-1
 0 475 l 1,2,-1
 529 475 l 1,3,-1
 529 413 l 1,0,-1
324 276 m 1,4,-1
 324 156 l 1,5,-1
 208 156 l 1,6,-1
 208 276 l 1,7,-1
 324 276 l 1,4,-1
324 725 m 1,8,-1
 324 605 l 1,9,-1
 208 605 l 1,10,-1
 208 725 l 1,11,-1
 324 725 l 1,8,-1
EndSplineSet
EndChar

StartChar: oslash
Encoding: 248 248 205
Width: 997
GlyphClass: 2
Flags: W
HStem: -14 21G<459.5 591.5> 12 62<372 497.469> 787 67<343.883 661.731>
VStem: 51 82<238.682 603.491> 872.5 80.5<248.39 602.181>
DStem2: 194 -172 234 -196 0.45572 0.890123<0 225.854 300.088 1037.13 1108 1357.35>
LayerCount: 2
Fore
SplineSet
297 29 m 1,0,1
 185 80 185 80 118.5 179.5 c 128,-1,2
 52 279 52 279 51 423 c 1,3,4
 51 626 51 626 184 740 c 128,-1,5
 317 854 317 854 500 854 c 0,6,7
 604 854 604 854 698 815 c 1,8,-1
 813 1039 l 1,9,-1
 854 1015 l 1,10,-1
 741 794 l 1,11,12
 953 677 953 677 953 447.5 c 128,-1,13
 953 218 953 218 818 102 c 128,-1,14
 683 -14 683 -14 500 -14 c 0,15,16
 419 -14 419 -14 341 12 c 1,17,-1
 234 -196 l 1,18,-1
 194 -172 l 1,19,-1
 297 29 l 1,0,1
708 730 m 1,20,-1
 372 74 l 1,21,22
 504 30 504 30 604 65 c 128,-1,23
 704 100 704 100 756 146 c 0,24,25
 872 249 872 249 872.5 439 c 128,-1,26
 873 629 873 629 708 730 c 1,20,-1
666 752 m 1,27,28
 587 787 587 787 509 787 c 0,29,30
 352 787 352 787 242.5 690 c 128,-1,31
 133 593 133 593 133 424 c 0,32,33
 133 187 133 187 329 92 c 1,34,-1
 666 752 l 1,27,28
EndSplineSet
EndChar

StartChar: thorn
Encoding: 254 254 211
Width: 1083
GlyphClass: 2
Flags: W
HStem: -360 60<8 173> -21 74<437.657 781.132> 787 67<441.021 771.365> 1174 60<24 173>
VStem: 173 79<-300 125 164.05 653.74 695 1174> 971 79<245.116 591.781>
LayerCount: 2
Fore
SplineSet
252 1234 m 1,0,-1
 252 695 l 1,1,2
 387 854 387 854 600.5 854 c 128,-1,3
 814 854 814 854 932 728.5 c 128,-1,4
 1050 603 1050 603 1050 434 c 0,5,6
 1050 186 1050 186 857 51 c 0,7,8
 755 -21 755 -21 637 -21 c 128,-1,9
 519 -21 519 -21 407 28 c 128,-1,10
 295 77 295 77 252 125 c 1,11,-1
 249 -360 l 1,12,-1
 8 -360 l 1,13,-1
 8 -300 l 1,14,-1
 173 -300 l 1,15,-1
 173 1174 l 1,16,-1
 24 1174 l 1,17,-1
 24 1234 l 1,18,-1
 252 1234 l 1,0,-1
971 388 m 0,19,20
 971 577 971 577 874.5 682 c 128,-1,21
 778 787 778 787 596 787 c 0,22,23
 417 787 417 787 252 619 c 1,24,-1
 252 193 l 1,25,26
 432 53 432 53 608.5 53 c 128,-1,27
 785 53 785 53 878 165 c 128,-1,28
 971 277 971 277 971 388 c 0,19,20
EndSplineSet
EndChar

StartChar: hbar
Encoding: 295 295 213
Width: 1204
GlyphClass: 2
Flags: W
HStem: 0 60<104 266 345 537 730 888 967 1142> 787 67<524.323 822.767> 949 63<92 266 345 577> 1176 58<93 266>
VStem: 266 79<60 686.047 736 949 1012 1176> 888 79<60 728.148>
LayerCount: 2
Fore
SplineSet
93 1176 m 1,0,-1
 93 1234 l 1,1,-1
 345 1234 l 1,2,-1
 345 1012 l 1,3,-1
 577 1012 l 1,4,-1
 577 949 l 1,5,-1
 345 949 l 1,6,-1
 345 736 l 1,7,8
 513 829 513 829 581.5 841.5 c 128,-1,9
 650 854 650 854 706 854 c 0,10,11
 840 854 840 854 903.5 783.5 c 128,-1,12
 967 713 967 713 967 617 c 2,13,-1
 967 60 l 1,14,-1
 1142 60 l 1,15,-1
 1142 0 l 1,16,-1
 730 0 l 1,17,-1
 730 60 l 1,18,-1
 888 60 l 1,19,-1
 888 601 l 2,20,21
 888 787 888 787 694 787 c 0,22,23
 568 787 568 787 426 709 c 0,24,25
 386 687 386 687 345 664 c 1,26,-1
 345 60 l 1,27,-1
 537 60 l 1,28,-1
 537 0 l 1,29,-1
 104 0 l 1,30,-1
 104 60 l 1,31,-1
 266 60 l 1,32,-1
 266 949 l 1,33,-1
 92 949 l 1,34,-1
 92 1012 l 1,35,-1
 266 1012 l 1,36,-1
 266 1176 l 1,37,-1
 93 1176 l 1,0,-1
EndSplineSet
EndChar

StartChar: dotlessi
Encoding: 305 305 216
Width: 569
GlyphClass: 2
Flags: W
HStem: 0 60<106 256 335 489> 776 60<106 256>
VStem: 256 79<60 776>
LayerCount: 2
Fore
SplineSet
106 776 m 1,0,-1
 106 836 l 1,1,-1
 335 836 l 1,2,-1
 335 60 l 1,3,-1
 489 60 l 1,4,-1
 489 0 l 1,5,-1
 106 0 l 1,6,-1
 106 60 l 1,7,-1
 256 60 l 1,8,-1
 256 776 l 1,9,-1
 106 776 l 1,0,-1
EndSplineSet
EndChar

StartChar: IJ
Encoding: 306 306 217
Width: 1073
GlyphClass: 2
Flags: W
HStem: -101 60<635 778.039> 0 62<102 263 345 505> 1171 63<102 263 345 505 654 793 875 1014>
VStem: 263 82<62 1171> 793 82<-15.7279 1174>
LayerCount: 2
Fore
SplineSet
719 -41 m 2,0,1
 764 -41 764 -41 778.5 -16.5 c 128,-1,2
 793 8 793 8 793 59 c 2,3,-1
 793 1174 l 1,4,-1
 654 1174 l 1,5,-1
 654 1234 l 1,6,-1
 1014 1234 l 1,7,-1
 1014 1174 l 1,8,-1
 875 1174 l 1,9,-1
 875 60 l 1,10,11
 876 -91 876 -91 762 -99 c 0,12,13
 732 -101 732 -101 706 -101 c 2,14,-1
 635 -101 l 1,15,-1
 635 -41 l 1,16,-1
 719 -41 l 2,0,1
505 1234 m 1,17,-1
 505 1171 l 1,18,-1
 345 1171 l 1,19,-1
 345 62 l 1,20,-1
 505 62 l 1,21,-1
 505 0 l 1,22,-1
 102 0 l 1,23,-1
 102 62 l 1,24,-1
 263 62 l 1,25,-1
 263 1171 l 1,26,-1
 102 1171 l 1,27,-1
 102 1234 l 1,28,-1
 505 1234 l 1,17,-1
EndSplineSet
EndChar

StartChar: ij
Encoding: 307 307 218
Width: 1008
GlyphClass: 2
Flags: W
HStem: -271 60<527 713.449> 0 60<113 263 342 496> 776 60<113 263 605 742> 1092 113<255.049 343.435 742.049 829.435>
VStem: 237 125<1108.5 1189.01> 263 79<60 776> 724 124<1108.5 1203.61> 742 79<-191.229 779>
LayerCount: 2
Fore
SplineSet
742 779 m 1,0,-1
 605 779 l 1,1,-1
 605 836 l 1,2,-1
 821 836 l 1,3,-1
 821 -22 l 1,4,5
 822 -145 822 -145 798 -186 c 0,6,7
 749 -271 749 -271 607 -271 c 2,8,-1
 527 -271 l 1,9,-1
 527 -211 l 1,10,-1
 605 -211 l 2,11,12
 699 -211 699 -211 720.5 -174 c 128,-1,13
 742 -137 742 -137 742 -34 c 2,14,-1
 742 779 l 1,0,-1
785.5 1092 m 128,-1,16
 759 1092 759 1092 741.5 1108 c 128,-1,17
 724 1124 724 1124 724 1148 c 0,18,19
 724 1205 724 1205 786 1205 c 256,20,21
 848 1205 848 1205 848 1148 c 0,22,23
 848 1124 848 1124 830 1108 c 128,-1,15
 812 1092 812 1092 785.5 1092 c 128,-1,16
298 1092 m 0,24,25
 272 1092 272 1092 254.5 1108 c 128,-1,26
 237 1124 237 1124 237 1148 c 0,27,28
 237 1205 237 1205 299 1205 c 0,29,30
 327 1205 327 1205 344.5 1189.5 c 128,-1,31
 362 1174 362 1174 362 1149 c 128,-1,32
 362 1124 362 1124 344 1108 c 128,-1,33
 326 1092 326 1092 298 1092 c 0,24,25
113 776 m 1,34,-1
 113 836 l 1,35,-1
 342 836 l 1,36,-1
 342 60 l 1,37,-1
 496 60 l 1,38,-1
 496 0 l 1,39,-1
 113 0 l 1,40,-1
 113 60 l 1,41,-1
 263 60 l 1,42,-1
 263 776 l 1,43,-1
 113 776 l 1,34,-1
EndSplineSet
EndChar

StartChar: kgreenlandic
Encoding: 312 312 222
Width: 1141
GlyphClass: 2
Flags: W
HStem: 0 60<102 288 367 551 674 797 906 1057> 776 60<102 288 637 761 863 1022>
VStem: 288 79<60 422 445 778>
DStem2: 367 445 460 439 0.767128 0.641494<67.4939 514.583> 460 439 367 422 0.762024 -0.647549<0 502.223>
LayerCount: 2
Fore
SplineSet
102 778 m 1,0,-1
 102 838 l 1,1,-1
 367 838 l 1,2,-1
 367 445 l 1,3,-1
 761 776 l 1,4,-1
 637 776 l 1,5,-1
 637 836 l 1,6,-1
 1022 836 l 1,7,-1
 1022 776 l 1,8,-1
 863 776 l 1,9,-1
 460 439 l 1,10,-1
 906 60 l 1,11,-1
 1057 60 l 1,12,-1
 1057 0 l 1,13,-1
 674 0 l 1,14,-1
 674 60 l 1,15,-1
 797 60 l 1,16,-1
 367 422 l 1,17,-1
 367 60 l 1,18,-1
 551 60 l 1,19,-1
 551 0 l 1,20,-1
 102 0 l 1,21,-1
 102 60 l 1,22,-1
 288 60 l 1,23,-1
 288 778 l 1,24,-1
 102 778 l 1,0,-1
EndSplineSet
EndChar

StartChar: Lslash
Encoding: 321 321 225
Width: 1169
GlyphClass: 2
Flags: W
HStem: 0 70<133 272 354 982> 557 80<140 220> 807 80<482 562> 1174 60<133 272 354 493>
VStem: 272 82<70 635 764 1174> 982 76<70 412>
DStem2: 140 637 140 557 0.860358 0.509691<0 112.548 248.847 449.718>
LayerCount: 2
Fore
SplineSet
493 1234 m 1,0,-1
 493 1174 l 1,1,-1
 354 1174 l 1,2,-1
 354 764 l 1,3,-1
 562 887 l 1,4,-1
 562 807 l 1,5,-1
 354 684 l 1,6,-1
 354 70 l 1,7,-1
 982 70 l 1,8,-1
 982 412 l 1,9,-1
 1058 412 l 1,10,-1
 1058 0 l 1,11,-1
 133 0 l 1,12,-1
 133 70 l 1,13,-1
 272 70 l 1,14,-1
 272 635 l 1,15,-1
 140 557 l 1,16,-1
 140 637 l 1,17,-1
 272 715 l 1,18,-1
 272 1174 l 1,19,-1
 133 1174 l 1,20,-1
 133 1234 l 1,21,-1
 493 1234 l 1,0,-1
EndSplineSet
EndChar

StartChar: lslash
Encoding: 322 322 226
Width: 680
GlyphClass: 2
Flags: W
HStem: 0 60<127 313 392 576> 557 80<141 221> 807 80<483 563> 1174 60<127 313>
VStem: 313 79<60 659 786 1174>
DStem2: 141 637 141 557 0.860358 0.509691<0 159.195 291.894 449.718>
LayerCount: 2
Fore
SplineSet
563 887 m 1,0,-1
 563 807 l 1,1,-1
 392 706 l 1,2,-1
 392 60 l 1,3,-1
 576 60 l 1,4,-1
 576 0 l 1,5,-1
 127 0 l 1,6,-1
 127 60 l 1,7,-1
 313 60 l 1,8,-1
 313 659 l 1,9,-1
 141 557 l 1,10,-1
 141 637 l 1,11,-1
 313 739 l 1,12,-1
 313 1174 l 1,13,-1
 127 1174 l 1,14,-1
 127 1234 l 1,15,-1
 392 1234 l 1,16,-1
 392 786 l 1,17,-1
 563 887 l 1,0,-1
EndSplineSet
EndChar

StartChar: OE
Encoding: 338 338 229
Width: 1937
GlyphClass: 2
Flags: W
HStem: 0 70<500.38 986 1068 1729> 596 70<1068 1501> 1164 70<516.64 986 1068 1707>
VStem: 76 84<394.165 829.453> 986 82<70 596 666 1158> 1501 67<424 596 666 824> 1707 77<858 1164> 1729 77<70 376>
LayerCount: 2
Fore
SplineSet
1068 1164 m 1,0,-1
 1068 666 l 1,1,-1
 1501 666 l 1,2,-1
 1501 824 l 1,3,-1
 1568 824 l 1,4,-1
 1568 424 l 1,5,-1
 1501 424 l 1,6,-1
 1501 596 l 1,7,-1
 1068 596 l 1,8,-1
 1068 70 l 1,9,-1
 1729 70 l 1,10,-1
 1729 376 l 1,11,-1
 1806 376 l 1,12,-1
 1806 0 l 1,13,-1
 716 0 l 2,14,15
 413 0 413 0 244.5 182 c 128,-1,16
 76 364 76 364 76 614.5 c 128,-1,17
 76 865 76 865 245.5 1049.5 c 128,-1,18
 415 1234 415 1234 716 1234 c 2,19,-1
 1784 1234 l 1,20,-1
 1784 858 l 1,21,-1
 1707 858 l 1,22,-1
 1707 1164 l 1,23,-1
 1068 1164 l 1,0,-1
986 1158 m 1,24,-1
 716 1158 l 2,25,26
 454 1158 454 1158 307 996 c 128,-1,27
 160 834 160 834 160 612 c 128,-1,28
 160 390 160 390 305.5 230 c 128,-1,29
 451 70 451 70 716 70 c 2,30,-1
 986 70 l 1,31,-1
 986 1158 l 1,24,-1
EndSplineSet
EndChar

StartChar: oe
Encoding: 339 339 230
Width: 1720
GlyphClass: 2
Flags: W
HStem: -14 67<343.414 652.772 1135.7 1457.84> 400 66<941 1600> 787 67<344.046 652.949 1128.73 1427.83>
VStem: 59 82<237.02 603.9> 857 82<242.324 400 466 602.817>
LayerCount: 2
Fore
SplineSet
509 854 m 0,0,1
 637 854 637 854 744 786.5 c 128,-1,2
 851 719 851 719 898 610 c 1,3,4
 1001 854 1001 854 1292 854 c 0,5,6
 1469 854 1469 854 1573.5 723 c 128,-1,7
 1678 592 1678 592 1678 400 c 1,8,-1
 939 400 l 1,9,10
 956 149 956 149 1162 74 c 0,11,12
 1222 52 1222 52 1288 52 c 0,13,14
 1484 52 1484 52 1622 204 c 1,15,-1
 1655 149 l 1,16,17
 1488 -14 1488 -14 1288 -14 c 0,18,19
 1157 -14 1157 -14 1052 53.5 c 128,-1,20
 947 121 947 121 897 232 c 1,21,22
 850 117 850 117 745.5 51.5 c 128,-1,23
 641 -14 641 -14 488 -14 c 0,24,25
 320 -14 320 -14 189.5 102.5 c 128,-1,26
 59 219 59 219 59 422.5 c 128,-1,27
 59 626 59 626 189 740 c 128,-1,28
 319 854 319 854 509 854 c 0,0,1
749.5 690 m 128,-1,30
 642 787 642 787 498 787 c 128,-1,31
 354 787 354 787 247.5 691 c 128,-1,32
 141 595 141 595 141 421.5 c 128,-1,33
 141 248 141 248 247 150.5 c 128,-1,34
 353 53 353 53 498 53 c 128,-1,35
 643 53 643 53 750 151.5 c 128,-1,36
 857 250 857 250 857 421.5 c 128,-1,29
 857 593 857 593 749.5 690 c 128,-1,30
1600 466 m 1,37,38
 1583 679 1583 679 1417 760 c 0,39,40
 1362 787 1362 787 1285 787 c 0,41,42
 1133 787 1133 787 1040 690 c 128,-1,43
 947 593 947 593 941 466 c 1,44,-1
 1600 466 l 1,37,38
EndSplineSet
EndChar

StartChar: florin
Encoding: 402 402 241
Width: 729
GlyphClass: 2
Flags: W
HStem: -86 62<-2 97.568> 779 57<200 339 434 621> 1183 61<538.859 715.314>
DStem2: 141 60 220 60 0.265596 0.964084<-74.1243 745.765 825.949 1184.03>
LayerCount: 2
Fore
SplineSet
710 1165 m 1,0,1
 658 1183 658 1183 617 1183 c 0,2,3
 524 1183 524 1183 501 1080 c 1,4,-1
 434 836 l 1,5,-1
 636 836 l 1,6,-1
 621 779 l 1,7,-1
 418 779 l 1,8,-1
 220 60 l 1,9,10
 182 -74 182 -74 52 -84 c 0,11,12
 16 -86 16 -86 -18 -86 c 1,13,-1
 -2 -24 l 1,14,15
 69 -24 69 -24 98.5 -6 c 128,-1,16
 128 12 128 12 141 60 c 2,17,-1
 339 779 l 1,18,-1
 184 779 l 1,19,-1
 200 836 l 1,20,-1
 354 836 l 1,21,-1
 422 1078 l 1,22,23
 464 1244 464 1244 610 1244 c 0,24,25
 668 1244 668 1244 724 1219 c 1,26,-1
 710 1165 l 1,0,1
EndSplineSet
EndChar

StartChar: dotlessj
Encoding: 567 567 270
Width: 397
GlyphClass: 2
Flags: W
HStem: -271 72<-80 143.102> 779 81<25 172>
VStem: 172 69<-171.713 779>
LayerCount: 2
Fore
SplineSet
74 -199 m 2,0,1
 105 -199 105 -199 125.5 -183.5 c 128,-1,2
 146 -168 146 -168 155.5 -137.5 c 128,-1,3
 165 -107 165 -107 168.5 -75.5 c 128,-1,4
 172 -44 172 -44 172 0 c 2,5,-1
 172 779 l 1,6,-1
 25 779 l 1,7,-1
 25 860 l 1,8,-1
 241 860 l 1,9,-1
 241 -44 l 2,10,11
 241 -142 241 -142 216 -183 c 0,12,13
 164 -271 164 -271 16 -271 c 2,14,-1
 -80 -271 l 1,15,-1
 -80 -199 l 1,16,-1
 74 -199 l 2,0,1
EndSplineSet
EndChar

StartChar: circumflex
Encoding: 710 710 271
Width: 598
GlyphClass: 2
Flags: W
HStem: 922 273
VStem: 106 380
DStem2: 106 922 188 922 0.45373 0.891139<37.2059 284.463>
LayerCount: 2
Fore
SplineSet
106 922 m 1,0,-1
 245 1195 l 1,1,-1
 340 1195 l 1,2,-1
 486 922 l 1,3,-1
 397 922 l 1,4,-1
 293 1146 l 1,5,-1
 188 922 l 1,6,-1
 106 922 l 1,0,-1
EndSplineSet
EndChar

StartChar: caron
Encoding: 711 711 272
Width: 598
GlyphClass: 2
Flags: W
HStem: 922 273
VStem: 109 380
DStem2: 191 1195 109 1195 0.45373 -0.891139<0 247.257>
LayerCount: 2
Fore
SplineSet
191 1195 m 1,0,-1
 296 971 l 1,1,-1
 400 1195 l 1,2,-1
 489 1195 l 1,3,-1
 343 922 l 1,4,-1
 248 922 l 1,5,-1
 109 1195 l 1,6,-1
 191 1195 l 1,0,-1
EndSplineSet
EndChar

StartChar: breve
Encoding: 728 728 273
Width: 586
GlyphClass: 2
Flags: W
HStem: 1080 56<222.04 373.7> 1228 20G<131 184 406.5 457>
VStem: 131 51<1197 1248> 414 43<1186.56 1248>
LayerCount: 2
Fore
SplineSet
182 1248 m 1,0,1
 186 1203 186 1203 216 1169.5 c 128,-1,2
 246 1136 246 1136 286 1136 c 0,3,4
 399 1136 399 1136 414 1248 c 1,5,-1
 457 1248 l 1,6,7
 450 1172 450 1172 409.5 1126 c 128,-1,8
 369 1080 369 1080 296 1080 c 0,9,10
 231 1080 231 1080 185.5 1127 c 128,-1,11
 140 1174 140 1174 131 1248 c 1,12,-1
 182 1248 l 1,0,1
EndSplineSet
EndChar

StartChar: dotaccent
Encoding: 729 729 274
Width: 397
GlyphClass: 2
Flags: W
HStem: 1064 120<141 257>
VStem: 141 116<1064 1184>
LayerCount: 2
Fore
SplineSet
257 1184 m 1,0,-1
 257 1064 l 1,1,-1
 141 1064 l 1,2,-1
 141 1184 l 1,3,-1
 257 1184 l 1,0,-1
EndSplineSet
EndChar

StartChar: ring
Encoding: 730 730 275
Width: 590
GlyphClass: 2
Flags: W
HStem: 995 44<225.835 366.625> 1291 45<223.589 369.206>
VStem: 125 48<1087.54 1242.61> 418 48<1088.51 1241.51>
LayerCount: 2
Fore
SplineSet
418 1166 m 0,0,1
 418 1214 418 1214 386 1252.5 c 128,-1,2
 354 1291 354 1291 310 1291 c 0,3,4
 173 1291 173 1291 173 1152 c 0,5,6
 173 1107 173 1107 210 1073 c 128,-1,7
 247 1039 247 1039 296 1039 c 0,8,9
 350 1039 350 1039 384 1075.5 c 128,-1,10
 418 1112 418 1112 418 1166 c 0,0,1
296 1336 m 0,11,12
 370 1336 370 1336 418 1290 c 128,-1,13
 466 1244 466 1244 466 1165 c 0,14,15
 466 1091 466 1091 420.5 1044 c 128,-1,16
 375 997 375 997 296 995 c 0,17,18
 221 994 221 994 173 1039.5 c 128,-1,19
 125 1085 125 1085 125 1165 c 0,20,21
 125 1238 125 1238 171 1287 c 128,-1,22
 217 1336 217 1336 296 1336 c 0,11,12
EndSplineSet
EndChar

StartChar: ogonek
Encoding: 731 731 276
Width: 530
GlyphClass: 2
Flags: W
HStem: -364 86<217.736 421.317> -20 20G<179.5 293>
VStem: 119 83<-259.491 -84.5803>
LayerCount: 2
Fore
SplineSet
303 -364 m 0,0,1
 119 -364 119 -364 119 -227.5 c 128,-1,2
 119 -91 119 -91 240 0 c 1,3,-1
 293 0 l 1,4,5
 202 -87 202 -87 202 -174 c 0,6,7
 202 -278 202 -278 320 -278 c 0,8,9
 372 -278 372 -278 425 -256 c 1,10,-1
 425 -319 l 1,11,12
 360 -364 360 -364 303 -364 c 0,0,1
EndSplineSet
EndChar

StartChar: tilde
Encoding: 732 732 277
Width: 717
GlyphClass: 2
Flags: W
HStem: 1022 88<276.166 555.569> 1069 88<158.884 426.574>
VStem: 552 37<1125.91 1153>
LayerCount: 2
Fore
SplineSet
249 1157 m 0,0,1
 273 1157 273 1157 371.5 1133.5 c 128,-1,2
 470 1110 470 1110 494 1110 c 0,3,4
 537 1110 537 1110 552 1153 c 1,5,-1
 589 1153 l 1,6,7
 574 1022 574 1022 465 1022 c 0,8,9
 420 1022 420 1022 334 1045.5 c 128,-1,10
 248 1069 248 1069 211.5 1069 c 128,-1,11
 175 1069 175 1069 163 1028 c 1,12,-1
 125 1028 l 1,13,14
 140 1157 140 1157 249 1157 c 0,0,1
EndSplineSet
EndChar

StartChar: hungarumlaut
Encoding: 733 733 278
Width: 623
GlyphClass: 2
Flags: W
HStem: 985 249
VStem: 125 395
LayerCount: 2
Fore
SplineSet
335 985 m 1,0,-1
 394 1234 l 1,1,-1
 520 1234 l 1,2,-1
 366 985 l 1,3,-1
 335 985 l 1,0,-1
125 985 m 1,4,-1
 184 1234 l 1,5,-1
 310 1234 l 1,6,-1
 156 985 l 1,7,-1
 125 985 l 1,4,-1
EndSplineSet
EndChar

StartChar: dotaccentcmb
Encoding: 775 775 279
Width: 397
GlyphClass: 2
Flags: W
HStem: 1064 120<141 257>
VStem: 141 116<1064 1184>
LayerCount: 2
Fore
SplineSet
257 1184 m 1,0,-1
 257 1064 l 1,1,-1
 141 1064 l 1,2,-1
 141 1184 l 1,3,-1
 257 1184 l 1,0,-1
EndSplineSet
EndChar

StartChar: uni030F
Encoding: 783 783 280
Width: 627
GlyphClass: 2
Flags: W
HStem: 985 249
VStem: 104 395
LayerCount: 2
Fore
SplineSet
258 985 m 1,0,-1
 104 1234 l 1,1,-1
 230 1234 l 1,2,-1
 289 985 l 1,3,-1
 258 985 l 1,0,-1
468 985 m 1,4,-1
 314 1234 l 1,5,-1
 440 1234 l 1,6,-1
 499 985 l 1,7,-1
 468 985 l 1,4,-1
EndSplineSet
EndChar

StartChar: uni0311
Encoding: 785 785 281
Width: 854
GlyphClass: 2
Flags: W
HStem: 1218 54<296.66 563.049>
VStem: 131 87<1080 1164> 642 79<1080 1161.36>
LayerCount: 2
Fore
SplineSet
131 1080 m 1,0,1
 153 1272 153 1272 461 1272 c 0,2,3
 557 1272 557 1272 634 1217 c 128,-1,4
 711 1162 711 1162 721 1080 c 1,5,-1
 642 1080 l 1,6,7
 618 1218 618 1218 430 1218 c 128,-1,8
 242 1218 242 1218 218 1080 c 1,9,-1
 131 1080 l 1,0,1
EndSplineSet
EndChar

StartChar: uni0326
Encoding: 806 806 282
Width: 412
GlyphClass: 2
Flags: W
HStem: -180 44<139 181.418> -4 120<148 210>
VStem: 148 126<-4 116> 210 64<-95.7238 -4>
LayerCount: 2
Fore
SplineSet
274 116 m 1,0,-1
 274 -6 l 2,1,2
 274 -180 274 -180 139 -180 c 1,3,-1
 139 -136 l 1,4,5
 186 -121 186 -121 198 -96.5 c 128,-1,6
 210 -72 210 -72 210 -4 c 1,7,-1
 148 -4 l 1,8,-1
 148 116 l 1,9,-1
 274 116 l 1,0,-1
EndSplineSet
EndChar

StartChar: pi
Encoding: 960 960 283
Width: 1137
GlyphClass: 2
Flags: W
HStem: -13 62<162 237.658 872.795 981.643> 806 30<236.554 330 407 769 855 963>
VStem: 168 37<709 775.309> 768 87<58.2969 806>
DStem2: 278 208 372 308 0.0866296 0.996241<-145.164 600.257>
LayerCount: 2
Fore
SplineSet
168 709 m 1,0,1
 168 781 168 781 193 808.5 c 128,-1,2
 218 836 218 836 282 836 c 2,3,-1
 963 836 l 1,4,-1
 963 806 l 1,5,-1
 855 806 l 1,6,-1
 855 168 l 2,7,8
 855 49 855 49 927 49 c 0,9,10
 950 49 950 49 983 58 c 1,11,-1
 983 13 l 1,12,13
 929 -13 929 -13 887 -13 c 0,14,15
 768 -13 768 -13 768 179 c 2,16,-1
 769 806 l 1,17,-1
 407 806 l 1,18,-1
 372 308 l 2,19,20
 360 136 360 136 313.5 66 c 128,-1,21
 267 -4 267 -4 162 -4 c 1,22,-1
 162 53 l 1,23,24
 195 53 195 53 217.5 64 c 128,-1,25
 240 75 240 75 252 97.5 c 128,-1,26
 264 120 264 120 269.5 145 c 128,-1,27
 275 170 275 170 278 208 c 0,28,29
 281 260 281 260 287 330 c 2,30,-1
 330 806 l 1,31,-1
 281 806 l 2,32,33
 212 806 212 806 205 709 c 1,34,-1
 168 709 l 1,0,1
EndSplineSet
EndChar

StartChar: endash
Encoding: 8211 8211 284
Width: 995
GlyphClass: 2
Flags: W
HStem: 0 60<143 859>
LayerCount: 2
Fore
SplineSet
859 60 m 1,0,-1
 859 0 l 1,1,-1
 143 0 l 1,2,-1
 143 60 l 1,3,-1
 859 60 l 1,0,-1
EndSplineSet
EndChar

StartChar: emdash
Encoding: 8212 8212 285
Width: 1358
GlyphClass: 2
Flags: W
HStem: 0 60<143 1220>
LayerCount: 2
Fore
SplineSet
1220 60 m 1,0,-1
 1220 0 l 1,1,-1
 143 0 l 1,2,-1
 143 60 l 1,3,-1
 1220 60 l 1,0,-1
EndSplineSet
EndChar

StartChar: quoteleft
Encoding: 8216 8216 286
Width: 401
GlyphClass: 2
Flags: W
HStem: 959 120<200 261> 1211 44<228.268 271>
VStem: 135 126<959 1079> 135 65<1079 1170.72>
LayerCount: 2
Fore
SplineSet
135 959 m 1,0,-1
 135 1081 l 2,1,2
 135 1255 135 1255 271 1255 c 1,3,-1
 271 1211 l 1,4,5
 224 1196 224 1196 212 1171.5 c 128,-1,6
 200 1147 200 1147 200 1079 c 1,7,-1
 261 1079 l 1,8,-1
 261 959 l 1,9,-1
 135 959 l 1,0,-1
EndSplineSet
EndChar

StartChar: quoteright
Encoding: 8217 8217 287
Width: 401
GlyphClass: 2
Flags: W
HStem: 937 45<133 175.732> 1114 120<143 204>
VStem: 143 126<1114 1234> 204 65<1022.28 1114>
LayerCount: 2
Fore
SplineSet
269 1234 m 1,0,-1
 269 1111 l 2,1,2
 269 937 269 937 133 937 c 1,3,-1
 133 982 l 1,4,5
 180 997 180 997 192 1021.5 c 128,-1,6
 204 1046 204 1046 204 1114 c 1,7,-1
 143 1114 l 1,8,-1
 143 1234 l 1,9,-1
 269 1234 l 1,0,-1
EndSplineSet
EndChar

StartChar: quotesinglbase
Encoding: 8218 8218 288
Width: 412
GlyphClass: 2
Flags: W
HStem: -180 44<139 181.418> -4 120<148 210>
VStem: 148 126<-4 116> 210 64<-95.7238 -4>
LayerCount: 2
Fore
SplineSet
274 116 m 1,0,-1
 274 -6 l 2,1,2
 274 -180 274 -180 139 -180 c 1,3,-1
 139 -136 l 1,4,5
 186 -121 186 -121 198 -96.5 c 128,-1,6
 210 -72 210 -72 210 -4 c 1,7,-1
 148 -4 l 1,8,-1
 148 116 l 1,9,-1
 274 116 l 1,0,-1
EndSplineSet
EndChar

StartChar: quotedblleft
Encoding: 8220 8220 289
Width: 627
GlyphClass: 2
Flags: W
HStem: 959 120<200 261 426 487> 1211 44<228.268 271 454.268 497>
VStem: 135 126<959 1079> 135 65<1079 1170.72> 361 126<959 1079> 361 65<1079 1170.72>
LayerCount: 2
Fore
SplineSet
361 959 m 1,0,-1
 361 1081 l 2,1,2
 361 1255 361 1255 497 1255 c 1,3,-1
 497 1211 l 1,4,5
 450 1196 450 1196 438 1171.5 c 128,-1,6
 426 1147 426 1147 426 1079 c 1,7,-1
 487 1079 l 1,8,-1
 487 959 l 1,9,-1
 361 959 l 1,0,-1
135 959 m 1,10,-1
 135 1081 l 2,11,12
 135 1255 135 1255 271 1255 c 1,13,-1
 271 1211 l 1,14,15
 224 1196 224 1196 212 1171.5 c 128,-1,16
 200 1147 200 1147 200 1079 c 1,17,-1
 261 1079 l 1,18,-1
 261 959 l 1,19,-1
 135 959 l 1,10,-1
EndSplineSet
EndChar

StartChar: quotedblright
Encoding: 8221 8221 290
Width: 627
GlyphClass: 2
Flags: W
HStem: 937 45<133 175.732 359 401.732> 1114 120<143 204 369 430>
VStem: 143 126<1114 1234> 204 65<1022.28 1114> 369 126<1114 1234> 430 65<1022.28 1114>
LayerCount: 2
Fore
SplineSet
269 1234 m 1,0,-1
 269 1111 l 2,1,2
 269 937 269 937 133 937 c 1,3,-1
 133 982 l 1,4,5
 180 997 180 997 192 1021.5 c 128,-1,6
 204 1046 204 1046 204 1114 c 1,7,-1
 143 1114 l 1,8,-1
 143 1234 l 1,9,-1
 269 1234 l 1,0,-1
495 1234 m 1,10,-1
 495 1111 l 2,11,12
 495 937 495 937 359 937 c 1,13,-1
 359 982 l 1,14,15
 406 997 406 997 418 1021.5 c 128,-1,16
 430 1046 430 1046 430 1114 c 1,17,-1
 369 1114 l 1,18,-1
 369 1234 l 1,19,-1
 495 1234 l 1,10,-1
EndSplineSet
EndChar

StartChar: quotedblbase
Encoding: 8222 8222 291
Width: 664
GlyphClass: 2
Flags: W
HStem: -180 44<139 181.418 390 428.892> -4 120<148 210 399 460>
VStem: 148 126<-4 116> 210 64<-95.7238 -4> 399 126<-4 116> 460 65<-92.1169 -4>
LayerCount: 2
Fore
SplineSet
274 116 m 1,0,-1
 274 -6 l 2,1,2
 274 -180 274 -180 139 -180 c 1,3,-1
 139 -136 l 1,4,5
 186 -121 186 -121 198 -96.5 c 128,-1,6
 210 -72 210 -72 210 -4 c 1,7,-1
 148 -4 l 1,8,-1
 148 116 l 1,9,-1
 274 116 l 1,0,-1
525 116 m 1,10,-1
 525 -6 l 2,11,12
 525 -180 525 -180 390 -180 c 1,13,-1
 390 -136 l 1,14,15
 435 -121 435 -121 447.5 -93 c 128,-1,16
 460 -65 460 -65 460 -4 c 1,17,-1
 399 -4 l 1,18,-1
 399 116 l 1,19,-1
 525 116 l 1,10,-1
EndSplineSet
EndChar

StartChar: dagger
Encoding: 8224 8224 292
Width: 580
GlyphClass: 2
Flags: W
VStem: 243 92<267.132 882.621> 269 40<2 326.214>
LayerCount: 2
Fore
SplineSet
269 2 m 1,0,-1
 243 590 l 1,1,2
 243 747 243 747 269 887 c 1,3,-1
 39 862 l 1,4,-1
 39 941 l 1,5,-1
 269 923 l 1,6,-1
 236 1210 l 1,7,-1
 342 1210 l 1,8,-1
 309 923 l 1,9,-1
 536 941 l 1,10,-1
 536 862 l 1,11,-1
 309 887 l 1,12,13
 335 750 335 750 335 593 c 1,14,-1
 309 2 l 1,15,-1
 269 2 l 1,0,-1
EndSplineSet
EndChar

StartChar: daggerdbl
Encoding: 8225 8225 293
Width: 639
GlyphClass: 2
Flags: W
HStem: -24 21G<269 375>
VStem: 288 68<299 887>
LayerCount: 2
Fore
SplineSet
302 299 m 1,0,1
 288 365 288 365 288 593 c 0,2,3
 288 817 288 817 302 887 c 1,4,-1
 72 862 l 1,5,-1
 72 941 l 1,6,-1
 302 923 l 1,7,-1
 269 1210 l 1,8,-1
 375 1210 l 1,9,-1
 342 923 l 1,10,-1
 569 941 l 1,11,-1
 569 862 l 1,12,-1
 342 887 l 1,13,14
 356 794 356 794 356 591 c 128,-1,15
 356 388 356 388 342 299 c 1,16,-1
 569 324 l 1,17,-1
 569 245 l 1,18,-1
 342 263 l 1,19,-1
 375 -24 l 1,20,-1
 269 -24 l 1,21,-1
 302 263 l 1,22,-1
 72 245 l 1,23,-1
 72 324 l 1,24,-1
 302 299 l 1,0,1
EndSplineSet
EndChar

StartChar: bullet
Encoding: 8226 8226 294
Width: 739
GlyphClass: 2
Flags: W
HStem: 442 463<226.939 511.391>
VStem: 129 481<541.114 807.252>
LayerCount: 2
Fore
SplineSet
129 674 m 256,0,1
 129 771 129 771 199.5 838 c 128,-1,2
 270 905 270 905 369 905 c 128,-1,3
 468 905 468 905 539 838 c 128,-1,4
 610 771 610 771 610 674.5 c 128,-1,5
 610 578 610 578 539 510 c 128,-1,6
 468 442 468 442 369 442 c 128,-1,7
 270 442 270 442 199.5 509.5 c 128,-1,8
 129 577 129 577 129 674 c 256,0,1
EndSplineSet
EndChar

StartChar: ellipsis
Encoding: 8230 8230 295
Width: 926
GlyphClass: 2
Flags: W
HStem: 0 120<147 263 407 524 668 784>
VStem: 147 116<0 120> 407 117<0 120> 668 116<0 120>
CounterMasks: 1 70
LayerCount: 2
Fore
SplineSet
263 120 m 1,0,-1
 263 0 l 1,1,-1
 147 0 l 1,2,-1
 147 120 l 1,3,-1
 263 120 l 1,0,-1
524 120 m 1,4,-1
 524 0 l 1,5,-1
 407 0 l 1,6,-1
 407 120 l 1,7,-1
 524 120 l 1,4,-1
784 120 m 1,8,-1
 784 0 l 1,9,-1
 668 0 l 1,10,-1
 668 120 l 1,11,-1
 784 120 l 1,8,-1
EndSplineSet
EndChar

StartChar: guilsinglleft
Encoding: 8249 8249 296
Width: 512
GlyphClass: 2
Flags: W
VStem: 76 320
LayerCount: 2
Fore
SplineSet
348 1043 m 1,0,-1
 396 1043 l 1,1,-1
 184 664 l 1,2,-1
 396 281 l 1,3,-1
 348 281 l 1,4,-1
 76 664 l 1,5,-1
 348 1043 l 1,0,-1
EndSplineSet
EndChar

StartChar: guilsinglright
Encoding: 8250 8250 297
Width: 512
GlyphClass: 2
Flags: W
VStem: 117 320
LayerCount: 2
Fore
SplineSet
437 664 m 1,0,-1
 165 281 l 1,1,-1
 117 281 l 1,2,-1
 329 664 l 1,3,-1
 117 1043 l 1,4,-1
 165 1043 l 1,5,-1
 437 664 l 1,0,-1
EndSplineSet
EndChar

StartChar: fraction
Encoding: 8260 8260 298
Width: 537
GlyphClass: 2
Flags: W
HStem: -23 21G<43 123.759> 1235 20G<409.178 486>
VStem: 43 75<-23 52> 415 71<1184 1255>
DStem2: 43 -23 118 -23 0.279481 0.960151<20.961 1331.04>
LayerCount: 2
Fore
SplineSet
415 1255 m 1,0,-1
 486 1255 l 1,1,-1
 118 -23 l 1,2,-1
 43 -23 l 1,3,-1
 415 1255 l 1,0,-1
EndSplineSet
EndChar

StartChar: foursuperior
Encoding: 8308 8308 299
Width: 770
GlyphClass: 2
Flags: W
HStem: 0 61<319 431 504 616> 260 63<164 431 504 682>
VStem: 431 73<61 260 323 768>
DStem2: 74 316 164 323 0.523579 0.851977<53.0859 572.011>
LayerCount: 2
Fore
SplineSet
74 316 m 1,0,-1
 412 866 l 1,1,-1
 504 866 l 1,2,-1
 504 323 l 1,3,-1
 682 323 l 1,4,-1
 682 260 l 1,5,-1
 504 260 l 1,6,-1
 504 61 l 1,7,-1
 616 61 l 1,8,-1
 616 0 l 1,9,-1
 319 0 l 1,10,-1
 319 61 l 1,11,-1
 431 61 l 1,12,-1
 431 260 l 1,13,-1
 83 260 l 1,14,-1
 74 316 l 1,0,-1
431 323 m 1,15,-1
 431 768 l 1,16,17
 403 721 403 721 309.5 566.5 c 128,-1,18
 216 412 216 412 164 323 c 1,19,-1
 431 323 l 1,15,-1
EndSplineSet
EndChar

StartChar: Euro
Encoding: 8364 8364 300
Width: 1303
GlyphClass: 2
Flags: W
HStem: -22 69<592.533 989.001> 455 62<10 184 280 901> 732 62<10 187 286 901> 1178 77<574.823 954.67> 1217 20G<1147 1222>
VStem: 178 84<519.119 730.314> 187 85<352.557 455 517 620.529 623.75 635.194 637.8 732> 1147 75<1099 1237>
LayerCount: 2
Fore
SplineSet
280 455 m 1,0,1
 321 272 321 272 456 159.5 c 128,-1,2
 591 47 591 47 793 47 c 0,3,4
 984 47 984 47 1175 174 c 1,5,-1
 1209 110 l 1,6,7
 1009 -22 1009 -22 779 -22 c 0,8,9
 440 -22 440 -22 274 245 c 0,10,11
 218 335 218 335 194 455 c 1,12,-1
 10 455 l 1,13,-1
 10 517 l 1,14,-1
 184 517 l 1,15,16
 178 595 178 595 178 636.5 c 128,-1,17
 178 678 178 678 187 732 c 1,18,-1
 10 732 l 1,19,-1
 10 794 l 1,20,-1
 200 794 l 1,21,22
 253 997 253 997 415 1126 c 128,-1,23
 577 1255 577 1255 779 1255 c 128,-1,24
 981 1255 981 1255 1147 1099 c 1,25,-1
 1147 1237 l 1,26,-1
 1222 1237 l 1,27,-1
 1222 1007 l 1,28,-1
 1160 994 l 1,29,30
 991 1178 991 1178 753.5 1178 c 128,-1,31
 516 1178 516 1178 360 952 c 0,32,33
 312 882 312 882 286 794 c 1,34,-1
 901 794 l 1,35,-1
 901 732 l 1,36,-1
 272 732 l 1,37,38
 262 678 262 678 262 622 c 0,39,40
 262 575 262 575 269 517 c 1,41,-1
 901 517 l 1,42,-1
 901 455 l 1,43,-1
 280 455 l 1,0,1
EndSplineSet
EndChar

StartChar: trademark
Encoding: 8482 8482 301
Width: 1634
GlyphClass: 2
Flags: W
HStem: 612 49<248 334 393 480 774 853 910 990 1291 1370 1428 1506> 1026 210<90 146 585 642> 1183 53<146 334 393 585 774 853 1428 1506>
VStem: 90 56<1026 1183> 334 59<660 1183> 585 57<1026 1183> 853 57<661 1115> 1370 58<661 1114>
DStem2: 915 1236 910 1115 0.440425 -0.897789<106.43 528.205> 1144 760 1144 638 0.428902 0.903351<0 416.718>
LayerCount: 2
Fore
SplineSet
642 1236 m 1,0,-1
 642 1026 l 1,1,-1
 585 1026 l 1,2,-1
 585 1183 l 1,3,-1
 393 1183 l 1,4,-1
 393 660 l 1,5,-1
 480 660 l 1,6,-1
 480 612 l 1,7,-1
 248 612 l 1,8,-1
 248 660 l 1,9,-1
 334 660 l 1,10,-1
 334 1183 l 1,11,-1
 146 1183 l 1,12,-1
 146 1026 l 1,13,-1
 90 1026 l 1,14,-1
 90 1236 l 1,15,-1
 642 1236 l 1,0,-1
1144 760 m 1,16,-1
 1365 1236 l 1,17,-1
 1506 1236 l 1,18,-1
 1506 1187 l 1,19,-1
 1428 1187 l 1,20,-1
 1428 661 l 1,21,-1
 1506 661 l 1,22,-1
 1506 612 l 1,23,-1
 1291 612 l 1,24,-1
 1291 661 l 1,25,-1
 1370 661 l 1,26,-1
 1370 1114 l 1,27,-1
 1144 638 l 1,28,-1
 910 1115 l 1,29,-1
 910 661 l 1,30,-1
 990 661 l 1,31,-1
 990 612 l 1,32,-1
 774 612 l 1,33,-1
 774 661 l 1,34,-1
 853 661 l 1,35,-1
 853 1187 l 1,36,-1
 774 1187 l 1,37,-1
 774 1236 l 1,38,-1
 915 1236 l 1,39,-1
 1144 760 l 1,16,-1
EndSplineSet
EndChar

StartChar: partialdiff
Encoding: 8706 8706 302
Width: 887
GlyphClass: 2
Flags: W
HStem: -23 72<287.692 608.952> 658 68<283.533 589.877>
VStem: 49 82<198.264 508.656> 758 77<194.509 507.842>
DStem2: 343 1361 276 1314 0.474574 -0.880216<9.57367 736.441>
LayerCount: 2
Fore
SplineSet
131 363 m 0,0,1
 131 223 131 223 218 136 c 128,-1,2
 305 49 305 49 447 49 c 0,3,4
 590 49 590 49 674 132.5 c 128,-1,5
 758 216 758 216 758 356 c 0,6,7
 758 492 758 492 664.5 575 c 128,-1,8
 571 658 571 658 443 658 c 256,9,10
 315 658 315 658 250 601 c 0,11,12
 131 497 131 497 131 363 c 0,0,1
343 1361 m 1,13,-1
 701 697 l 1,14,15
 835 472 835 472 835 367 c 0,16,17
 835 185 835 185 717 81 c 128,-1,18
 599 -23 599 -23 474 -23 c 0,19,20
 261 -23 261 -23 155 93 c 128,-1,21
 49 209 49 209 49 363.5 c 128,-1,22
 49 518 49 518 162.5 622 c 128,-1,23
 276 726 276 726 403 726 c 128,-1,24
 530 726 530 726 628 678 c 1,25,-1
 276 1314 l 1,26,-1
 343 1361 l 1,13,-1
EndSplineSet
EndChar

StartChar: Delta
Encoding: 8710 8710 303
Width: 760
GlyphClass: 2
Flags: W
HStem: 0 61<110 649>
VStem: 63 636<0 61 66 110.761>
LayerCount: 2
Fore
SplineSet
699 0 m 1,0,-1
 63 0 l 1,1,-1
 63 67 l 1,2,-1
 380 1062 l 1,3,-1
 699 66 l 1,4,-1
 699 0 l 1,0,-1
649 61 m 1,5,-1
 380 935 l 1,6,-1
 110 61 l 1,7,-1
 649 61 l 1,5,-1
EndSplineSet
EndChar

StartChar: minus
Encoding: 8722 8722 306
Width: 1233
GlyphClass: 2
Flags: W
HStem: 872 87<125 1109>
LayerCount: 2
Fore
SplineSet
1109 959 m 1,0,-1
 1109 872 l 1,1,-1
 125 872 l 1,2,-1
 125 959 l 1,3,-1
 1109 959 l 1,0,-1
EndSplineSet
EndChar

StartChar: infinity
Encoding: 8734 8734 308
Width: 1294
GlyphClass: 2
Flags: W
HStem: 265 51<297.369 452.059 822.918 1007.64> 780 52<284.843 478.856 823.737 999.244>
VStem: 135 68<404.603 697.378> 1092 68<399.647 689.202>
LayerCount: 2
Fore
SplineSet
647 644 m 1,0,1
 747 832 747 832 913 832 c 0,2,3
 1013 832 1013 832 1066 779 c 0,4,5
 1160 683 1160 683 1160 550.5 c 128,-1,6
 1160 418 1160 418 1085 341.5 c 128,-1,7
 1010 265 1010 265 912 265 c 0,8,9
 745 265 745 265 650 462 c 1,10,11
 546 270 546 270 374 270 c 0,12,13
 135 270 135 270 135 582 c 0,14,15
 135 670 135 670 204 753 c 128,-1,16
 273 836 273 836 384.5 836 c 128,-1,17
 496 836 496 836 588 732 c 0,18,19
 620 696 620 696 647 644 c 1,0,1
915 316 m 0,20,21
 1092 316 1092 316 1092 572 c 0,22,23
 1092 647 1092 647 1043 713.5 c 128,-1,24
 994 780 994 780 898 780 c 0,25,26
 782 780 782 780 673 548 c 1,27,28
 756 365 756 365 844 329 c 0,29,30
 876 316 876 316 915 316 c 0,20,21
387 785 m 0,31,32
 203 785 203 785 203 521 c 0,33,34
 203 449 203 449 249.5 384.5 c 128,-1,35
 296 320 296 320 372 320 c 0,36,37
 514 320 514 320 621 553 c 1,38,39
 522 785 522 785 387 785 c 0,31,32
EndSplineSet
EndChar

StartChar: integral
Encoding: 8747 8747 309
Width: 700
GlyphClass: 2
Flags: W
HStem: -86 62<-11 88.568> 1183 61<531.441 706.314>
DStem2: 132 60 211 60 0.265596 0.964084<-74.1243 1184.42>
LayerCount: 2
Fore
SplineSet
701 1165 m 1,0,1
 649 1183 649 1183 608 1183 c 0,2,3
 519 1183 519 1183 492 1080 c 1,4,-1
 211 60 l 2,5,6
 174 -74 174 -74 44 -84 c 0,7,8
 8 -86 8 -86 -27 -86 c 1,9,-1
 -11 -24 l 1,10,11
 60 -24 60 -24 89.5 -6 c 128,-1,12
 119 12 119 12 132 60 c 2,13,-1
 413 1078 l 2,14,15
 458 1244 458 1244 601 1244 c 0,16,17
 659 1244 659 1244 715 1219 c 1,18,-1
 701 1165 l 1,0,1
EndSplineSet
EndChar

StartChar: approxequal
Encoding: 8776 8776 310
Width: 811
GlyphClass: 2
Flags: W
HStem: 439 88<289.492 633.584> 486 88<164.884 493.771> 638 88<312.879 644.464> 685 88<175.276 504.164>
VStem: 630 37<542.911 570>
LayerCount: 2
Fore
SplineSet
255 574 m 0,0,1
 286 574 286 574 412.5 550.5 c 128,-1,2
 539 527 539 527 568 527 c 0,3,4
 616 527 616 527 630 570 c 1,5,-1
 667 570 l 1,6,7
 652 439 652 439 543 439 c 0,8,9
 484 439 484 439 373 462.5 c 128,-1,10
 262 486 262 486 221.5 486 c 128,-1,11
 181 486 181 486 169 445 c 1,12,-1
 131 445 l 1,13,14
 146 574 146 574 255 574 c 0,0,1
553 638 m 0,15,16
 495 638 495 638 384 661.5 c 128,-1,17
 273 685 273 685 231.5 685 c 128,-1,18
 190 685 190 685 180 644 c 1,19,-1
 142 644 l 1,20,21
 155 773 155 773 265 773 c 0,22,23
 323 773 323 773 426.5 749.5 c 128,-1,24
 530 726 530 726 577.5 726 c 128,-1,25
 625 726 625 726 641 769 c 1,26,-1
 678 769 l 1,27,28
 663 638 663 638 553 638 c 0,15,16
EndSplineSet
EndChar

StartChar: notequal
Encoding: 8800 8800 311
Width: 879
GlyphClass: 2
Flags: W
HStem: 276 61<94 363 437 797> 613 64<94 453 522 797>
VStem: 313 60<84 144> 517 58<810 868>
DStem2: 313 84 373 84 0.251819 0.967774<15.1091 198.404 276.072 547.207 626.52 810.106>
LayerCount: 2
Fore
SplineSet
468 677 m 1,0,-1
 517 868 l 1,1,-1
 575 868 l 1,2,-1
 522 677 l 1,3,-1
 797 677 l 1,4,-1
 797 613 l 1,5,-1
 510 613 l 1,6,-1
 437 337 l 1,7,-1
 797 337 l 1,8,-1
 797 276 l 1,9,-1
 420 276 l 1,10,-1
 373 84 l 1,11,-1
 313 84 l 1,12,-1
 363 276 l 1,13,-1
 94 276 l 1,14,-1
 94 337 l 1,15,-1
 381 337 l 1,16,-1
 453 613 l 1,17,-1
 94 613 l 1,18,-1
 94 677 l 1,19,-1
 468 677 l 1,0,-1
EndSplineSet
EndChar

StartChar: lessequal
Encoding: 8804 8804 312
Width: 905
GlyphClass: 2
Flags: W
HStem: 0 58<88 776>
DStem2: 88 590 194 571 0.884974 0.46564<84.9601 744.829> 194 571 88 553 0.886562 -0.46261<0 658.926>
LayerCount: 2
Fore
SplineSet
88 553 m 1,0,-1
 88 590 l 1,1,-1
 776 952 l 1,2,-1
 776 882 l 1,3,-1
 194 571 l 1,4,-1
 776 262 l 1,5,-1
 776 194 l 1,6,-1
 88 553 l 1,0,-1
88 58 m 1,7,-1
 776 58 l 1,8,-1
 776 0 l 1,9,-1
 88 0 l 1,10,-1
 88 58 l 1,7,-1
EndSplineSet
EndChar

StartChar: greaterequal
Encoding: 8805 8805 313
Width: 903
GlyphClass: 2
Flags: W
HStem: 0 58<133 821>
DStem2: 133 952 133 882 0.884974 -0.46564<32.5948 692.464> 133 262 133 194 0.886562 0.46261<0 658.926>
LayerCount: 2
Fore
SplineSet
133 194 m 1,0,-1
 133 262 l 1,1,-1
 715 571 l 1,2,-1
 133 882 l 1,3,-1
 133 952 l 1,4,-1
 821 590 l 1,5,-1
 821 553 l 1,6,-1
 133 194 l 1,0,-1
821 0 m 1,7,-1
 133 0 l 1,8,-1
 133 58 l 1,9,-1
 821 58 l 1,10,-1
 821 0 l 1,7,-1
EndSplineSet
EndChar

StartChar: lozenge
Encoding: 9674 9674 314
Width: 907
GlyphClass: 2
Flags: W
HStem: -23 21G<417.41 493.52> 1234 20G<417.469 493.539>
DStem2: 115 616 29 614 0.532743 -0.846277<0 664.263> 29 614 115 616 0.530951 0.847403<47.3566 708.255> 481 1254 458 1181 0.531192 -0.847251<49.6319 709.465> 458 47 481 -23 0.530595 0.847625<0 663.232>
LayerCount: 2
Fore
SplineSet
481 -23 m 1,0,-1
 430 -23 l 1,1,-1
 29 614 l 1,2,-1
 430 1254 l 1,3,-1
 481 1254 l 1,4,-1
 881 616 l 1,5,-1
 481 -23 l 1,0,-1
458 1181 m 1,6,-1
 115 616 l 1,7,-1
 458 47 l 1,8,-1
 799 616 l 1,9,-1
 458 1181 l 1,6,-1
EndSplineSet
EndChar

StartChar: fi
Encoding: 64257 64257 315
Width: 1133
GlyphClass: 2
Flags: W
HStem: 0 60<104 259 338 529 672 822 901 1054> 776 60<104 259 338 822> 1186 62<480.698 780.505>
VStem: 259 79<60 776 836 1079.23> 792 129<1028.18 1129.5> 822 79<60 776>
LayerCount: 2
Fore
SplineSet
259 970 m 2,0,1
 259 1057 259 1057 319 1122 c 128,-1,2
 379 1187 379 1187 467 1217.5 c 128,-1,3
 555 1248 555 1248 654 1248 c 0,4,5
 816 1248 816 1248 894 1160 c 0,6,7
 920 1132 920 1132 921 1098 c 1,8,9
 921 1026 921 1026 856 1026 c 0,10,11
 792 1026 792 1026 792 1088 c 0,12,13
 792 1114 792 1114 820 1130 c 1,14,15
 754 1186 754 1186 637 1186 c 0,16,17
 564 1186 564 1186 497 1162 c 128,-1,18
 430 1138 430 1138 384 1087.5 c 128,-1,19
 338 1037 338 1037 338 972 c 2,20,-1
 338 836 l 1,21,-1
 901 836 l 1,22,-1
 901 60 l 1,23,-1
 1054 60 l 1,24,-1
 1054 0 l 1,25,-1
 672 0 l 1,26,-1
 672 60 l 1,27,-1
 822 60 l 1,28,-1
 822 776 l 1,29,-1
 338 776 l 1,30,-1
 338 60 l 1,31,-1
 529 60 l 1,32,-1
 529 0 l 1,33,-1
 104 0 l 1,34,-1
 104 60 l 1,35,-1
 259 60 l 1,36,-1
 259 776 l 1,37,-1
 104 776 l 1,38,-1
 104 836 l 1,39,-1
 259 836 l 1,40,-1
 259 970 l 2,0,1
EndSplineSet
Ligature2: "'liga' Standard Ligatures in Latin lookup 0 subtable" f i
EndChar

StartChar: fl
Encoding: 64258 64258 316
Width: 1194
GlyphClass: 2
Flags: W
HStem: 0 60<104 259 338 529 676 862 942 1125> 779 57<104 259 338 541> 1190 63<481.868 834.735>
VStem: 259 79<60 779 836 1083> 862 80<60 1164.96>
LayerCount: 2
Fore
SplineSet
259 962 m 2,0,1
 259 1035 259 1035 293.5 1092 c 128,-1,2
 328 1149 328 1149 386.5 1183.5 c 128,-1,3
 445 1218 445 1218 517 1235.5 c 128,-1,4
 589 1253 589 1253 670 1253 c 0,5,6
 845 1253 845 1253 918 1180 c 0,7,8
 942 1156 942 1156 942 1123 c 2,9,-1
 942 60 l 1,10,-1
 1125 60 l 1,11,-1
 1125 0 l 1,12,-1
 676 0 l 1,13,-1
 676 60 l 1,14,-1
 862 60 l 1,15,-1
 862 1123 l 2,16,17
 862 1190 862 1190 610 1190 c 0,18,19
 527 1190 527 1190 432.5 1132 c 128,-1,20
 338 1074 338 1074 338 965 c 2,21,-1
 338 836 l 1,22,-1
 541 836 l 1,23,-1
 541 779 l 1,24,-1
 338 779 l 1,25,-1
 338 60 l 1,26,-1
 529 60 l 1,27,-1
 529 0 l 1,28,-1
 104 0 l 1,29,-1
 104 60 l 1,30,-1
 259 60 l 1,31,-1
 259 779 l 1,32,-1
 104 779 l 1,33,-1
 104 836 l 1,34,-1
 259 836 l 1,35,-1
 259 962 l 2,0,1
EndSplineSet
Ligature2: "'liga' Standard Ligatures in Latin lookup 0 subtable" f l
EndChar

StartChar: commaaccent
Encoding: 65539 -1 317
Width: 399
GlyphClass: 2
Flags: W
HStem: 941 44<131 173.418> 1117 120<140 202>
VStem: 140 126<1117 1237> 202 64<1025.28 1117>
LayerCount: 2
Fore
SplineSet
266 1237 m 1,0,-1
 266 1115 l 2,1,2
 266 941 266 941 131 941 c 1,3,-1
 131 985 l 1,4,5
 178 1000 178 1000 190 1024.5 c 128,-1,6
 202 1049 202 1049 202 1117 c 1,7,-1
 140 1117 l 1,8,-1
 140 1237 l 1,9,-1
 266 1237 l 1,0,-1
EndSplineSet
EndChar

StartChar: dotaccentcmb.cap
Encoding: 65542 -1 320
Width: 389
GlyphClass: 2
Flags: W
HStem: 1001 120<133 250>
VStem: 133 117<1001 1121>
LayerCount: 2
Fore
SplineSet
250 1121 m 1,0,-1
 250 1001 l 1,1,-1
 133 1001 l 1,2,-1
 133 1121 l 1,3,-1
 250 1121 l 1,0,-1
EndSplineSet
EndChar

